<svg xmlns="http://www.w3.org/2000/svg" xmlns:xlink="http://www.w3.org/1999/xlink" version="1.1" data-diagram-type="SEQUENCE" style="width:1048px;height:1923px;background:#FFFFFF;" width="1048.125px" height="1923.75px" viewBox="0 0 1048 1923" zoomAndPan="magnify" preserveAspectRatio="none" contentStyleType="text/css"><?plantuml 1.2026.7beta8?><defs/><g font-family="sans-serif" lengthAdjust="spacing"><g class="title" data-source-line="1"><text x="121.773" y="52.491" fill="#000" font-size="26.25" textLength="801.881" font-weight="700" font-family="Arial">Reservation Request and Approval Sequence Diagram</text></g><g><title>Vehicle</title><rect x="65.769" y="231.738" width="15" height="1530.132" fill="#000" fill-opacity="0"/><line x1="72.331" y1="231.738" x2="72.331" y2="1761.87" style="stroke:#181818;stroke-width:0.938;stroke-dasharray:9.375,9.375;"/></g><g><title>Intersection</title><rect x="406.637" y="231.738" width="15" height="1530.132" fill="#000" fill-opacity="0"/><line x1="413.199" y1="231.738" x2="413.199" y2="1761.87" style="stroke:#181818;stroke-width:0.938;stroke-dasharray:9.375,9.375;"/></g><g><title>Reservation</title><rect x="650.66" y="231.738" width="15" height="1530.132" fill="#000" fill-opacity="0"/><line x1="657.222" y1="231.738" x2="657.222" y2="1761.87" style="stroke:#181818;stroke-width:0.938;stroke-dasharray:9.375,9.375;"/></g><g><title>Intersection</title><rect x="930.788" y="231.738" width="15" height="1530.132" fill="#000" fill-opacity="0"/><line x1="937.351" y1="231.738" x2="937.351" y2="1761.87" style="stroke:#181818;stroke-width:0.938;stroke-dasharray:9.375,9.375;"/></g><text x="18.75" y="225.547" fill="#000" font-size="26.25" textLength="95.912" font-family="Arial">Vehicle</text><ellipse cx="72.331" cy="104.619" rx="15" ry="15" fill="#E2E2F0" style="stroke:#181818;stroke-width:0.938;"/><path d="M72.331,119.619 L72.331,170.244 M47.956,134.619 L96.706,134.619 M72.331,170.244 L47.956,198.369 M72.331,170.244 L96.706,198.369" style="stroke:#181818;stroke-width:0.938;" fill="none"/><rect x="321.997" y="173.057" width="182.404" height="56.807" fill="#E2E2F0" style="stroke:#181818;stroke-width:0.938;" rx="4.688" ry="4.688"/><text x="335.122" y="210.547" fill="#000" font-size="26.25" textLength="156.154" font-family="Arial">Intersection</text><rect x="565.642" y="142.5" width="183.16" height="87.363" fill="#E2E2F0" style="stroke:#181818;stroke-width:0.938;" rx="4.688" ry="4.688"/><text x="578.767" y="179.991" fill="#000" font-size="26.25" textLength="156.91" font-family="Arial">Reservation</text><text x="599.691" y="210.547" fill="#000" font-size="26.25" textLength="115.062" font-family="Arial">Manager</text><rect x="846.149" y="142.5" width="182.404" height="87.363" fill="#E2E2F0" style="stroke:#181818;stroke-width:0.938;" rx="4.688" ry="4.688"/><text x="859.274" y="179.991" fill="#000" font-size="26.25" textLength="156.154" font-family="Arial">Intersection</text><text x="897.758" y="210.547" fill="#000" font-size="26.25" textLength="79.186" font-family="Arial">Lights</text><text x="18.75" y="1786.236" fill="#000" font-size="26.25" textLength="95.912" font-family="Arial">Vehicle</text><ellipse cx="72.331" cy="1808.364" rx="15" ry="15" fill="#E2E2F0" style="stroke:#181818;stroke-width:0.938;"/><path d="M72.331,1823.364 L72.331,1873.989 M47.956,1838.364 L96.706,1838.364 M72.331,1873.989 L47.956,1902.114 M72.331,1873.989 L96.706,1902.114" style="stroke:#181818;stroke-width:0.938;" fill="none"/><rect x="321.997" y="1761.87" width="182.404" height="56.807" fill="#E2E2F0" style="stroke:#181818;stroke-width:0.938;" rx="4.688" ry="4.688"/><text x="335.122" y="1799.361" fill="#000" font-size="26.25" textLength="156.154" font-family="Arial">Intersection</text><rect x="565.642" y="1761.87" width="183.16" height="87.363" fill="#E2E2F0" style="stroke:#181818;stroke-width:0.938;" rx="4.688" ry="4.688"/><text x="578.767" y="1799.361" fill="#000" font-size="26.25" textLength="156.91" font-family="Arial">Reservation</text><text x="599.691" y="1829.918" fill="#000" font-size="26.25" textLength="115.062" font-family="Arial">Manager</text><rect x="846.149" y="1761.87" width="182.404" height="87.363" fill="#E2E2F0" style="stroke:#181818;stroke-width:0.938;" rx="4.688" ry="4.688"/><text x="859.274" y="1799.361" fill="#000" font-size="26.25" textLength="156.154" font-family="Arial">Intersection</text><text x="897.758" y="1829.918" fill="#000" font-size="26.25" textLength="79.186" font-family="Arial">Lights</text><line x1="72.331" y1="286.362" x2="151.081" y2="286.362" style="stroke:#181818;stroke-width:1.875;"/><line x1="151.081" y1="286.362" x2="151.081" y2="310.737" style="stroke:#181818;stroke-width:1.875;"/><line x1="74.206" y1="310.737" x2="151.081" y2="310.737" style="stroke:#181818;stroke-width:1.875;"/><polygon points="92.956,303.237,74.206,310.737,92.956,318.237,85.456,310.737" fill="#181818" style="stroke:#181818;stroke-width:1.875;stroke-linejoin:miter;stroke-miterlimit:10;"/><text x="85.456" y="276.864" fill="#000" font-size="24.375" textLength="268.672" font-family="Arial">Approach intersection</text><line x1="72.331" y1="365.361" x2="151.081" y2="365.361" style="stroke:#181818;stroke-width:1.875;"/><line x1="151.081" y1="365.361" x2="151.081" y2="389.736" style="stroke:#181818;stroke-width:1.875;"/><line x1="74.206" y1="389.736" x2="151.081" y2="389.736" style="stroke:#181818;stroke-width:1.875;"/><polygon points="92.956,382.236,74.206,389.736,92.956,397.236,85.456,389.736" fill="#181818" style="stroke:#181818;stroke-width:1.875;stroke-linejoin:miter;stroke-miterlimit:10;"/><text x="85.456" y="355.863" fill="#000" font-size="24.375" textLength="263.317" font-family="Arial">Choose turn direction</text><polygon points="390.699,436.86,409.449,444.36,390.699,451.86,398.199,444.36" fill="#181818" style="stroke:#181818;stroke-width:1.875;stroke-linejoin:miter;stroke-miterlimit:10;"/><line x1="72.331" y1="444.36" x2="401.949" y2="444.36" style="stroke:#181818;stroke-width:1.875;"/><text x="119.444" y="434.862" fill="#000" font-size="24.375" textLength="246.642" font-family="Arial">Request reservation</text><polygon points="634.722,491.484,653.472,498.984,634.722,506.484,642.222,498.984" fill="#181818" style="stroke:#181818;stroke-width:1.875;stroke-linejoin:miter;stroke-miterlimit:10;"/><line x1="413.199" y1="498.984" x2="645.972" y2="498.984" style="stroke:#181818;stroke-width:1.875;"/><text x="435.699" y="489.486" fill="#000" font-size="24.375" textLength="199.023" font-family="Arial">request(vehicle)</text><path d="M383.199,521.484 L504.03,521.484 L504.03,534.858 L485.28,553.608 L383.199,553.608 L383.199,521.484" style="stroke:#000;stroke-width:2.813;" fill="#EEE"/><rect x="383.199" y="521.484" width="584.151" height="409.263" fill="none" style="stroke:#000;stroke-width:2.813;"/><text x="411.324" y="545.985" fill="#000" font-size="24.375" textLength="36.455" font-weight="700" font-family="Arial">alt</text><text x="532.155" y="544.379" fill="#000" font-size="20.625" textLength="328.711" font-weight="700" font-family="Arial">[Reservation already exists]</text><line x1="383.199" y1="647.607" x2="967.351" y2="647.607" style="stroke:#000;stroke-width:1.875;stroke-dasharray:3.75,3.75;"/><text x="392.574" y="670.502" fill="#000" font-size="20.625" textLength="319.929" font-weight="700" font-family="Arial">[Reservation slot occupied]</text><line x1="383.199" y1="759.99" x2="967.351" y2="759.99" style="stroke:#000;stroke-width:1.875;stroke-dasharray:3.75,3.75;"/><text x="392.574" y="782.885" fill="#000" font-size="20.625" textLength="177.145" font-weight="700" font-family="Arial">[Slot available]</text><polygon points="433.824,604.482,415.074,611.982,433.824,619.482,426.324,611.982" fill="#181818" style="stroke:#181818;stroke-width:1.875;stroke-linejoin:miter;stroke-miterlimit:10;"/><line x1="422.574" y1="611.982" x2="655.347" y2="611.982" style="stroke:#181818;stroke-width:1.875;stroke-dasharray:3.75,3.75;"/><text x="507.533" y="602.484" fill="#000" font-size="24.375" textLength="55.356" font-family="Arial">True</text><polygon points="433.824,716.865,415.074,724.365,433.824,731.865,426.324,724.365" fill="#181818" style="stroke:#181818;stroke-width:1.875;stroke-linejoin:miter;stroke-miterlimit:10;"/><line x1="422.574" y1="724.365" x2="655.347" y2="724.365" style="stroke:#181818;stroke-width:1.875;stroke-dasharray:3.75,3.75;"/><text x="503.498" y="714.867" fill="#000" font-size="24.375" textLength="63.425" font-family="Arial">False</text><line x1="657.222" y1="836.748" x2="735.972" y2="836.748" style="stroke:#181818;stroke-width:1.875;"/><line x1="735.972" y1="836.748" x2="735.972" y2="861.123" style="stroke:#181818;stroke-width:1.875;"/><line x1="659.097" y1="861.123" x2="735.972" y2="861.123" style="stroke:#181818;stroke-width:1.875;"/><polygon points="677.847,853.623,659.097,861.123,677.847,868.623,670.347,861.123" fill="#181818" style="stroke:#181818;stroke-width:1.875;stroke-linejoin:miter;stroke-miterlimit:10;"/><text x="670.347" y="827.249" fill="#000" font-size="24.375" textLength="253.878" font-family="Arial">Store vehicle in slots</text><polygon points="433.824,908.247,415.074,915.747,433.824,923.247,426.324,915.747" fill="#181818" style="stroke:#181818;stroke-width:1.875;stroke-linejoin:miter;stroke-miterlimit:10;"/><line x1="422.574" y1="915.747" x2="655.347" y2="915.747" style="stroke:#181818;stroke-width:1.875;stroke-dasharray:3.75,3.75;"/><text x="507.533" y="906.248" fill="#000" font-size="24.375" textLength="55.356" font-family="Arial">True</text><polygon points="92.956,989.121,74.206,996.621,92.956,1004.121,85.456,996.621" fill="#181818" style="stroke:#181818;stroke-width:1.875;stroke-linejoin:miter;stroke-miterlimit:10;"/><line x1="81.706" y1="996.621" x2="411.324" y2="996.621" style="stroke:#181818;stroke-width:1.875;stroke-dasharray:3.75,3.75;"/><text x="110.417" y="987.122" fill="#000" font-size="24.375" textLength="264.697" font-family="Arial">Reservation response</text><path d="M42.331,1019.121 L163.162,1019.121 L163.162,1032.495 L144.412,1051.245 L42.331,1051.245 L42.331,1019.121" style="stroke:#000;stroke-width:2.813;" fill="#EEE"/><rect x="42.331" y="1019.121" width="925.02" height="697.749" fill="none" style="stroke:#000;stroke-width:2.813;"/><text x="70.456" y="1043.622" fill="#000" font-size="24.375" textLength="36.455" font-weight="700" font-family="Arial">alt</text><text x="191.287" y="1042.016" fill="#000" font-size="20.625" textLength="257.631" font-weight="700" font-family="Arial">[Reservation granted]</text><line x1="42.331" y1="1600.737" x2="967.351" y2="1600.737" style="stroke:#000;stroke-width:1.875;stroke-dasharray:3.75,3.75;"/><text x="51.706" y="1623.632" fill="#000" font-size="20.625" textLength="244.741" font-weight="700" font-family="Arial">[Reservation denied]</text><polygon points="390.699,1102.119,409.449,1109.619,390.699,1117.119,398.199,1109.619" fill="#181818" style="stroke:#181818;stroke-width:1.875;stroke-linejoin:miter;stroke-miterlimit:10;"/><line x1="72.331" y1="1109.619" x2="401.949" y2="1109.619" style="stroke:#181818;stroke-width:1.875;"/><text x="94.831" y="1100.121" fill="#000" font-size="24.375" textLength="295.868" font-family="Arial">Check traffic permission</text><polygon points="914.851,1156.743,933.601,1164.243,914.851,1171.743,922.351,1164.243" fill="#181818" style="stroke:#181818;stroke-width:1.875;stroke-linejoin:miter;stroke-miterlimit:10;"/><line x1="413.199" y1="1164.243" x2="926.101" y2="1164.243" style="stroke:#181818;stroke-width:1.875;"/><text x="568.908" y="1154.745" fill="#000" font-size="24.375" textLength="212.734" font-family="Arial">can_go(direction)</text><polygon points="433.824,1211.367,415.074,1218.867,433.824,1226.367,426.324,1218.867" fill="#181818" style="stroke:#181818;stroke-width:1.875;stroke-linejoin:miter;stroke-miterlimit:10;"/><line x1="422.574" y1="1218.867" x2="935.476" y2="1218.867" style="stroke:#181818;stroke-width:1.875;stroke-dasharray:3.75,3.75;"/><text x="561.22" y="1209.369" fill="#000" font-size="24.375" textLength="228.111" font-family="Arial">Green / Red status</text><polygon points="92.956,1265.991,74.206,1273.491,92.956,1280.991,85.456,1273.491" fill="#181818" style="stroke:#181818;stroke-width:1.875;stroke-linejoin:miter;stroke-miterlimit:10;"/><line x1="81.706" y1="1273.491" x2="411.324" y2="1273.491" style="stroke:#181818;stroke-width:1.875;stroke-dasharray:3.75,3.75;"/><text x="107.566" y="1263.993" fill="#000" font-size="24.375" textLength="270.398" font-family="Arial">Movement permission</text><line x1="72.331" y1="1328.115" x2="151.081" y2="1328.115" style="stroke:#181818;stroke-width:1.875;"/><line x1="151.081" y1="1328.115" x2="151.081" y2="1352.49" style="stroke:#181818;stroke-width:1.875;"/><line x1="74.206" y1="1352.49" x2="151.081" y2="1352.49" style="stroke:#181818;stroke-width:1.875;"/><polygon points="92.956,1344.99,74.206,1352.49,92.956,1359.99,85.456,1352.49" fill="#181818" style="stroke:#181818;stroke-width:1.875;stroke-linejoin:miter;stroke-miterlimit:10;"/><text x="85.456" y="1318.617" fill="#000" font-size="24.375" textLength="217.756" font-family="Arial">Enter intersection</text><line x1="72.331" y1="1407.114" x2="151.081" y2="1407.114" style="stroke:#181818;stroke-width:1.875;"/><line x1="151.081" y1="1407.114" x2="151.081" y2="1431.489" style="stroke:#181818;stroke-width:1.875;"/><line x1="74.206" y1="1431.489" x2="151.081" y2="1431.489" style="stroke:#181818;stroke-width:1.875;"/><polygon points="92.956,1423.989,74.206,1431.489,92.956,1438.989,85.456,1431.489" fill="#181818" style="stroke:#181818;stroke-width:1.875;stroke-linejoin:miter;stroke-miterlimit:10;"/><text x="85.456" y="1397.616" fill="#000" font-size="24.375" textLength="219.684" font-family="Arial">Cross intersection</text><polygon points="634.722,1478.613,653.472,1486.113,634.722,1493.613,642.222,1486.113" fill="#181818" style="stroke:#181818;stroke-width:1.875;stroke-linejoin:miter;stroke-miterlimit:10;"/><line x1="72.331" y1="1486.113" x2="645.972" y2="1486.113" style="stroke:#181818;stroke-width:1.875;"/><text x="267.152" y="1476.615" fill="#000" font-size="24.375" textLength="195.25" font-family="Arial">release(vehicle)</text><line x1="657.222" y1="1540.737" x2="735.972" y2="1540.737" style="stroke:#181818;stroke-width:1.875;"/><line x1="735.972" y1="1540.737" x2="735.972" y2="1565.112" style="stroke:#181818;stroke-width:1.875;"/><line x1="659.097" y1="1565.112" x2="735.972" y2="1565.112" style="stroke:#181818;stroke-width:1.875;"/><polygon points="677.847,1557.612,659.097,1565.112,677.847,1572.612,670.347,1565.112" fill="#181818" style="stroke:#181818;stroke-width:1.875;stroke-linejoin:miter;stroke-miterlimit:10;"/><text x="670.347" y="1531.239" fill="#000" font-size="24.375" textLength="229.408" font-family="Arial">Remove from slots</text><line x1="72.331" y1="1677.495" x2="151.081" y2="1677.495" style="stroke:#181818;stroke-width:1.875;"/><line x1="151.081" y1="1677.495" x2="151.081" y2="1701.87" style="stroke:#181818;stroke-width:1.875;"/><line x1="74.206" y1="1701.87" x2="151.081" y2="1701.87" style="stroke:#181818;stroke-width:1.875;"/><polygon points="92.956,1694.37,74.206,1701.87,92.956,1709.37,85.456,1701.87" fill="#181818" style="stroke:#181818;stroke-width:1.875;stroke-linejoin:miter;stroke-miterlimit:10;"/><text x="85.456" y="1667.997" fill="#000" font-size="24.375" textLength="175.743" font-family="Arial">Wait and retry</text><?plantuml-src TLJ1Rjim3BthAuYUsaEnxJRiC238rY50iaCoR9S20oVJDb5PyaJPM_z-bEqijflw98YFZq_l4KwS7C6HX6AFYOFNy--E907w0ZPj6qEF3axvqbk2JunLnCOOUMBVeXv1QYp27_OLbEY4PfMYPNZt_ktyXahiN7e8Fdt5Xc0J6TsSQvfp816iQEEuyc399uh6e4qXmdUgsJeosf3OSei-mSqk8uHiVi4DeC1kMPyzyD4Vq2jt7737m-j4ZtxFLPra9DmRCus6-uzd5V1Xz0Xj3JnhlGxTrY48GUgYXuBZ19rZTuew1n0lcetPvUhneEKubc_xiUjEVN5faI2wI5Wy0_rbIM90F-syd-Y_nOwC8KrgqIGk90ZMTYrJiUvv688TcquPY3somryQmnavgJjfH0IJDhLauBskWNmnl6jXqLoI6j06dmUlNwWhg6PhU-PTsRUjoJv1YbYMRA6bsB18zZ1Z1njtUuLPz3-hSFi_XhkHJ6jdaLyYaOStEhW0IPWwELCi51z2Jurkw7pKMjS5_JaloN9LNiLkOn1POjVWQICSeT1b8rQP7AbHZL36q4nnl8o_8CzN3Bs8-O4y_XCYfVXiSdh_0000?></g></svg>