<svg xmlns="http://www.w3.org/2000/svg" xmlns:xlink="http://www.w3.org/1999/xlink" version="1.1" data-diagram-type="DESCRIPTION" style="width:924px;height:1665px;background:#FFFFFF;" width="924.375px" height="1665px" viewBox="0 0 924 1665" zoomAndPan="magnify" preserveAspectRatio="none" contentStyleType="text/css"><?plantuml 1.2026.7beta8?><defs/><g font-family="sans-serif" lengthAdjust="spacing"><g class="title" data-source-line="1"><text x="18.75" y="43.116" fill="#000" font-size="26.25" textLength="873.889" font-weight="700" font-family="Arial">Overall Reservation-Based Traffic Coordination Framework</text></g><!--entity ENV--><g class="entity" data-qualified-name="ENV" id="ent0001" data-source-line="22"><rect x="589.412" y="83.057" width="279.014" height="176.294" fill="#FFF" style="stroke:#2E4053;stroke-width:0.938;" rx="4.688" ry="4.688"/><rect x="830.927" y="92.432" width="28.125" height="18.75" fill="#FFF" style="stroke:#2E4053;stroke-width:0.938;"/><rect x="827.177" y="96.182" width="7.5" height="3.75" fill="#FFF" style="stroke:#2E4053;stroke-width:0.938;"/><rect x="827.177" y="103.682" width="7.5" height="3.75" fill="#FFF" style="stroke:#2E4053;stroke-width:0.938;"/><text x="617.537" y="139.701" fill="#000" font-size="20.625" textLength="204.014" font-family="Arial">Traffic Environment</text><text x="617.537" y="163.71" fill="#000" font-size="20.625" font-family="Arial"> </text><text x="617.537" y="187.719" fill="#000" font-size="20.625" textLength="165.342" font-family="Arial">Road conditions</text><text x="617.537" y="211.728" fill="#000" font-size="20.625" textLength="174.356" font-family="Arial">Vehicle positions</text><text x="617.537" y="235.736" fill="#000" font-size="20.625" textLength="167.004" font-family="Arial">Dynamic events</text></g><!--entity VEH--><g class="entity" data-qualified-name="VEH" id="ent0002" data-source-line="24"><rect x="471.869" y="315.613" width="292.852" height="176.294" fill="#FFF" style="stroke:#2E4053;stroke-width:0.938;" rx="4.688" ry="4.688"/><rect x="727.22" y="324.988" width="28.125" height="18.75" fill="#FFF" style="stroke:#2E4053;stroke-width:0.938;"/><rect x="723.47" y="328.738" width="7.5" height="3.75" fill="#FFF" style="stroke:#2E4053;stroke-width:0.938;"/><rect x="723.47" y="336.238" width="7.5" height="3.75" fill="#FFF" style="stroke:#2E4053;stroke-width:0.938;"/><text x="499.994" y="372.257" fill="#000" font-size="20.625" textLength="142.965" font-family="Arial">Vehicle Agent</text><text x="499.994" y="396.266" fill="#000" font-size="20.625" font-family="Arial"> </text><text x="499.994" y="420.275" fill="#000" font-size="20.625" textLength="217.852" font-family="Arial">Environment sensing</text><text x="499.994" y="444.284" fill="#000" font-size="20.625" textLength="200.822" font-family="Arial">Movement decision</text><text x="499.994" y="468.293" fill="#000" font-size="20.625" textLength="208.697" font-family="Arial">Reservation request</text></g><!--entity REQ--><g class="entity" data-qualified-name="REQ" id="ent0003" data-source-line="26"><rect x="267.269" y="548.15" width="289.548" height="80.259" fill="#FFF" style="stroke:#2E4053;stroke-width:0.938;" rx="4.688" ry="4.688"/><rect x="519.317" y="557.525" width="28.125" height="18.75" fill="#FFF" style="stroke:#2E4053;stroke-width:0.938;"/><rect x="515.567" y="561.275" width="7.5" height="3.75" fill="#FFF" style="stroke:#2E4053;stroke-width:0.938;"/><rect x="515.567" y="568.775" width="7.5" height="3.75" fill="#FFF" style="stroke:#2E4053;stroke-width:0.938;"/><text x="295.394" y="604.795" fill="#000" font-size="20.625" textLength="214.548" font-family="Arial">Reservation Request</text></g><!--entity INT--><g class="entity" data-qualified-name="INT" id="ent0004" data-source-line="28"><rect x="252.119" y="684.65" width="308.602" height="176.294" fill="#FFF" style="stroke:#2E4053;stroke-width:0.938;" rx="4.688" ry="4.688"/><rect x="523.221" y="694.025" width="28.125" height="18.75" fill="#FFF" style="stroke:#2E4053;stroke-width:0.938;"/><rect x="519.471" y="697.775" width="7.5" height="3.75" fill="#FFF" style="stroke:#2E4053;stroke-width:0.938;"/><rect x="519.471" y="705.275" width="7.5" height="3.75" fill="#FFF" style="stroke:#2E4053;stroke-width:0.938;"/><text x="280.244" y="741.295" fill="#000" font-size="20.625" textLength="190.298" font-family="Arial">Intersection Agent</text><text x="280.244" y="765.304" fill="#000" font-size="20.625" font-family="Arial"> </text><text x="280.244" y="789.313" fill="#000" font-size="20.625" textLength="180.761" font-family="Arial">Request handling</text><text x="280.244" y="813.321" fill="#000" font-size="20.625" textLength="177.075" font-family="Arial">Conflict checking</text><text x="280.244" y="837.33" fill="#000" font-size="20.625" textLength="233.602" font-family="Arial">Crossing management</text></g><!--entity CHECK--><g class="entity" data-qualified-name="CHECK" id="ent0005" data-source-line="30"><rect x="294.812" y="917.207" width="223.242" height="80.259" fill="#FFF" style="stroke:#2E4053;stroke-width:0.938;" rx="4.688" ry="4.688"/><rect x="480.555" y="926.582" width="28.125" height="18.75" fill="#FFF" style="stroke:#2E4053;stroke-width:0.938;"/><rect x="476.805" y="930.332" width="7.5" height="3.75" fill="#FFF" style="stroke:#2E4053;stroke-width:0.938;"/><rect x="476.805" y="937.832" width="7.5" height="3.75" fill="#FFF" style="stroke:#2E4053;stroke-width:0.938;"/><text x="322.937" y="973.851" fill="#000" font-size="20.625" textLength="148.242" font-family="Arial">Conflict Check</text></g><!--entity DEC--><g class="entity" data-qualified-name="DEC" id="ent0006" data-source-line="32"><rect x="260.106" y="1053.707" width="292.65" height="80.259" fill="#FFF" style="stroke:#2E4053;stroke-width:0.938;" rx="4.688" ry="4.688"/><rect x="515.256" y="1063.082" width="28.125" height="18.75" fill="#FFF" style="stroke:#2E4053;stroke-width:0.938;"/><rect x="511.506" y="1066.832" width="7.5" height="3.75" fill="#FFF" style="stroke:#2E4053;stroke-width:0.938;"/><rect x="511.506" y="1074.332" width="7.5" height="3.75" fill="#FFF" style="stroke:#2E4053;stroke-width:0.938;"/><text x="288.231" y="1110.351" fill="#000" font-size="20.625" textLength="217.65" font-family="Arial">Reservation Decision</text></g><!--entity GRANT--><g class="entity" data-qualified-name="GRANT" id="ent0007" data-source-line="34"><rect x="42.962" y="1190.225" width="363.176" height="128.276" fill="#FFF" style="stroke:#2E4053;stroke-width:0.938;" rx="4.688" ry="4.688"/><rect x="368.638" y="1199.6" width="28.125" height="18.75" fill="#FFF" style="stroke:#2E4053;stroke-width:0.938;"/><rect x="364.888" y="1203.35" width="7.5" height="3.75" fill="#FFF" style="stroke:#2E4053;stroke-width:0.938;"/><rect x="364.888" y="1210.85" width="7.5" height="3.75" fill="#FFF" style="stroke:#2E4053;stroke-width:0.938;"/><text x="71.087" y="1246.87" fill="#000" font-size="20.625" textLength="213.884" font-family="Arial">Reservation Granted</text><text x="71.087" y="1270.879" fill="#000" font-size="20.625" font-family="Arial"> </text><text x="71.087" y="1294.888" fill="#000" font-size="20.625" textLength="288.176" font-family="Arial">Vehicle crosses intersection</text></g><!--entity REJECT--><g class="entity" data-qualified-name="REJECT" id="ent0008" data-source-line="36"><rect x="444.025" y="1190.225" width="329.801" height="128.276" fill="#FFF" style="stroke:#2E4053;stroke-width:0.938;" rx="4.688" ry="4.688"/><rect x="736.326" y="1199.6" width="28.125" height="18.75" fill="#FFF" style="stroke:#2E4053;stroke-width:0.938;"/><rect x="732.576" y="1203.35" width="7.5" height="3.75" fill="#FFF" style="stroke:#2E4053;stroke-width:0.938;"/><rect x="732.576" y="1210.85" width="7.5" height="3.75" fill="#FFF" style="stroke:#2E4053;stroke-width:0.938;"/><text x="472.15" y="1246.87" fill="#000" font-size="20.625" textLength="220.49" font-family="Arial">Reservation Rejected</text><text x="472.15" y="1270.879" fill="#000" font-size="20.625" font-family="Arial"> </text><text x="472.15" y="1294.888" fill="#000" font-size="20.625" textLength="254.801" font-family="Arial">Vehicle waits and retries</text></g><!--entity RELEASE--><g class="entity" data-qualified-name="RELEASE" id="ent0009" data-source-line="38"><rect x="285.756" y="1374.744" width="286.356" height="80.259" fill="#FFF" style="stroke:#2E4053;stroke-width:0.938;" rx="4.688" ry="4.688"/><rect x="534.612" y="1384.119" width="28.125" height="18.75" fill="#FFF" style="stroke:#2E4053;stroke-width:0.938;"/><rect x="530.862" y="1387.869" width="7.5" height="3.75" fill="#FFF" style="stroke:#2E4053;stroke-width:0.938;"/><rect x="530.862" y="1395.369" width="7.5" height="3.75" fill="#FFF" style="stroke:#2E4053;stroke-width:0.938;"/><text x="313.881" y="1431.389" fill="#000" font-size="20.625" textLength="211.356" font-family="Arial">Reservation Release</text></g><!--entity UPDATE--><g class="entity" data-qualified-name="UPDATE" id="ent0010" data-source-line="40"><rect x="384.1" y="1511.263" width="288.4" height="128.276" fill="#FFF" style="stroke:#2E4053;stroke-width:0.938;" rx="4.688" ry="4.688"/><rect x="635" y="1520.638" width="28.125" height="18.75" fill="#FFF" style="stroke:#2E4053;stroke-width:0.938;"/><rect x="631.25" y="1524.388" width="7.5" height="3.75" fill="#FFF" style="stroke:#2E4053;stroke-width:0.938;"/><rect x="631.25" y="1531.888" width="7.5" height="3.75" fill="#FFF" style="stroke:#2E4053;stroke-width:0.938;"/><text x="412.225" y="1567.907" fill="#000" font-size="20.625" textLength="213.4" font-family="Arial">Environment Update</text><text x="412.225" y="1591.916" fill="#000" font-size="20.625" font-family="Arial"> </text><text x="412.225" y="1615.925" fill="#000" font-size="20.625" textLength="171.143" font-family="Arial">New traffic state</text></g><!--link ENV to VEH--><g class="link" data-entity-1="ent0001" data-entity-2="ent0002" id="lnk11" data-source-line="43" data-link-type="dependency"><path d="M677.069,259.794 C677.069,278.019 677.069,287.825 677.069,306.05" style="stroke:#2E4053;stroke-width:1.875;" fill="none" id="ENV-to-VEH"/><polygon points="677.069,315.425,684.569,298.55,677.069,306.05,669.569,298.55,677.069,315.425" fill="#2E4053" style="stroke:#2E4053;stroke-width:1.875;stroke-linejoin:miter;stroke-miterlimit:10;"/><text x="527.069" y="280.226" fill="#000" font-size="24.375" textLength="148.428" font-family="Arial">Observation</text></g><!--link VEH to REQ--><g class="link" data-entity-1="ent0002" data-entity-2="ent0003" id="lnk12" data-source-line="45" data-link-type="dependency"><path d="M514.356,492.782 C514.356,511.944 514.356,521.919 514.356,538.157" style="stroke:#2E4053;stroke-width:1.875;" fill="none" id="VEH-to-REQ"/><polygon points="514.356,547.532,521.856,530.657,514.356,538.157,506.856,530.657,514.356,547.532" fill="#2E4053" style="stroke:#2E4053;stroke-width:1.875;stroke-linejoin:miter;stroke-miterlimit:10;"/><text x="326.856" y="512.782" fill="#000" font-size="24.375" textLength="187.407" font-family="Arial">Submit request</text></g><!--link REQ to INT--><g class="link" data-entity-1="ent0003" data-entity-2="ent0004" id="lnk13" data-source-line="47" data-link-type="dependency"><path d="M412.056,629.225 C412.056,645.575 412.056,655.719 412.056,674.994" style="stroke:#2E4053;stroke-width:1.875;" fill="none" id="REQ-to-INT"/><polygon points="412.056,684.369,419.556,667.494,412.056,674.994,404.556,667.494,412.056,684.369" fill="#2E4053" style="stroke:#2E4053;stroke-width:1.875;stroke-linejoin:miter;stroke-miterlimit:10;"/><text x="172.056" y="649.432" fill="#000" font-size="24.375" textLength="239.751" font-family="Arial">Request processing</text></g><!--link INT to CHECK--><g class="link" data-entity-1="ent0004" data-entity-2="ent0005" id="lnk14" data-source-line="49" data-link-type="dependency"><path d="M406.431,861.819 C406.431,881 406.431,890.975 406.431,907.213" style="stroke:#2E4053;stroke-width:1.875;" fill="none" id="INT-to-CHECK"/><polygon points="406.431,916.588,413.931,899.713,406.431,907.213,398.931,899.713,406.431,916.588" fill="#2E4053" style="stroke:#2E4053;stroke-width:1.875;stroke-linejoin:miter;stroke-miterlimit:10;"/><text x="224.556" y="913.695" fill="#000" font-size="24.375" textLength="180.765" font-family="Arial">Verify conflicts</text></g><!--link CHECK to DEC--><g class="link" data-entity-1="ent0005" data-entity-2="ent0006" id="lnk15" data-source-line="51" data-link-type="dependency"><path d="M406.431,998.282 C406.431,1015.569 406.431,1026.257 406.431,1043.544" style="stroke:#2E4053;stroke-width:1.875;" fill="none" id="CHECK-to-DEC"/><polygon points="406.431,1052.919,413.931,1036.044,406.431,1043.544,398.931,1036.044,406.431,1052.919" fill="#2E4053" style="stroke:#2E4053;stroke-width:1.875;stroke-linejoin:miter;stroke-miterlimit:10;"/><text x="329.556" y="1018.226" fill="#000" font-size="24.375" textLength="76.41" font-family="Arial">Result</text></g><!--link DEC to GRANT--><g class="link" data-entity-1="ent0006" data-entity-2="ent0007" id="lnk16" data-source-line="54" data-link-type="dependency"><path d="M333.119,1134.35 C333.119,1151.057 333.119,1161.482 333.119,1180.119" style="stroke:#2E4053;stroke-width:1.875;" fill="none" id="DEC-to-GRANT"/><polygon points="333.119,1189.494,340.619,1172.619,333.119,1180.119,325.619,1172.619,333.119,1189.494" fill="#2E4053" style="stroke:#2E4053;stroke-width:1.875;stroke-linejoin:miter;stroke-miterlimit:10;"/><text x="220.619" y="1154.557" fill="#000" font-size="24.375" textLength="111.758" font-family="Arial">Available</text></g><!--link DEC to REJECT--><g class="link" data-entity-1="ent0006" data-entity-2="ent0008" id="lnk17" data-source-line="56" data-link-type="dependency"><path d="M498.381,1134.35 C498.381,1151.057 498.381,1161.482 498.381,1180.119" style="stroke:#2E4053;stroke-width:1.875;" fill="none" id="DEC-to-REJECT"/><polygon points="498.381,1189.494,505.881,1172.619,498.381,1180.119,490.881,1172.619,498.381,1189.494" fill="#2E4053" style="stroke:#2E4053;stroke-width:1.875;stroke-linejoin:miter;stroke-miterlimit:10;"/><text x="500.256" y="1154.557" fill="#000" font-size="24.375" textLength="160.473" font-family="Arial">Not available</text></g><!--link REJECT to VEH--><g class="link" data-entity-1="ent0008" data-entity-2="ent0002" id="lnk18" data-source-line="59" data-link-type="dependency"><path d="M662.725,1189.719 C662.725,1039.1 662.725,673.907 662.725,501.969" style="stroke:#2E4053;stroke-width:1.875;" fill="none" id="REJECT-to-VEH"/><polygon points="662.725,492.594,655.225,509.469,662.725,501.969,670.225,509.469,662.725,492.594" fill="#2E4053" style="stroke:#2E4053;stroke-width:1.875;stroke-linejoin:miter;stroke-miterlimit:10;"/><text x="664.6" y="833.782" fill="#000" font-size="24.375" textLength="166.876" font-family="Arial">Retry request</text></g><!--link GRANT to RELEASE--><g class="link" data-entity-1="ent0007" data-entity-2="ent0009" id="lnk19" data-source-line="62" data-link-type="dependency"><path d="M345.944,1318.719 C345.944,1337.394 345.944,1347.875 345.944,1364.675" style="stroke:#2E4053;stroke-width:1.875;" fill="none" id="GRANT-to-RELEASE"/><polygon points="345.944,1374.05,353.444,1357.175,345.944,1364.675,338.444,1357.175,345.944,1374.05" fill="#2E4053" style="stroke:#2E4053;stroke-width:1.875;stroke-linejoin:miter;stroke-miterlimit:10;"/><text x="175.319" y="1370.876" fill="#000" font-size="24.375" textLength="169.006" font-family="Arial">After crossing</text></g><!--link RELEASE to UPDATE--><g class="link" data-entity-1="ent0009" data-entity-2="ent0010" id="lnk20" data-source-line="64" data-link-type="dependency"><path d="M478.094,1455.388 C478.094,1472.094 478.094,1482.519 478.094,1501.157" style="stroke:#2E4053;stroke-width:1.875;" fill="none" id="RELEASE-to-UPDATE"/><polygon points="478.094,1510.532,485.594,1493.657,478.094,1501.157,470.594,1493.657,478.094,1510.532" fill="#2E4053" style="stroke:#2E4053;stroke-width:1.875;stroke-linejoin:miter;stroke-miterlimit:10;"/><text x="318.719" y="1507.47" fill="#000" font-size="24.375" textLength="157.771" font-family="Arial">Update state</text></g><!--link UPDATE to ENV--><g class="link" data-entity-1="ent0010" data-entity-2="ent0001" id="lnk21" data-source-line="66" data-link-type="dependency"><path d="M673,1575.782 C746.781,1575.782 821.125,1575.782 821.125,1575.782 C821.125,1575.782 821.125,578.263 821.125,269.507" style="stroke:#2E4053;stroke-width:1.875;" fill="none" id="UPDATE-to-ENV"/><polygon points="821.125,260.132,813.625,277.007,821.125,269.507,828.625,277.007,821.125,260.132" fill="#2E4053" style="stroke:#2E4053;stroke-width:1.875;stroke-linejoin:miter;stroke-miterlimit:10;"/><text x="643" y="984.645" fill="#000" font-size="24.375" textLength="177.231" font-family="Arial">Feedback loop</text></g><?plantuml-src VLJBRjim4BppAnRjEK0UBL3aKC2HbKSVJkiaFlb2YokRDSLLITg6M_JVkwIaI6gR-kQPsTtXxDf11uDmlqSdZO4vUdHx6JJPaolfKS6ZasMf2yY8dD8sKN3jP8K7SbiX0jKG25OK0bMWjCCYIeJmMsrhoKBm6wdeeEqQIcay3fYLBBPhHpkhCZBauB3HOSYhMiFPkzCXWgNScN1DDipO0qoSbcR06sqn76i4Sc53GnUM53-kXlDXEoVjDe8NfqDfGLLD5cs0dmBuS_LFcudXKD0rwElp_Ctfsuk4JvoZmzzmjFsWVo2SdObVGeX-qAikvzpkjIDRCRYqIpidgTYFLJgcwfTsWHjTyCPgyXqqFLfPSIdkkSY_0kaXdor6tRkgoRhjEnW37gtdxIpjPzfZGXGMsdDpdjyV13ZylaCVqe15VZiQCDJD1xfv_dMakxC1dMzkf7VJLi16McMIbOniQNGHeDXWiMqWHpxwX4fQkKv6quYxsUDen7Df5akJ9BlDiuyl-fsshqtIQPwzABpXSmceekCkq2AQGWzwyAxKvsO--SFNEA9lh1stEaWTF70277Hm6dqRu8Sy-ryZW_mxRQMVyib3Fj8Ez_nKAnamZfpX0K9xS3umcEgVlamdZrmk-7hWvEHzN39SmltgUPmG4OeKxvMfXzsgqg4x324Y6bbU2RFTLcj71QRL2H6Pg4WROSq2dIwFySBJphmG3HCrl8hKnVCFdbt5hn5EoJ8nsKjjvCfWJpLXCJUZ0BBdHKlqZvfpnCVUk6YQDZrIYd50oJjjDfoyTqnKDLcng0crIL685ewA6E8bN2Eg-2y7XgZ-3G00?></g></svg>