<svg xmlns="http://www.w3.org/2000/svg" xmlns:xlink="http://www.w3.org/1999/xlink" version="1.1" data-diagram-type="CLASS" style="width:766px;height:1815px;background:#FFFFFF;" width="766.875px" height="1815px" viewBox="0 0 766 1815" zoomAndPan="magnify" preserveAspectRatio="none" contentStyleType="text/css"><?plantuml 1.2026.7beta8?><defs/><g font-family="sans-serif" lengthAdjust="spacing"><g class="title" data-source-line="1"><text x="43.784" y="43.116" fill="#000" font-size="26.25" textLength="668.016" font-weight="700" font-family="Arial">Class Diagram - Simulation System Structure</text></g><!--class Env--><g class="entity" data-qualified-name="Env" id="ent0001" data-source-line="22"><rect x="214.031" y="83.057" width="260.378" height="303.896" fill="#FFF" style="stroke:#2E4053;stroke-width:0.938;" rx="4.688" ry="4.688"/><ellipse cx="317.097" cy="113.057" rx="20.625" ry="20.625" fill="#ADD1B2" style="stroke:#181818;stroke-width:1.875;"/><path d="M322.663,123.633 Q321.579,124.189 320.378,124.453 Q319.177,124.746 317.858,124.746 Q313.171,124.746 310.681,121.67 Q308.22,118.564 308.22,112.705 Q308.22,106.846 310.681,103.74 Q313.171,100.635 317.858,100.635 Q319.177,100.635 320.378,100.928 Q321.608,101.221 322.663,101.777 L322.663,106.875 Q321.491,105.791 320.378,105.293 Q319.265,104.766 318.093,104.766 Q315.573,104.766 314.284,106.787 Q312.995,108.779 312.995,112.705 Q312.995,116.631 314.284,118.652 Q315.573,120.645 318.093,120.645 Q319.265,120.645 320.378,120.146 Q321.491,119.619 322.663,118.535 L322.663,123.633 Z " fill="#000"/><text x="355.534" y="120.197" fill="#000" font-size="20.625" textLength="38.309" font-family="Arial">Env</text><line x1="215.906" y1="143.057" x2="472.534" y2="143.057" style="stroke:#2E4053;stroke-width:0.938;"/><g data-visibility-modifier="PRIVATE_FIELD"><rect x="229.031" y="163.022" width="11.25" height="11.25" fill="none" style="stroke:#C82930;stroke-width:1.875;"/></g><text x="251.531" y="174.922" fill="#000" font-size="26.25" textLength="107.166" font-family="Arial">vehicles</text><g data-visibility-modifier="PRIVATE_FIELD"><rect x="229.031" y="193.579" width="11.25" height="11.25" fill="none" style="stroke:#C82930;stroke-width:1.875;"/></g><text x="251.531" y="205.479" fill="#000" font-size="26.25" textLength="169.382" font-family="Arial">intersections</text><g data-visibility-modifier="PRIVATE_FIELD"><rect x="229.031" y="224.136" width="11.25" height="11.25" fill="none" style="stroke:#C82930;stroke-width:1.875;"/></g><text x="251.531" y="236.036" fill="#000" font-size="26.25" textLength="154.078" font-family="Arial">pedestrians</text><g data-visibility-modifier="PRIVATE_FIELD"><rect x="229.031" y="254.692" width="11.25" height="11.25" fill="none" style="stroke:#C82930;stroke-width:1.875;"/></g><text x="251.531" y="266.592" fill="#000" font-size="26.25" textLength="145.746" font-family="Arial">light_mode</text><line x1="215.906" y1="280.283" x2="472.534" y2="280.283" style="stroke:#2E4053;stroke-width:0.938;"/><g data-visibility-modifier="PUBLIC_METHOD"><ellipse cx="234.656" cy="305.874" rx="5.625" ry="5.625" fill="#84BE84" style="stroke:#038048;stroke-width:1.875;"/></g><text x="251.531" y="312.149" fill="#000" font-size="26.25" textLength="77.263" font-family="Arial">step()</text><g data-visibility-modifier="PUBLIC_METHOD"><ellipse cx="234.656" cy="336.431" rx="5.625" ry="5.625" fill="#84BE84" style="stroke:#038048;stroke-width:1.875;"/></g><text x="251.531" y="342.706" fill="#000" font-size="26.25" textLength="211.628" font-family="Arial">spawn_vehicle()</text><g data-visibility-modifier="PUBLIC_METHOD"><ellipse cx="234.656" cy="366.987" rx="5.625" ry="5.625" fill="#84BE84" style="stroke:#038048;stroke-width:1.875;"/></g><text x="251.531" y="373.262" fill="#000" font-size="26.25" textLength="188.8" font-family="Arial">run_scenario()</text></g><!--class Vehicle--><g class="entity" data-qualified-name="Vehicle" id="ent0002" data-source-line="34"><rect x="13.125" y="471.332" width="230.923" height="334.453" fill="#FFF" style="stroke:#2E4053;stroke-width:0.938;" rx="4.688" ry="4.688"/><ellipse cx="84.254" cy="501.332" rx="20.625" ry="20.625" fill="#ADD1B2" style="stroke:#181818;stroke-width:1.875;"/><path d="M89.82,511.908 Q88.736,512.464 87.535,512.728 Q86.334,513.021 85.015,513.021 Q80.328,513.021 77.838,509.945 Q75.377,506.839 75.377,500.98 Q75.377,495.121 77.838,492.015 Q80.328,488.91 85.015,488.91 Q86.334,488.91 87.535,489.203 Q88.765,489.496 89.82,490.052 L89.82,495.15 Q88.648,494.066 87.535,493.568 Q86.422,493.041 85.25,493.041 Q82.73,493.041 81.441,495.062 Q80.152,497.054 80.152,500.98 Q80.152,504.906 81.441,506.927 Q82.73,508.92 85.25,508.92 Q86.422,508.92 87.535,508.421 Q88.648,507.894 89.82,506.81 L89.82,511.908 Z " fill="#000"/><text x="120.06" y="508.472" fill="#000" font-size="20.625" textLength="75.36" font-family="Arial">Vehicle</text><line x1="15" y1="531.332" x2="242.173" y2="531.332" style="stroke:#2E4053;stroke-width:0.938;"/><g data-visibility-modifier="PRIVATE_FIELD"><rect x="28.125" y="551.297" width="11.25" height="11.25" fill="none" style="stroke:#C82930;stroke-width:1.875;"/></g><text x="50.625" y="563.197" fill="#000" font-size="26.25" textLength="130.571" font-family="Arial">vehicle_id</text><g data-visibility-modifier="PRIVATE_FIELD"><rect x="28.125" y="581.854" width="11.25" height="11.25" fill="none" style="stroke:#C82930;stroke-width:1.875;"/></g><text x="50.625" y="593.754" fill="#000" font-size="26.25" textLength="103.975" font-family="Arial">position</text><g data-visibility-modifier="PRIVATE_FIELD"><rect x="28.125" y="612.411" width="11.25" height="11.25" fill="none" style="stroke:#C82930;stroke-width:1.875;"/></g><text x="50.625" y="624.311" fill="#000" font-size="26.25" textLength="115.613" font-family="Arial">direction</text><g data-visibility-modifier="PRIVATE_FIELD"><rect x="28.125" y="642.967" width="11.25" height="11.25" fill="none" style="stroke:#C82930;stroke-width:1.875;"/></g><text x="50.625" y="654.867" fill="#000" font-size="26.25" textLength="79.301" font-family="Arial">speed</text><g data-visibility-modifier="PRIVATE_FIELD"><rect x="28.125" y="673.524" width="11.25" height="11.25" fill="none" style="stroke:#C82930;stroke-width:1.875;"/></g><text x="50.625" y="685.424" fill="#000" font-size="26.25" textLength="182.173" font-family="Arial">is_emergency</text><line x1="15" y1="699.115" x2="242.173" y2="699.115" style="stroke:#2E4053;stroke-width:0.938;"/><g data-visibility-modifier="PUBLIC_METHOD"><ellipse cx="33.75" cy="724.706" rx="5.625" ry="5.625" fill="#84BE84" style="stroke:#038048;stroke-width:1.875;"/></g><text x="50.625" y="730.981" fill="#000" font-size="26.25" textLength="93.798" font-family="Arial">move()</text><g data-visibility-modifier="PUBLIC_METHOD"><ellipse cx="33.75" cy="755.262" rx="5.625" ry="5.625" fill="#84BE84" style="stroke:#038048;stroke-width:1.875;"/></g><text x="50.625" y="761.537" fill="#000" font-size="26.25" textLength="180.981" font-family="Arial">choose_turn()</text><g data-visibility-modifier="PUBLIC_METHOD"><ellipse cx="33.75" cy="785.819" rx="5.625" ry="5.625" fill="#84BE84" style="stroke:#038048;stroke-width:1.875;"/></g><text x="50.625" y="792.094" fill="#000" font-size="26.25" textLength="115.203" font-family="Arial">priority()</text></g><!--class Intersection--><g class="entity" data-qualified-name="Intersection" id="ent0003" data-source-line="47"><rect x="252.863" y="890.169" width="182.693" height="242.783" fill="#FFF" style="stroke:#2E4053;stroke-width:0.938;" rx="4.688" ry="4.688"/><ellipse cx="280.988" cy="920.169" rx="20.625" ry="20.625" fill="#ADD1B2" style="stroke:#181818;stroke-width:1.875;"/><path d="M286.554,930.745 Q285.47,931.302 284.269,931.566 Q283.068,931.859 281.749,931.859 Q277.062,931.859 274.571,928.782 Q272.111,925.677 272.111,919.818 Q272.111,913.958 274.571,910.853 Q277.062,907.747 281.749,907.747 Q283.068,907.747 284.269,908.04 Q285.499,908.333 286.554,908.89 L286.554,913.988 Q285.382,912.904 284.269,912.405 Q283.155,911.878 281.984,911.878 Q279.464,911.878 278.175,913.9 Q276.886,915.892 276.886,919.818 Q276.886,923.743 278.175,925.765 Q279.464,927.757 281.984,927.757 Q283.155,927.757 284.269,927.259 Q285.382,926.732 286.554,925.648 L286.554,930.745 Z " fill="#000"/><text x="307.238" y="927.309" fill="#000" font-size="20.625" textLength="122.693" font-family="Arial">Intersection</text><line x1="254.738" y1="950.169" x2="433.68" y2="950.169" style="stroke:#2E4053;stroke-width:0.938;"/><g data-visibility-modifier="PRIVATE_FIELD"><rect x="267.863" y="970.135" width="11.25" height="11.25" fill="none" style="stroke:#C82930;stroke-width:1.875;"/></g><text x="290.363" y="982.035" fill="#000" font-size="26.25" textLength="48.322" font-family="Arial">row</text><g data-visibility-modifier="PRIVATE_FIELD"><rect x="267.863" y="1000.692" width="11.25" height="11.25" fill="none" style="stroke:#C82930;stroke-width:1.875;"/></g><text x="290.363" y="1012.592" fill="#000" font-size="26.25" textLength="37.786" font-family="Arial">col</text><g data-visibility-modifier="PRIVATE_FIELD"><rect x="267.863" y="1031.248" width="11.25" height="11.25" fill="none" style="stroke:#C82930;stroke-width:1.875;"/></g><text x="290.363" y="1043.148" fill="#000" font-size="26.25" textLength="75.084" font-family="Arial">faulty</text><line x1="254.738" y1="1056.839" x2="433.68" y2="1056.839" style="stroke:#2E4053;stroke-width:0.938;"/><g data-visibility-modifier="PUBLIC_METHOD"><ellipse cx="273.488" cy="1082.43" rx="5.625" ry="5.625" fill="#84BE84" style="stroke:#038048;stroke-width:1.875;"/></g><text x="290.363" y="1088.705" fill="#000" font-size="26.25" textLength="77.263" font-family="Arial">step()</text><g data-visibility-modifier="PUBLIC_METHOD"><ellipse cx="273.488" cy="1112.987" rx="5.625" ry="5.625" fill="#84BE84" style="stroke:#038048;stroke-width:1.875;"/></g><text x="290.363" y="1119.262" fill="#000" font-size="26.25" textLength="113.485" font-family="Arial">can_go()</text></g><!--class IntersectionLights--><g class="entity" data-qualified-name="IntersectionLights" id="ent0004" data-source-line="57"><rect x="52.256" y="1217.319" width="253.905" height="242.783" fill="#FFF" style="stroke:#2E4053;stroke-width:0.938;" rx="4.688" ry="4.688"/><ellipse cx="84.429" cy="1247.319" rx="20.625" ry="20.625" fill="#ADD1B2" style="stroke:#181818;stroke-width:1.875;"/><path d="M89.995,1257.895 Q88.911,1258.452 87.71,1258.716 Q86.509,1259.009 85.191,1259.009 Q80.503,1259.009 78.013,1255.932 Q75.552,1252.827 75.552,1246.968 Q75.552,1241.108 78.013,1238.003 Q80.503,1234.897 85.191,1234.897 Q86.509,1234.897 87.71,1235.19 Q88.941,1235.483 89.995,1236.04 L89.995,1241.137 Q88.824,1240.054 87.71,1239.555 Q86.597,1239.028 85.425,1239.028 Q82.906,1239.028 81.617,1241.05 Q80.327,1243.042 80.327,1246.968 Q80.327,1250.893 81.617,1252.915 Q82.906,1254.907 85.425,1254.907 Q86.597,1254.907 87.71,1254.409 Q88.824,1253.882 89.995,1252.798 L89.995,1257.895 Z " fill="#000"/><text x="111.579" y="1254.459" fill="#000" font-size="20.625" textLength="184.91" font-family="Arial">IntersectionLights</text><line x1="54.131" y1="1277.319" x2="304.286" y2="1277.319" style="stroke:#2E4053;stroke-width:0.938;"/><g data-visibility-modifier="PRIVATE_FIELD"><rect x="67.256" y="1297.285" width="11.25" height="11.25" fill="none" style="stroke:#C82930;stroke-width:1.875;"/></g><text x="89.756" y="1309.185" fill="#000" font-size="26.25" textLength="130.93" font-family="Arial">horizontal</text><g data-visibility-modifier="PRIVATE_FIELD"><rect x="67.256" y="1327.842" width="11.25" height="11.25" fill="none" style="stroke:#C82930;stroke-width:1.875;"/></g><text x="89.756" y="1339.742" fill="#000" font-size="26.25" textLength="97.874" font-family="Arial">vertical</text><line x1="54.131" y1="1353.432" x2="304.286" y2="1353.432" style="stroke:#2E4053;stroke-width:0.938;"/><g data-visibility-modifier="PUBLIC_METHOD"><ellipse cx="72.881" cy="1379.023" rx="5.625" ry="5.625" fill="#84BE84" style="stroke:#038048;stroke-width:1.875;"/></g><text x="89.756" y="1385.298" fill="#000" font-size="26.25" textLength="155.27" font-family="Arial">step_fixed()</text><g data-visibility-modifier="PUBLIC_METHOD"><ellipse cx="72.881" cy="1409.58" rx="5.625" ry="5.625" fill="#84BE84" style="stroke:#038048;stroke-width:1.875;"/></g><text x="89.756" y="1415.855" fill="#000" font-size="26.25" textLength="205.155" font-family="Arial">step_adaptive()</text><g data-visibility-modifier="PUBLIC_METHOD"><ellipse cx="72.881" cy="1440.137" rx="5.625" ry="5.625" fill="#84BE84" style="stroke:#038048;stroke-width:1.875;"/></g><text x="89.756" y="1446.412" fill="#000" font-size="26.25" textLength="113.485" font-family="Arial">can_go()</text></g><!--class TrafficLight--><g class="entity" data-qualified-name="TrafficLight" id="ent0005" data-source-line="67"><rect x="66.506" y="1544.488" width="225.425" height="242.783" fill="#FFF" style="stroke:#2E4053;stroke-width:0.938;" rx="4.688" ry="4.688"/><ellipse cx="116.521" cy="1574.488" rx="20.625" ry="20.625" fill="#ADD1B2" style="stroke:#181818;stroke-width:1.875;"/><path d="M122.087,1585.064 Q121.003,1585.621 119.802,1585.884 Q118.601,1586.177 117.283,1586.177 Q112.595,1586.177 110.105,1583.101 Q107.644,1579.996 107.644,1574.136 Q107.644,1568.277 110.105,1565.171 Q112.595,1562.066 117.283,1562.066 Q118.601,1562.066 119.802,1562.359 Q121.033,1562.652 122.087,1563.209 L122.087,1568.306 Q120.915,1567.222 119.802,1566.724 Q118.689,1566.197 117.517,1566.197 Q114.998,1566.197 113.708,1568.218 Q112.419,1570.211 112.419,1574.136 Q112.419,1578.062 113.708,1580.084 Q114.998,1582.076 117.517,1582.076 Q118.689,1582.076 119.802,1581.578 Q120.915,1581.05 122.087,1579.966 L122.087,1585.064 Z " fill="#000"/><text x="147.635" y="1581.628" fill="#000" font-size="20.625" textLength="116.781" font-family="Arial">TrafficLight</text><line x1="68.381" y1="1604.488" x2="290.056" y2="1604.488" style="stroke:#2E4053;stroke-width:0.938;"/><g data-visibility-modifier="PRIVATE_FIELD"><rect x="81.506" y="1624.454" width="11.25" height="11.25" fill="none" style="stroke:#C82930;stroke-width:1.875;"/></g><text x="104.006" y="1636.354" fill="#000" font-size="26.25" textLength="79.211" font-family="Arial">phase</text><g data-visibility-modifier="PRIVATE_FIELD"><rect x="81.506" y="1655.01" width="11.25" height="11.25" fill="none" style="stroke:#C82930;stroke-width:1.875;"/></g><text x="104.006" y="1666.91" fill="#000" font-size="26.25" textLength="70.098" font-family="Arial">timer</text><line x1="68.381" y1="1680.601" x2="290.056" y2="1680.601" style="stroke:#2E4053;stroke-width:0.938;"/><g data-visibility-modifier="PUBLIC_METHOD"><ellipse cx="87.131" cy="1706.192" rx="5.625" ry="5.625" fill="#84BE84" style="stroke:#038048;stroke-width:1.875;"/></g><text x="104.006" y="1712.467" fill="#000" font-size="26.25" textLength="77.263" font-family="Arial">step()</text><g data-visibility-modifier="PUBLIC_METHOD"><ellipse cx="87.131" cy="1736.749" rx="5.625" ry="5.625" fill="#84BE84" style="stroke:#038048;stroke-width:1.875;"/></g><text x="104.006" y="1743.024" fill="#000" font-size="26.25" textLength="176.675" font-family="Arial">force_green()</text><g data-visibility-modifier="PUBLIC_METHOD"><ellipse cx="87.131" cy="1767.305" rx="5.625" ry="5.625" fill="#84BE84" style="stroke:#038048;stroke-width:1.875;"/></g><text x="104.006" y="1773.58" fill="#000" font-size="26.25" textLength="143.888" font-family="Arial">force_red()</text></g><!--class ReservationManager--><g class="entity" data-qualified-name="ReservationManager" id="ent0006" data-source-line="77"><rect x="372.356" y="1232.6" width="273.692" height="212.227" fill="#FFF" style="stroke:#2E4053;stroke-width:0.938;" rx="4.688" ry="4.688"/><ellipse cx="400.481" cy="1262.6" rx="20.625" ry="20.625" fill="#ADD1B2" style="stroke:#181818;stroke-width:1.875;"/><path d="M406.048,1273.177 Q404.964,1273.733 403.763,1273.997 Q402.561,1274.29 401.243,1274.29 Q396.555,1274.29 394.065,1271.214 Q391.604,1268.108 391.604,1262.249 Q391.604,1256.389 394.065,1253.284 Q396.555,1250.179 401.243,1250.179 Q402.561,1250.179 403.763,1250.471 Q404.993,1250.764 406.048,1251.321 L406.048,1256.419 Q404.876,1255.335 403.763,1254.837 Q402.649,1254.309 401.477,1254.309 Q398.958,1254.309 397.669,1256.331 Q396.38,1258.323 396.38,1262.249 Q396.38,1266.175 397.669,1268.196 Q398.958,1270.188 401.477,1270.188 Q402.649,1270.188 403.763,1269.69 Q404.876,1269.163 406.048,1268.079 L406.048,1273.177 Z " fill="#000"/><text x="426.731" y="1269.741" fill="#000" font-size="20.625" textLength="213.692" font-family="Arial">ReservationManager</text><line x1="374.231" y1="1292.6" x2="644.174" y2="1292.6" style="stroke:#2E4053;stroke-width:0.938;"/><g data-visibility-modifier="PRIVATE_FIELD"><rect x="387.356" y="1312.566" width="11.25" height="11.25" fill="none" style="stroke:#C82930;stroke-width:1.875;"/></g><text x="409.856" y="1324.466" fill="#000" font-size="26.25" textLength="60.998" font-family="Arial">slots</text><line x1="374.231" y1="1338.157" x2="644.174" y2="1338.157" style="stroke:#2E4053;stroke-width:0.938;"/><g data-visibility-modifier="PUBLIC_METHOD"><ellipse cx="392.981" cy="1363.748" rx="5.625" ry="5.625" fill="#84BE84" style="stroke:#038048;stroke-width:1.875;"/></g><text x="409.856" y="1370.023" fill="#000" font-size="26.25" textLength="120.842" font-family="Arial">request()</text><g data-visibility-modifier="PUBLIC_METHOD"><ellipse cx="392.981" cy="1394.304" rx="5.625" ry="5.625" fill="#84BE84" style="stroke:#038048;stroke-width:1.875;"/></g><text x="409.856" y="1400.58" fill="#000" font-size="26.25" textLength="116.779" font-family="Arial">release()</text><g data-visibility-modifier="PUBLIC_METHOD"><ellipse cx="392.981" cy="1424.861" rx="5.625" ry="5.625" fill="#84BE84" style="stroke:#038048;stroke-width:1.875;"/></g><text x="409.856" y="1431.136" fill="#000" font-size="26.25" textLength="170.753" font-family="Arial">force_grant()</text></g><!--class Pedestrian--><g class="entity" data-qualified-name="Pedestrian" id="ent0007" data-source-line="86"><rect x="442.856" y="532.457" width="297.728" height="212.227" fill="#FFF" style="stroke:#2E4053;stroke-width:0.938;" rx="4.688" ry="4.688"/><ellipse cx="528.921" cy="562.457" rx="20.625" ry="20.625" fill="#ADD1B2" style="stroke:#181818;stroke-width:1.875;"/><path d="M534.487,573.033 Q533.403,573.589 532.202,573.853 Q531.001,574.146 529.683,574.146 Q524.995,574.146 522.505,571.07 Q520.044,567.964 520.044,562.105 Q520.044,556.246 522.505,553.14 Q524.995,550.035 529.683,550.035 Q531.001,550.035 532.202,550.328 Q533.433,550.621 534.487,551.177 L534.487,556.275 Q533.315,555.191 532.202,554.693 Q531.089,554.166 529.917,554.166 Q527.397,554.166 526.108,556.187 Q524.819,558.179 524.819,562.105 Q524.819,566.031 526.108,568.052 Q527.397,570.045 529.917,570.045 Q531.089,570.045 532.202,569.546 Q533.315,569.019 534.487,567.935 L534.487,573.033 Z " fill="#000"/><text x="567.358" y="569.597" fill="#000" font-size="20.625" textLength="109.661" font-family="Arial">Pedestrian</text><line x1="444.731" y1="592.457" x2="738.709" y2="592.457" style="stroke:#2E4053;stroke-width:0.938;"/><g data-visibility-modifier="PRIVATE_FIELD"><rect x="457.856" y="612.422" width="11.25" height="11.25" fill="none" style="stroke:#C82930;stroke-width:1.875;"/></g><text x="480.356" y="624.322" fill="#000" font-size="26.25" textLength="103.975" font-family="Arial">position</text><g data-visibility-modifier="PRIVATE_FIELD"><rect x="457.856" y="642.979" width="11.25" height="11.25" fill="none" style="stroke:#C82930;stroke-width:1.875;"/></g><text x="480.356" y="654.879" fill="#000" font-size="26.25" textLength="79.788" font-family="Arial">active</text><line x1="444.731" y1="668.57" x2="738.709" y2="668.57" style="stroke:#2E4053;stroke-width:0.938;"/><g data-visibility-modifier="PUBLIC_METHOD"><ellipse cx="463.481" cy="694.161" rx="5.625" ry="5.625" fill="#84BE84" style="stroke:#038048;stroke-width:1.875;"/></g><text x="480.356" y="700.436" fill="#000" font-size="26.25" textLength="77.263" font-family="Arial">step()</text><g data-visibility-modifier="PUBLIC_METHOD"><ellipse cx="463.481" cy="724.717" rx="5.625" ry="5.625" fill="#84BE84" style="stroke:#038048;stroke-width:1.875;"/></g><text x="480.356" y="730.992" fill="#000" font-size="26.25" textLength="248.978" font-family="Arial">near_intersection()</text></g><!--link Env to Vehicle--><g class="link" data-entity-1="ent0001" data-entity-2="ent0002" id="lnk8" data-source-line="96" data-link-type="dependency"><path d="M229.031,387.575 C229.031,414.8 229.031,433.944 229.031,461.563" style="stroke:#2E4053;stroke-width:1.875;" fill="none" id="Env-to-Vehicle" codeLine="96"/><polygon points="229.031,470.938,236.531,454.063,229.031,461.563,221.531,454.063,229.031,470.938" fill="#2E4053" style="stroke:#2E4053;stroke-width:1.875;stroke-linejoin:miter;stroke-miterlimit:10;"/><text x="230.906" y="421.882" fill="#000" font-size="24.375" textLength="112.234" font-family="Arial">manages</text><text x="203.51" y="424.532" fill="#000" font-size="24.375" font-family="Arial">1</text><text x="225.672" y="450.403" fill="#000" font-size="24.375" font-family="Arial">*</text></g><!--link Env to Intersection--><g class="link" data-entity-1="ent0001" data-entity-2="ent0003" id="lnk9" data-source-line="98" data-link-type="dependency"><path d="M344.213,387.5 C344.213,534.369 344.213,744.294 344.213,880.007" style="stroke:#2E4053;stroke-width:1.875;" fill="none" id="Env-to-Intersection" codeLine="98"/><polygon points="344.213,889.382,351.713,872.507,344.213,880.007,336.713,872.507,344.213,889.382" fill="#2E4053" style="stroke:#2E4053;stroke-width:1.875;stroke-linejoin:miter;stroke-miterlimit:10;"/><text x="319.369" y="662.951" fill="#000" font-size="24.375" textLength="103.177" font-family="Arial">contains</text><text x="344.878" y="424.45" fill="#000" font-size="24.375" font-family="Arial">1</text><text x="332.431" y="869.845" fill="#000" font-size="24.375" font-family="Arial">*</text></g><!--link Env to Pedestrian--><g class="link" data-entity-1="ent0001" data-entity-2="ent0007" id="lnk10" data-source-line="100" data-link-type="dependency"><path d="M458.625,387.575 C458.625,435.557 458.625,478.138 458.625,522.238" style="stroke:#2E4053;stroke-width:1.875;" fill="none" id="Env-to-Pedestrian" codeLine="100"/><polygon points="458.625,531.613,466.125,514.738,458.625,522.238,451.125,514.738,458.625,531.613" fill="#2E4053" style="stroke:#2E4053;stroke-width:1.875;stroke-linejoin:miter;stroke-miterlimit:10;"/><text x="359.25" y="452.22" fill="#000" font-size="24.375" textLength="98.583" font-family="Arial">updates</text><text x="452.834" y="424.532" fill="#000" font-size="24.375" font-family="Arial">1</text><text x="430.526" y="511.379" fill="#000" font-size="24.375" font-family="Arial">*</text></g><!--link Intersection to IntersectionLights--><g class="link" data-entity-1="ent0003" data-entity-2="ent0004" id="lnk11" data-source-line="103" data-link-type="dependency"><path d="M279.506,1133.375 C279.506,1160.619 279.506,1180.157 279.506,1207.419" style="stroke:#2E4053;stroke-width:1.875;" fill="none" id="Intersection-to-IntersectionLights" codeLine="103"/><polygon points="279.506,1216.794,287.006,1199.919,279.506,1207.419,272.006,1199.919,279.506,1216.794" fill="#2E4053" style="stroke:#2E4053;stroke-width:1.875;stroke-linejoin:miter;stroke-miterlimit:10;"/><text x="180.131" y="1167.701" fill="#000" font-size="24.375" textLength="97.726" font-family="Arial">controls</text></g><!--link Intersection to ReservationManager--><g class="link" data-entity-1="ent0003" data-entity-2="ent0006" id="lnk12" data-source-line="105" data-link-type="dependency"><path d="M403.969,1133.375 C403.969,1165.719 403.969,1191.013 403.969,1222.475" style="stroke:#2E4053;stroke-width:1.875;" fill="none" id="Intersection-to-ReservationManager" codeLine="105"/><polygon points="403.969,1231.85,411.469,1214.975,403.969,1222.475,396.469,1214.975,403.969,1231.85" fill="#2E4053" style="stroke:#2E4053;stroke-width:1.875;stroke-linejoin:miter;stroke-miterlimit:10;"/><text x="347.719" y="1175.238" fill="#000" font-size="24.375" textLength="55.844" font-family="Arial">uses</text></g><!--link IntersectionLights to TrafficLight--><g class="link" data-entity-1="ent0004" data-entity-2="ent0005" id="lnk13" data-source-line="108" data-link-type="dependency"><path d="M179.213,1460.525 C179.213,1487.788 179.213,1507.325 179.213,1534.569" style="stroke:#2E4053;stroke-width:1.875;" fill="none" id="IntersectionLights-to-TrafficLight" codeLine="108"/><polygon points="179.213,1543.944,186.713,1527.069,179.213,1534.569,171.713,1527.069,179.213,1543.944" fill="#2E4053" style="stroke:#2E4053;stroke-width:1.875;stroke-linejoin:miter;stroke-miterlimit:10;"/><text x="74.212" y="1494.87" fill="#000" font-size="24.375" textLength="103.177" font-family="Arial">contains</text></g><!--link Vehicle to Intersection--><g class="link" data-entity-1="ent0002" data-entity-2="ent0003" id="lnk14" data-source-line="111" data-link-type="dependency"><path d="M244.763,776.638 C274.631,776.638 298.538,776.638 298.538,776.638 C298.538,776.638 298.538,822.819 298.538,879.913" style="stroke:#2E4053;stroke-width:1.875;" fill="none" id="Vehicle-to-Intersection" codeLine="111"/><polygon points="298.538,889.288,306.038,872.413,298.538,879.913,291.038,872.413,298.538,889.288" fill="#2E4053" style="stroke:#2E4053;stroke-width:1.875;stroke-linejoin:miter;stroke-miterlimit:10;"/><text x="156.038" y="830.576" fill="#000" font-size="24.375" textLength="142.299" font-family="Arial">approaches</text></g><!--link Pedestrian to Intersection--><g class="link" data-entity-1="ent0007" data-entity-2="ent0003" id="lnk15" data-source-line="114" data-link-type="dependency"><path d="M442.388,639.763 C412.406,639.763 389.888,639.763 389.888,639.763 C389.888,639.763 389.888,771.557 389.888,879.932" style="stroke:#2E4053;stroke-width:1.875;" fill="none" id="Pedestrian-to-Intersection" codeLine="114"/><polygon points="389.888,889.307,397.388,872.432,389.888,879.932,382.388,872.432,389.888,889.307" fill="#2E4053" style="stroke:#2E4053;stroke-width:1.875;stroke-linejoin:miter;stroke-miterlimit:10;"/><text x="273.638" y="762.776" fill="#000" font-size="24.375" textLength="154.581" font-family="Arial">crosses near</text></g><?plantuml-src TLDDRzGm4BtdLrZBXG-jrALKGZqWbL8a9428HLoZgJERZEfupDZPPOluxpZVtcx8oNwUl7dp_1me65It1hnN7mXAWLgjrPRgna0Wjcfxz05hjGtIwD08PbbWfmAhUmw1QrMGe6uhiym_a7NGClWA2ZwGBTKEZCVav1xqGodSsEAM3OiwL1JIyyAHshozI17SGMF2HxRXAzIeReJ09EU6B8QZGyKIAavLM2xGerENLmaeO1zQyCrLMgex0_vaAdxl5oLs9om5Iey-UtttvkBgiiDlHFXm3hUIj_I8QhF9_cPPrZUvi_kXqLhjiI9jq0zRiW75ztQEcCCuH8WpJuYXiWfv7OVBEkILYZVadhyODmuEDX-O9rGQctkD5eGuWhESdttXKqav5QC0zjJTRx-TxxlVUuSubfBFiKOfqUhZgAtc_Qn2LymUyvWZEs4kAX8AnnDLdn8d9cdHv66bsGohBXl7HICqsBpa_z9-Rctq4taLHJp62mCp6I61TDmctFcEVcCnMzr2K80Bb0vvtlU7m6v7kcivTNGLU1pMWQ9lYrFiM3JcfI3Q9vXqIkOctsFOPT-zsYzWeKIPMdd3mO_qWh-Q6Aav6cWmAZdh23QSy7-RaZYFS9eDqAqHYsDO1CdJV0_KMViSLfkLMg_VgTNBrPJ7QrLtG_ZpafDmNCSmn5iZkr2OABvMZIiWj7JPoVzjxK8iUbfXunVg5voE_FwCVE1gVpb9GAev6mT-AYHMWNF2eAkEE1bceLGB-oYWy_aV?></g></svg>