<svg xmlns="http://www.w3.org/2000/svg" xmlns:xlink="http://www.w3.org/1999/xlink" version="1.1" data-diagram-type="SEQUENCE" style="width:1361px;height:2107px;background:#FFFFFF;" width="1361.25px" height="2107.5px" viewBox="0 0 1361 2107" zoomAndPan="magnify" preserveAspectRatio="none" contentStyleType="text/css"><?plantuml 1.2026.7beta8?><defs/><g font-family="sans-serif" lengthAdjust="spacing"><g class="title" data-source-line="1"><text x="252.252" y="52.491" fill="#000" font-size="26.25" textLength="854.637" font-weight="700" font-family="Arial">Emergency Vehicle Priority Handling (Sequence Diagram)</text></g><g><title>Emergency</title><rect x="92.07" y="262.295" width="15" height="1651.86" fill="#000" fill-opacity="0"/><line x1="98.633" y1="262.295" x2="98.633" y2="1914.155" style="stroke:#181818;stroke-width:0.938;stroke-dasharray:9.375,9.375;"/></g><g><title>Intersection</title><rect x="478.13" y="262.295" width="15" height="1651.86" fill="#000" fill-opacity="0"/><line x1="484.692" y1="262.295" x2="484.692" y2="1914.155" style="stroke:#181818;stroke-width:0.938;stroke-dasharray:9.375,9.375;"/></g><g><title>Reservation</title><rect x="911.225" y="262.295" width="15" height="1651.86" fill="#000" fill-opacity="0"/><line x1="917.788" y1="262.295" x2="917.788" y2="1914.155" style="stroke:#181818;stroke-width:0.938;stroke-dasharray:9.375,9.375;"/></g><g><title>Regular</title><rect x="1271.648" y="262.295" width="15" height="1651.86" fill="#000" fill-opacity="0"/><line x1="1278.211" y1="262.295" x2="1278.211" y2="1914.155" style="stroke:#181818;stroke-width:0.938;stroke-dasharray:9.375,9.375;"/></g><text x="18.75" y="225.547" fill="#000" font-size="26.25" textLength="148.515" font-family="Arial">Emergency</text><text x="45.051" y="256.104" fill="#000" font-size="26.25" textLength="95.912" font-family="Arial">Vehicle</text><ellipse cx="98.633" cy="104.619" rx="15" ry="15" fill="#E2E2F0" style="stroke:#181818;stroke-width:0.938;"/><path d="M98.633,119.619 L98.633,170.244 M74.258,134.619 L123.008,134.619 M98.633,170.244 L74.258,198.369 M98.633,170.244 L123.008,198.369" style="stroke:#181818;stroke-width:0.938;" fill="none"/><rect x="393.49" y="203.613" width="182.404" height="56.807" fill="#E2E2F0" style="stroke:#181818;stroke-width:0.938;" rx="4.688" ry="4.688"/><text x="406.615" y="241.104" fill="#000" font-size="26.25" textLength="156.154" font-family="Arial">Intersection</text><rect x="826.208" y="173.057" width="183.16" height="87.363" fill="#E2E2F0" style="stroke:#181818;stroke-width:0.938;" rx="4.688" ry="4.688"/><text x="839.333" y="210.547" fill="#000" font-size="26.25" textLength="156.91" font-family="Arial">Reservation</text><text x="860.257" y="241.104" fill="#000" font-size="26.25" textLength="115.062" font-family="Arial">Manager</text><rect x="1214.156" y="173.057" width="128.11" height="87.363" fill="#E2E2F0" style="stroke:#181818;stroke-width:0.938;" rx="4.688" ry="4.688"/><text x="1227.281" y="210.547" fill="#000" font-size="26.25" textLength="101.86" font-family="Arial">Regular</text><text x="1230.255" y="241.104" fill="#000" font-size="26.25" textLength="95.912" font-family="Arial">Vehicle</text><text x="18.75" y="1938.521" fill="#000" font-size="26.25" textLength="148.515" font-family="Arial">Emergency</text><text x="45.051" y="1969.078" fill="#000" font-size="26.25" textLength="95.912" font-family="Arial">Vehicle</text><ellipse cx="98.633" cy="1991.206" rx="15" ry="15" fill="#E2E2F0" style="stroke:#181818;stroke-width:0.938;"/><path d="M98.633,2006.206 L98.633,2056.831 M74.258,2021.206 L123.008,2021.206 M98.633,2056.831 L74.258,2084.956 M98.633,2056.831 L123.008,2084.956" style="stroke:#181818;stroke-width:0.938;" fill="none"/><rect x="393.49" y="1914.155" width="182.404" height="56.807" fill="#E2E2F0" style="stroke:#181818;stroke-width:0.938;" rx="4.688" ry="4.688"/><text x="406.615" y="1951.646" fill="#000" font-size="26.25" textLength="156.154" font-family="Arial">Intersection</text><rect x="826.208" y="1914.155" width="183.16" height="87.363" fill="#E2E2F0" style="stroke:#181818;stroke-width:0.938;" rx="4.688" ry="4.688"/><text x="839.333" y="1951.646" fill="#000" font-size="26.25" textLength="156.91" font-family="Arial">Reservation</text><text x="860.257" y="1982.203" fill="#000" font-size="26.25" textLength="115.062" font-family="Arial">Manager</text><rect x="1214.156" y="1914.155" width="128.11" height="87.363" fill="#E2E2F0" style="stroke:#181818;stroke-width:0.938;" rx="4.688" ry="4.688"/><text x="1227.281" y="1951.646" fill="#000" font-size="26.25" textLength="101.86" font-family="Arial">Regular</text><text x="1230.255" y="1982.203" fill="#000" font-size="26.25" textLength="95.912" font-family="Arial">Vehicle</text><polygon points="462.192,309.419,480.942,316.919,462.192,324.419,469.692,316.919" fill="#181818" style="stroke:#181818;stroke-width:1.875;stroke-linejoin:miter;stroke-miterlimit:10;"/><line x1="98.633" y1="316.919" x2="473.442" y2="316.919" style="stroke:#181818;stroke-width:1.875;"/><text x="121.133" y="307.42" fill="#000" font-size="24.375" textLength="341.06" font-family="Arial">Request emergency priority</text><polygon points="895.288,364.043,914.038,371.543,895.288,379.043,902.788,371.543" fill="#181818" style="stroke:#181818;stroke-width:1.875;stroke-linejoin:miter;stroke-miterlimit:10;"/><line x1="484.692" y1="371.543" x2="906.538" y2="371.543" style="stroke:#181818;stroke-width:1.875;"/><text x="605.924" y="362.044" fill="#000" font-size="24.375" textLength="190.632" font-family="Arial">force_grant(EV)</text><path d="M68.633,394.043 L189.463,394.043 L189.463,407.417 L170.713,426.167 L68.633,426.167 L68.633,394.043" style="stroke:#000;stroke-width:2.813;" fill="#EEE"/><rect x="68.633" y="394.043" width="1239.578" height="1475.112" fill="none" style="stroke:#000;stroke-width:2.813;"/><text x="96.758" y="418.543" fill="#000" font-size="24.375" textLength="36.455" font-weight="700" font-family="Arial">alt</text><text x="217.588" y="416.938" fill="#000" font-size="20.625" textLength="240.33" font-weight="700" font-family="Arial">[Intersection is free]</text><line x1="68.633" y1="1024.409" x2="1308.211" y2="1024.409" style="stroke:#000;stroke-width:1.875;stroke-dasharray:3.75,3.75;"/><text x="78.008" y="1047.304" fill="#000" font-size="20.625" textLength="441.574" font-weight="700" font-family="Arial">[Vehicle currently inside intersection]</text><line x1="917.788" y1="484.541" x2="996.538" y2="484.541" style="stroke:#181818;stroke-width:1.875;"/><line x1="996.538" y1="484.541" x2="996.538" y2="508.916" style="stroke:#181818;stroke-width:1.875;"/><line x1="919.663" y1="508.916" x2="996.538" y2="508.916" style="stroke:#181818;stroke-width:1.875;"/><polygon points="938.413,501.416,919.663,508.916,938.413,516.416,930.913,508.916" fill="#181818" style="stroke:#181818;stroke-width:1.875;stroke-linejoin:miter;stroke-miterlimit:10;"/><text x="930.913" y="475.042" fill="#000" font-size="24.375" textLength="326.873" font-family="Arial">Clear existing reservations</text><line x1="917.788" y1="563.54" x2="996.538" y2="563.54" style="stroke:#181818;stroke-width:1.875;"/><line x1="996.538" y1="563.54" x2="996.538" y2="587.915" style="stroke:#181818;stroke-width:1.875;"/><line x1="919.663" y1="587.915" x2="996.538" y2="587.915" style="stroke:#181818;stroke-width:1.875;"/><polygon points="938.413,580.415,919.663,587.915,938.413,595.415,930.913,587.915" fill="#181818" style="stroke:#181818;stroke-width:1.875;stroke-linejoin:miter;stroke-miterlimit:10;"/><text x="930.913" y="554.041" fill="#000" font-size="24.375" textLength="298.344" font-family="Arial">Assign reservation to EV</text><polygon points="505.317,635.039,486.567,642.539,505.317,650.039,497.817,642.539" fill="#181818" style="stroke:#181818;stroke-width:1.875;stroke-linejoin:miter;stroke-miterlimit:10;"/><line x1="494.067" y1="642.539" x2="915.913" y2="642.539" style="stroke:#181818;stroke-width:1.875;stroke-dasharray:3.75,3.75;"/><text x="507.192" y="633.04" fill="#000" font-size="24.375" textLength="388.096" font-family="Arial">Emergency reservation granted</text><polygon points="119.258,689.663,100.508,697.163,119.258,704.663,111.758,697.163" fill="#181818" style="stroke:#181818;stroke-width:1.875;stroke-linejoin:miter;stroke-miterlimit:10;"/><line x1="108.008" y1="697.163" x2="482.817" y2="697.163" style="stroke:#181818;stroke-width:1.875;stroke-dasharray:3.75,3.75;"/><text x="177.821" y="687.664" fill="#000" font-size="24.375" textLength="227.682" font-family="Arial">Approval response</text><line x1="98.633" y1="751.787" x2="177.383" y2="751.787" style="stroke:#181818;stroke-width:1.875;"/><line x1="177.383" y1="751.787" x2="177.383" y2="776.162" style="stroke:#181818;stroke-width:1.875;"/><line x1="100.508" y1="776.162" x2="177.383" y2="776.162" style="stroke:#181818;stroke-width:1.875;"/><polygon points="119.258,768.662,100.508,776.162,119.258,783.662,111.758,776.162" fill="#181818" style="stroke:#181818;stroke-width:1.875;stroke-linejoin:miter;stroke-miterlimit:10;"/><text x="111.758" y="742.289" fill="#000" font-size="24.375" textLength="217.756" font-family="Arial">Enter intersection</text><line x1="98.633" y1="830.786" x2="177.383" y2="830.786" style="stroke:#181818;stroke-width:1.875;"/><line x1="177.383" y1="830.786" x2="177.383" y2="855.161" style="stroke:#181818;stroke-width:1.875;"/><line x1="100.508" y1="855.161" x2="177.383" y2="855.161" style="stroke:#181818;stroke-width:1.875;"/><polygon points="119.258,847.661,100.508,855.161,119.258,862.661,111.758,855.161" fill="#181818" style="stroke:#181818;stroke-width:1.875;stroke-linejoin:miter;stroke-miterlimit:10;"/><text x="111.758" y="821.288" fill="#000" font-size="24.375" textLength="219.684" font-family="Arial">Cross intersection</text><polygon points="895.288,902.285,914.038,909.785,895.288,917.285,902.788,909.785" fill="#181818" style="stroke:#181818;stroke-width:1.875;stroke-linejoin:miter;stroke-miterlimit:10;"/><line x1="98.633" y1="909.785" x2="906.538" y2="909.785" style="stroke:#181818;stroke-width:1.875;"/><text x="437.953" y="900.287" fill="#000" font-size="24.375" textLength="140.513" font-family="Arial">release(EV)</text><line x1="917.788" y1="964.409" x2="996.538" y2="964.409" style="stroke:#181818;stroke-width:1.875;"/><line x1="996.538" y1="964.409" x2="996.538" y2="988.784" style="stroke:#181818;stroke-width:1.875;"/><line x1="919.663" y1="988.784" x2="996.538" y2="988.784" style="stroke:#181818;stroke-width:1.875;"/><polygon points="938.413,981.284,919.663,988.784,938.413,996.284,930.913,988.784" fill="#181818" style="stroke:#181818;stroke-width:1.875;stroke-linejoin:miter;stroke-miterlimit:10;"/><text x="930.913" y="954.911" fill="#000" font-size="24.375" textLength="246.547" font-family="Arial">Remove reservation</text><polygon points="1255.711,1093.667,1274.461,1101.167,1255.711,1108.667,1263.211,1101.167" fill="#181818" style="stroke:#181818;stroke-width:1.875;stroke-linejoin:miter;stroke-miterlimit:10;"/><line x1="917.788" y1="1101.167" x2="1266.961" y2="1101.167" style="stroke:#181818;stroke-width:1.875;"/><text x="940.288" y="1091.668" fill="#000" font-size="24.375" textLength="315.423" font-family="Arial">Continue current crossing</text><polygon points="505.317,1148.291,486.567,1155.791,505.317,1163.291,497.817,1155.791" fill="#181818" style="stroke:#181818;stroke-width:1.875;stroke-linejoin:miter;stroke-miterlimit:10;"/><line x1="494.067" y1="1155.791" x2="915.913" y2="1155.791" style="stroke:#181818;stroke-width:1.875;stroke-dasharray:3.75,3.75;"/><text x="605.24" y="1146.292" fill="#000" font-size="24.375" textLength="192.001" font-family="Arial">Priority delayed</text><polygon points="119.258,1202.915,100.508,1210.415,119.258,1217.915,111.758,1210.415" fill="#181818" style="stroke:#181818;stroke-width:1.875;stroke-linejoin:miter;stroke-miterlimit:10;"/><line x1="108.008" y1="1210.415" x2="482.817" y2="1210.415" style="stroke:#181818;stroke-width:1.875;stroke-dasharray:3.75,3.75;"/><text x="263.979" y="1200.916" fill="#000" font-size="24.375" textLength="55.367" font-family="Arial">Wait</text><polygon points="938.413,1257.539,919.663,1265.039,938.413,1272.539,930.913,1265.039" fill="#181818" style="stroke:#181818;stroke-width:1.875;stroke-linejoin:miter;stroke-miterlimit:10;"/><line x1="927.163" y1="1265.039" x2="1276.336" y2="1265.039" style="stroke:#181818;stroke-width:1.875;"/><text x="1026.975" y="1255.54" fill="#000" font-size="24.375" textLength="142.049" font-family="Arial">release(RV)</text><line x1="917.788" y1="1319.663" x2="996.538" y2="1319.663" style="stroke:#181818;stroke-width:1.875;"/><line x1="996.538" y1="1319.663" x2="996.538" y2="1344.038" style="stroke:#181818;stroke-width:1.875;"/><line x1="919.663" y1="1344.038" x2="996.538" y2="1344.038" style="stroke:#181818;stroke-width:1.875;"/><polygon points="938.413,1336.538,919.663,1344.038,938.413,1351.538,930.913,1344.038" fill="#181818" style="stroke:#181818;stroke-width:1.875;stroke-linejoin:miter;stroke-miterlimit:10;"/><text x="930.913" y="1310.164" fill="#000" font-size="24.375" textLength="246.547" font-family="Arial">Remove reservation</text><polygon points="462.192,1391.162,480.942,1398.662,462.192,1406.162,469.692,1398.662" fill="#181818" style="stroke:#181818;stroke-width:1.875;stroke-linejoin:miter;stroke-miterlimit:10;"/><line x1="98.633" y1="1398.662" x2="473.442" y2="1398.662" style="stroke:#181818;stroke-width:1.875;"/><text x="160.373" y="1389.164" fill="#000" font-size="24.375" textLength="262.579" font-family="Arial">Retry priority request</text><polygon points="895.288,1445.786,914.038,1453.286,895.288,1460.786,902.788,1453.286" fill="#181818" style="stroke:#181818;stroke-width:1.875;stroke-linejoin:miter;stroke-miterlimit:10;"/><line x1="484.692" y1="1453.286" x2="906.538" y2="1453.286" style="stroke:#181818;stroke-width:1.875;"/><text x="605.924" y="1443.788" fill="#000" font-size="24.375" textLength="190.632" font-family="Arial">force_grant(EV)</text><line x1="917.788" y1="1507.91" x2="996.538" y2="1507.91" style="stroke:#181818;stroke-width:1.875;"/><line x1="996.538" y1="1507.91" x2="996.538" y2="1532.285" style="stroke:#181818;stroke-width:1.875;"/><line x1="919.663" y1="1532.285" x2="996.538" y2="1532.285" style="stroke:#181818;stroke-width:1.875;"/><polygon points="938.413,1524.785,919.663,1532.285,938.413,1539.785,930.913,1532.285" fill="#181818" style="stroke:#181818;stroke-width:1.875;stroke-linejoin:miter;stroke-miterlimit:10;"/><text x="930.913" y="1498.412" fill="#000" font-size="24.375" textLength="298.344" font-family="Arial">Assign reservation to EV</text><polygon points="505.317,1579.409,486.567,1586.909,505.317,1594.409,497.817,1586.909" fill="#181818" style="stroke:#181818;stroke-width:1.875;stroke-linejoin:miter;stroke-miterlimit:10;"/><line x1="494.067" y1="1586.909" x2="915.913" y2="1586.909" style="stroke:#181818;stroke-width:1.875;stroke-dasharray:3.75,3.75;"/><text x="507.192" y="1577.411" fill="#000" font-size="24.375" textLength="388.096" font-family="Arial">Emergency reservation granted</text><polygon points="119.258,1634.033,100.508,1641.533,119.258,1649.033,111.758,1641.533" fill="#181818" style="stroke:#181818;stroke-width:1.875;stroke-linejoin:miter;stroke-miterlimit:10;"/><line x1="108.008" y1="1641.533" x2="482.817" y2="1641.533" style="stroke:#181818;stroke-width:1.875;stroke-dasharray:3.75,3.75;"/><text x="177.821" y="1632.035" fill="#000" font-size="24.375" textLength="227.682" font-family="Arial">Approval response</text><line x1="98.633" y1="1696.157" x2="177.383" y2="1696.157" style="stroke:#181818;stroke-width:1.875;"/><line x1="177.383" y1="1696.157" x2="177.383" y2="1720.532" style="stroke:#181818;stroke-width:1.875;"/><line x1="100.508" y1="1720.532" x2="177.383" y2="1720.532" style="stroke:#181818;stroke-width:1.875;"/><polygon points="119.258,1713.032,100.508,1720.532,119.258,1728.032,111.758,1720.532" fill="#181818" style="stroke:#181818;stroke-width:1.875;stroke-linejoin:miter;stroke-miterlimit:10;"/><text x="111.758" y="1686.659" fill="#000" font-size="24.375" textLength="217.756" font-family="Arial">Enter intersection</text><line x1="98.633" y1="1775.156" x2="177.383" y2="1775.156" style="stroke:#181818;stroke-width:1.875;"/><line x1="177.383" y1="1775.156" x2="177.383" y2="1799.531" style="stroke:#181818;stroke-width:1.875;"/><line x1="100.508" y1="1799.531" x2="177.383" y2="1799.531" style="stroke:#181818;stroke-width:1.875;"/><polygon points="119.258,1792.031,100.508,1799.531,119.258,1807.031,111.758,1799.531" fill="#181818" style="stroke:#181818;stroke-width:1.875;stroke-linejoin:miter;stroke-miterlimit:10;"/><text x="111.758" y="1765.658" fill="#000" font-size="24.375" textLength="219.684" font-family="Arial">Cross intersection</text><polygon points="895.288,1846.655,914.038,1854.155,895.288,1861.655,902.788,1854.155" fill="#181818" style="stroke:#181818;stroke-width:1.875;stroke-linejoin:miter;stroke-miterlimit:10;"/><line x1="98.633" y1="1854.155" x2="906.538" y2="1854.155" style="stroke:#181818;stroke-width:1.875;"/><text x="437.953" y="1844.657" fill="#000" font-size="24.375" textLength="140.513" font-family="Arial">release(EV)</text><?plantuml-src rPD1Qzmm48Nl-XN3df93eRsL7W9Bwb8VjXG7t4kW3FAiCrGhkIDvq_tt7IcEr-iqa6jzCj8tCs-UdnCdHr0TI7hozWGjFR3La-_2GJYTu2lwph7luUgEVe_A47ncx0KFryR4N-m7r7U83zY5nypjqKLQt7G3muUFxvSdjCVHfI_1fszu8DWAerlscWRjA4RiQUkuzs399n9ZqAOWi9aLt_j9yWOmGjKQxP7Oye0-mQREHP5iuk0BK5_UDnH9ZfYlx_qElOwJmZMxDTYF3kLoMjCQKxNmxWPg-0HDbXqJq6pcC9beJ9sXPgVKFeYbd-gVJrTLgnwYIx2K2HnXBqJ6W3vQyrnvwmW5w0_7b7sMi_IuHhSnPiyM2AIGpSdS34-wpnz_oHU5r1MuBgnkgfs7GS8HNMO7dJp9V7AX45NU1NYnqPgubH3Z9R50oW92kcoauj1gjuOEuKXBhSQGHcwEhXr5D2pkf2CYT_IFILEx8aPJo7wSoy1cTMgmMViq_n8TEJozjEO7SfgANYxIl6sHimrFYKfoJf6I9M3FSryBr5kpyB_bm93l_W80?></g></svg>