<svg xmlns="http://www.w3.org/2000/svg" xmlns:xlink="http://www.w3.org/1999/xlink" version="1.1" data-diagram-type="ACTIVITY" style="width:693px;height:850px;background:#FFFFFF;" width="693px" height="850px" viewBox="0 0 693 850" zoomAndPan="magnify" preserveAspectRatio="none" contentStyleType="text/css"><?plantuml 1.2026.7beta8?><defs/><g font-family="sans-serif" lengthAdjust="spacing"><g class="title" data-source-line="1"><text x="222.578" y="32.995" fill="#000" font-size="14" textLength="246.518" font-weight="700">Vehicle Agent Activity Diagram</text></g><ellipse cx="282.883" cy="62.297" rx="10" ry="10" fill="#222" style="stroke:#222;stroke-width:1;"/><rect x="209.535" y="92.297" width="146.697" height="33.969" fill="#F1F1F1" style="stroke:#181818;stroke-width:0.5;" rx="12.5" ry="12.5"/><text x="219.535" y="113.436" fill="#000" font-size="12" textLength="126.697">Update Vehicle State</text><rect x="180.411" y="146.266" width="204.945" height="33.969" fill="#F1F1F1" style="stroke:#181818;stroke-width:0.5;" rx="12.5" ry="12.5"/><text x="190.411" y="167.404" fill="#000" font-size="12" textLength="184.945">Check Environment Conditions</text><polygon points="195.826,200.234,369.941,200.234,381.941,212.234,369.941,224.234,195.826,224.234,183.826,212.234,195.826,200.234" fill="#F1F1F1" style="stroke:#181818;stroke-width:0.5;stroke-linejoin:miter;stroke-miterlimit:10;"/><text x="195.826" y="216.042" fill="#000" font-size="11" textLength="174.115">Obstacle or Pedestrian Nearby?</text><text x="164.608" y="209.64" fill="#000" font-size="11" textLength="19.218">Yes</text><text x="381.941" y="209.64" fill="#000" font-size="11" textLength="14.958">No</text><rect x="16" y="234.234" width="145.309" height="33.969" fill="#F1F1F1" style="stroke:#181818;stroke-width:0.5;" rx="12.5" ry="12.5"/><text x="26" y="255.373" fill="#000" font-size="12" textLength="125.309">Reduce Speed / Stop</text><polygon points="404.971,234.234,549.254,234.234,561.254,246.234,549.254,258.234,404.971,258.234,392.971,246.234,404.971,234.234" fill="#F1F1F1" style="stroke:#181818;stroke-width:0.5;stroke-linejoin:miter;stroke-miterlimit:10;"/><text x="404.971" y="250.042" fill="#000" font-size="11" textLength="144.284">Approaching Intersection?</text><text x="373.753" y="243.64" fill="#000" font-size="11" textLength="19.218">Yes</text><text x="561.254" y="243.64" fill="#000" font-size="11" textLength="14.958">No</text><rect x="236.342" y="268.234" width="229.754" height="33.969" fill="#F1F1F1" style="stroke:#181818;stroke-width:0.5;" rx="12.5" ry="12.5"/><text x="246.342" y="289.373" fill="#000" font-size="12" textLength="209.754">Evaluate Reservation Requirement</text><rect x="261.786" y="322.203" width="178.865" height="33.969" fill="#F1F1F1" style="stroke:#181818;stroke-width:0.5;" rx="12.5" ry="12.5"/><text x="271.786" y="343.342" fill="#000" font-size="12" textLength="158.865">Send Reservation Request</text><polygon points="291.264,376.172,411.173,376.172,423.173,388.172,411.173,400.172,291.264,400.172,279.264,388.172,291.264,376.172" fill="#F1F1F1" style="stroke:#181818;stroke-width:0.5;stroke-linejoin:miter;stroke-miterlimit:10;"/><text x="291.264" y="391.98" fill="#000" font-size="11" textLength="119.91">Reservation Granted?</text><text x="260.046" y="385.578" fill="#000" font-size="11" textLength="19.218">Yes</text><text x="423.173" y="385.578" fill="#000" font-size="11" textLength="14.958">No</text><rect x="201.309" y="410.172" width="135.91" height="33.969" fill="#F1F1F1" style="stroke:#181818;stroke-width:0.5;" rx="12.5" ry="12.5"/><text x="211.309" y="431.311" fill="#000" font-size="12" textLength="115.91">Enter Conflict Zone</text><rect x="201.396" y="464.141" width="135.734" height="33.969" fill="#F1F1F1" style="stroke:#181818;stroke-width:0.5;" rx="12.5" ry="12.5"/><text x="211.396" y="485.279" fill="#000" font-size="12" textLength="115.734">Execute Movement</text><rect x="364.008" y="410.172" width="138.33" height="33.969" fill="#F1F1F1" style="stroke:#181818;stroke-width:0.5;" rx="12.5" ry="12.5"/><text x="374.008" y="431.311" fill="#000" font-size="12" textLength="118.33">Wait at Intersection</text><polygon points="351.219,504.109,363.219,516.109,351.219,528.109,339.219,516.109,351.219,504.109" fill="#F1F1F1" style="stroke:#181818;stroke-width:0.5;stroke-linejoin:miter;stroke-miterlimit:10;"/><rect x="532.338" y="268.234" width="141.336" height="33.969" fill="#F1F1F1" style="stroke:#181818;stroke-width:0.5;" rx="12.5" ry="12.5"/><text x="542.338" y="289.373" fill="#000" font-size="12" textLength="121.336">Continue Movement</text><polygon points="477.112,534.109,489.112,546.109,477.112,558.109,465.112,546.109,477.112,534.109" fill="#F1F1F1" style="stroke:#181818;stroke-width:0.5;stroke-linejoin:miter;stroke-miterlimit:10;"/><polygon points="282.883,564.109,294.883,576.109,282.883,588.109,270.883,576.109,282.883,564.109" fill="#F1F1F1" style="stroke:#181818;stroke-width:0.5;stroke-linejoin:miter;stroke-miterlimit:10;"/><rect x="201.841" y="608.109" width="162.084" height="33.969" fill="#F1F1F1" style="stroke:#181818;stroke-width:0.5;" rx="12.5" ry="12.5"/><text x="211.841" y="629.248" fill="#000" font-size="12" textLength="142.084">Update Vehicle Position</text><rect x="211.398" y="710.48" width="142.971" height="33.969" fill="#F1F1F1" style="stroke:#181818;stroke-width:0.5;" rx="12.5" ry="12.5"/><text x="221.398" y="731.619" fill="#000" font-size="12" textLength="122.971">Release Reservation</text><polygon points="224.239,662.078,341.528,662.078,353.528,674.078,341.528,686.078,224.239,686.078,212.239,674.078,224.239,662.078" fill="#F1F1F1" style="stroke:#181818;stroke-width:0.5;stroke-linejoin:miter;stroke-miterlimit:10;"/><text x="286.883" y="696.289" fill="#000" font-size="11" textLength="19.218">Yes</text><text x="224.239" y="677.886" fill="#000" font-size="11" textLength="117.289">Intersection Cleared?</text><polygon points="282.883,764.449,294.883,776.449,282.883,788.449,270.883,776.449,282.883,764.449" fill="#F1F1F1" style="stroke:#181818;stroke-width:0.5;stroke-linejoin:miter;stroke-miterlimit:10;"/><ellipse cx="282.883" cy="819.449" rx="11" ry="11" fill="none" style="stroke:#222;stroke-width:1;"/><ellipse cx="282.883" cy="819.449" rx="6" ry="6" fill="#222" style="stroke:#222;stroke-width:1;"/><line x1="282.883" y1="72.297" x2="282.883" y2="92.297" style="stroke:#181818;stroke-width:1;"/><polygon points="278.883,82.297,282.883,92.297,286.883,82.297,282.883,86.297" fill="#181818" style="stroke:#181818;stroke-width:1;stroke-linejoin:miter;stroke-miterlimit:10;"/><line x1="282.883" y1="126.266" x2="282.883" y2="146.266" style="stroke:#181818;stroke-width:1;"/><polygon points="278.883,136.266,282.883,146.266,286.883,136.266,282.883,140.266" fill="#181818" style="stroke:#181818;stroke-width:1;stroke-linejoin:miter;stroke-miterlimit:10;"/><line x1="351.219" y1="302.203" x2="351.219" y2="322.203" style="stroke:#181818;stroke-width:1;"/><polygon points="347.219,312.203,351.219,322.203,355.219,312.203,351.219,316.203" fill="#181818" style="stroke:#181818;stroke-width:1;stroke-linejoin:miter;stroke-miterlimit:10;"/><line x1="269.264" y1="444.141" x2="269.264" y2="464.141" style="stroke:#181818;stroke-width:1;"/><polygon points="265.264,454.141,269.264,464.141,273.264,454.141,269.264,458.141" fill="#181818" style="stroke:#181818;stroke-width:1;stroke-linejoin:miter;stroke-miterlimit:10;"/><line x1="279.264" y1="388.172" x2="269.264" y2="388.172" style="stroke:#181818;stroke-width:1;"/><line x1="269.264" y1="388.172" x2="269.264" y2="410.172" style="stroke:#181818;stroke-width:1;"/><polygon points="265.264,400.172,269.264,410.172,273.264,400.172,269.264,404.172" fill="#181818" style="stroke:#181818;stroke-width:1;stroke-linejoin:miter;stroke-miterlimit:10;"/><line x1="423.173" y1="388.172" x2="433.173" y2="388.172" style="stroke:#181818;stroke-width:1;"/><line x1="433.173" y1="388.172" x2="433.173" y2="410.172" style="stroke:#181818;stroke-width:1;"/><polygon points="429.173,400.172,433.173,410.172,437.173,400.172,433.173,404.172" fill="#181818" style="stroke:#181818;stroke-width:1;stroke-linejoin:miter;stroke-miterlimit:10;"/><line x1="269.264" y1="498.109" x2="269.264" y2="516.109" style="stroke:#181818;stroke-width:1;"/><line x1="269.264" y1="516.109" x2="339.219" y2="516.109" style="stroke:#181818;stroke-width:1;"/><polygon points="329.219,512.109,339.219,516.109,329.219,520.109,333.219,516.109" fill="#181818" style="stroke:#181818;stroke-width:1;stroke-linejoin:miter;stroke-miterlimit:10;"/><line x1="433.173" y1="444.141" x2="433.173" y2="516.109" style="stroke:#181818;stroke-width:1;"/><line x1="433.173" y1="516.109" x2="363.219" y2="516.109" style="stroke:#181818;stroke-width:1;"/><polygon points="373.219,512.109,363.219,516.109,373.219,520.109,369.219,516.109" fill="#181818" style="stroke:#181818;stroke-width:1;stroke-linejoin:miter;stroke-miterlimit:10;"/><line x1="351.219" y1="356.172" x2="351.219" y2="376.172" style="stroke:#181818;stroke-width:1;"/><polygon points="347.219,366.172,351.219,376.172,355.219,366.172,351.219,370.172" fill="#181818" style="stroke:#181818;stroke-width:1;stroke-linejoin:miter;stroke-miterlimit:10;"/><line x1="392.971" y1="246.234" x2="351.219" y2="246.234" style="stroke:#181818;stroke-width:1;"/><line x1="351.219" y1="246.234" x2="351.219" y2="268.234" style="stroke:#181818;stroke-width:1;"/><polygon points="347.219,258.234,351.219,268.234,355.219,258.234,351.219,262.234" fill="#181818" style="stroke:#181818;stroke-width:1;stroke-linejoin:miter;stroke-miterlimit:10;"/><line x1="561.254" y1="246.234" x2="603.006" y2="246.234" style="stroke:#181818;stroke-width:1;"/><line x1="603.006" y1="246.234" x2="603.006" y2="268.234" style="stroke:#181818;stroke-width:1;"/><polygon points="599.006,258.234,603.006,268.234,607.006,258.234,603.006,262.234" fill="#181818" style="stroke:#181818;stroke-width:1;stroke-linejoin:miter;stroke-miterlimit:10;"/><line x1="351.219" y1="528.109" x2="351.219" y2="546.109" style="stroke:#181818;stroke-width:1;"/><line x1="351.219" y1="546.109" x2="465.112" y2="546.109" style="stroke:#181818;stroke-width:1;"/><polygon points="455.112,542.109,465.112,546.109,455.112,550.109,459.112,546.109" fill="#181818" style="stroke:#181818;stroke-width:1;stroke-linejoin:miter;stroke-miterlimit:10;"/><line x1="603.006" y1="302.203" x2="603.006" y2="546.109" style="stroke:#181818;stroke-width:1;"/><line x1="603.006" y1="546.109" x2="489.112" y2="546.109" style="stroke:#181818;stroke-width:1;"/><polygon points="499.112,542.109,489.112,546.109,499.112,550.109,495.112,546.109" fill="#181818" style="stroke:#181818;stroke-width:1;stroke-linejoin:miter;stroke-miterlimit:10;"/><line x1="183.826" y1="212.234" x2="88.654" y2="212.234" style="stroke:#181818;stroke-width:1;"/><line x1="88.654" y1="212.234" x2="88.654" y2="234.234" style="stroke:#181818;stroke-width:1;"/><polygon points="84.654,224.234,88.654,234.234,92.654,224.234,88.654,228.234" fill="#181818" style="stroke:#181818;stroke-width:1;stroke-linejoin:miter;stroke-miterlimit:10;"/><line x1="381.941" y1="212.234" x2="477.112" y2="212.234" style="stroke:#181818;stroke-width:1;"/><line x1="477.112" y1="212.234" x2="477.112" y2="234.234" style="stroke:#181818;stroke-width:1;"/><polygon points="473.112,224.234,477.112,234.234,481.112,224.234,477.112,228.234" fill="#181818" style="stroke:#181818;stroke-width:1;stroke-linejoin:miter;stroke-miterlimit:10;"/><line x1="88.654" y1="268.203" x2="88.654" y2="576.109" style="stroke:#181818;stroke-width:1;"/><line x1="88.654" y1="576.109" x2="270.883" y2="576.109" style="stroke:#181818;stroke-width:1;"/><polygon points="260.883,572.109,270.883,576.109,260.883,580.109,264.883,576.109" fill="#181818" style="stroke:#181818;stroke-width:1;stroke-linejoin:miter;stroke-miterlimit:10;"/><line x1="477.112" y1="558.109" x2="477.112" y2="576.109" style="stroke:#181818;stroke-width:1;"/><line x1="477.112" y1="576.109" x2="294.883" y2="576.109" style="stroke:#181818;stroke-width:1;"/><polygon points="304.883,572.109,294.883,576.109,304.883,580.109,300.883,576.109" fill="#181818" style="stroke:#181818;stroke-width:1;stroke-linejoin:miter;stroke-miterlimit:10;"/><line x1="282.883" y1="180.234" x2="282.883" y2="200.234" style="stroke:#181818;stroke-width:1;"/><polygon points="278.883,190.234,282.883,200.234,286.883,190.234,282.883,194.234" fill="#181818" style="stroke:#181818;stroke-width:1;stroke-linejoin:miter;stroke-miterlimit:10;"/><line x1="282.883" y1="588.109" x2="282.883" y2="608.109" style="stroke:#181818;stroke-width:1;"/><polygon points="278.883,598.109,282.883,608.109,286.883,598.109,282.883,602.109" fill="#181818" style="stroke:#181818;stroke-width:1;stroke-linejoin:miter;stroke-miterlimit:10;"/><line x1="282.883" y1="686.078" x2="282.883" y2="710.48" style="stroke:#181818;stroke-width:1;"/><polygon points="278.883,700.48,282.883,710.48,286.883,700.48,282.883,704.48" fill="#181818" style="stroke:#181818;stroke-width:1;stroke-linejoin:miter;stroke-miterlimit:10;"/><line x1="353.528" y1="674.078" x2="365.528" y2="674.078" style="stroke:#181818;stroke-width:1;"/><polygon points="361.528,717.465,365.528,727.465,369.528,717.465,365.528,721.465" fill="#181818" style="stroke:#181818;stroke-width:1;stroke-linejoin:miter;stroke-miterlimit:10;"/><line x1="365.528" y1="674.078" x2="365.528" y2="776.449" style="stroke:#181818;stroke-width:1;"/><line x1="365.528" y1="776.449" x2="294.883" y2="776.449" style="stroke:#181818;stroke-width:1;"/><polygon points="304.883,772.449,294.883,776.449,304.883,780.449,300.883,776.449" fill="#181818" style="stroke:#181818;stroke-width:1;stroke-linejoin:miter;stroke-miterlimit:10;"/><line x1="282.883" y1="744.449" x2="282.883" y2="764.449" style="stroke:#181818;stroke-width:1;"/><polygon points="278.883,754.449,282.883,764.449,286.883,754.449,282.883,758.449" fill="#181818" style="stroke:#181818;stroke-width:1;stroke-linejoin:miter;stroke-miterlimit:10;"/><line x1="282.883" y1="642.078" x2="282.883" y2="662.078" style="stroke:#181818;stroke-width:1;"/><polygon points="278.883,652.078,282.883,662.078,286.883,652.078,282.883,656.078" fill="#181818" style="stroke:#181818;stroke-width:1;stroke-linejoin:miter;stroke-miterlimit:10;"/><line x1="282.883" y1="788.449" x2="282.883" y2="808.449" style="stroke:#181818;stroke-width:1;"/><polygon points="278.883,798.449,282.883,808.449,286.883,798.449,282.883,802.449" fill="#181818" style="stroke:#181818;stroke-width:1;stroke-linejoin:miter;stroke-miterlimit:10;"/><?plantuml-src PP5FJyCm3CNl_HG-TYVksm5DfK8S6DCcG73B4g-rw9oIk1NxzZYi4-rwoXyxl_UU8oGDmXlMP7LTLyW2QolKavpXWKmLp2dBefWWMRPyRPsH__Qzw6cbzqMDzWjAxYbuFYL6uTcHaEUeTJf2_d9GI7ha0spHOPH0Xc639XpEzmkG6Xdo3umBvUtGTLRvBQA3EzNnhMAmYGZvnYykn7NR1cziJLp14mk6Y3OftiBAtZHTiht3YA4tgKVttnq5J5vJW3soczNLus1-N7aCHiNSJ2KvIB6F3Lc1Jyz_aob_q7Qg_UpxgzWenlBTa82HYV_KeiCxJZkLBCJTb3IqNPRPzsnzf06OGemre6XqyBSfTEvw7IUJMbtnKJ_X5m00?></g></svg>