<svg xmlns="http://www.w3.org/2000/svg" xmlns:xlink="http://www.w3.org/1999/xlink" version="1.1" data-diagram-type="ACTIVITY" style="width:391px;height:722px;background:#FFFFFF;" width="391px" height="722px" viewBox="0 0 391 722" zoomAndPan="magnify" preserveAspectRatio="none" contentStyleType="text/css"><?plantuml 1.2026.7beta8?><defs/><g font-family="sans-serif" lengthAdjust="spacing"><g class="title" data-source-line="1"><text x="83.428" y="32.995" fill="#000" font-size="14" textLength="222.817" font-weight="700">Conflict Resolution Strategy</text></g><ellipse cx="165.966" cy="62.297" rx="10" ry="10" fill="#222" style="stroke:#222;stroke-width:1;"/><rect x="77.922" y="92.297" width="176.088" height="33.969" fill="#F1F1F1" style="stroke:#181818;stroke-width:0.5;" rx="12.5" ry="12.5"/><text x="87.922" y="113.436" fill="#000" font-size="12" textLength="156.088">Incoming Vehicle Request</text><rect x="81.321" y="146.266" width="169.291" height="33.969" fill="#F1F1F1" style="stroke:#181818;stroke-width:0.5;" rx="12.5" ry="12.5"/><text x="91.321" y="167.404" fill="#000" font-size="12" textLength="149.291">Check Reservation Table</text><polygon points="93.419,200.234,238.514,200.234,250.514,212.234,238.514,224.234,93.419,224.234,81.419,212.234,93.419,200.234" fill="#F1F1F1" style="stroke:#181818;stroke-width:0.5;stroke-linejoin:miter;stroke-miterlimit:10;"/><text x="93.419" y="216.042" fill="#000" font-size="11" textLength="145.095">Active Reservation Exists?</text><text x="62.201" y="209.64" fill="#000" font-size="11" textLength="19.218">Yes</text><text x="250.514" y="209.64" fill="#000" font-size="11" textLength="14.958">No</text><rect x="16" y="234.234" width="110.838" height="33.969" fill="#F1F1F1" style="stroke:#181818;stroke-width:0.5;" rx="12.5" ry="12.5"/><text x="26" y="255.373" fill="#000" font-size="12" textLength="90.838">Reject Request</text><rect x="20.834" y="288.203" width="101.17" height="33.969" fill="#F1F1F1" style="stroke:#181818;stroke-width:0.5;" rx="12.5" ry="12.5"/><text x="30.834" y="309.342" fill="#000" font-size="12" textLength="81.17">Vehicle Waits</text><rect x="200.938" y="234.234" width="119.152" height="33.969" fill="#F1F1F1" style="stroke:#181818;stroke-width:0.5;" rx="12.5" ry="12.5"/><text x="210.938" y="255.373" fill="#000" font-size="12" textLength="99.152">Evaluate Priority</text><rect x="174.354" y="336.605" width="172.32" height="33.969" fill="#F1F1F1" style="stroke:#181818;stroke-width:0.5;" rx="12.5" ry="12.5"/><text x="184.354" y="357.744" fill="#000" font-size="12" textLength="152.32">Apply Emergency Priority</text><polygon points="204.633,288.203,316.395,288.203,328.395,300.203,316.395,312.203,204.633,312.203,192.633,300.203,204.633,288.203" fill="#F1F1F1" style="stroke:#181818;stroke-width:0.5;stroke-linejoin:miter;stroke-miterlimit:10;"/><text x="264.514" y="322.414" fill="#000" font-size="11" textLength="19.218">Yes</text><text x="204.633" y="304.011" fill="#000" font-size="11" textLength="111.762">Emergency Vehicle?</text><polygon points="260.514,390.574,272.514,402.574,260.514,414.574,248.514,402.574,260.514,390.574" fill="#F1F1F1" style="stroke:#181818;stroke-width:0.5;stroke-linejoin:miter;stroke-miterlimit:10;"/><rect x="195.793" y="434.574" width="129.441" height="33.969" fill="#F1F1F1" style="stroke:#181818;stroke-width:0.5;" rx="12.5" ry="12.5"/><text x="205.793" y="455.713" fill="#000" font-size="12" textLength="109.441">Grant Reservation</text><rect x="150.843" y="488.543" width="219.342" height="33.969" fill="#F1F1F1" style="stroke:#181818;stroke-width:0.5;" rx="12.5" ry="12.5"/><text x="160.843" y="509.682" fill="#000" font-size="12" textLength="199.342">Add Vehicle to Reservation Table</text><polygon points="165.966,528.512,177.966,540.512,165.966,552.512,153.966,540.512,165.966,528.512" fill="#F1F1F1" style="stroke:#181818;stroke-width:0.5;stroke-linejoin:miter;stroke-miterlimit:10;"/><rect x="77.067" y="572.512" width="177.799" height="33.969" fill="#F1F1F1" style="stroke:#181818;stroke-width:0.5;" rx="12.5" ry="12.5"/><text x="87.067" y="593.65" fill="#000" font-size="12" textLength="157.799">Vehicle Executes Crossing</text><rect x="94.481" y="626.48" width="142.971" height="33.969" fill="#F1F1F1" style="stroke:#181818;stroke-width:0.5;" rx="12.5" ry="12.5"/><text x="104.481" y="647.619" fill="#000" font-size="12" textLength="122.971">Release Reservation</text><ellipse cx="165.966" cy="691.449" rx="11" ry="11" fill="none" style="stroke:#222;stroke-width:1;"/><ellipse cx="165.966" cy="691.449" rx="6" ry="6" fill="#222" style="stroke:#222;stroke-width:1;"/><line x1="165.966" y1="72.297" x2="165.966" y2="92.297" style="stroke:#181818;stroke-width:1;"/><polygon points="161.966,82.297,165.966,92.297,169.966,82.297,165.966,86.297" fill="#181818" style="stroke:#181818;stroke-width:1;stroke-linejoin:miter;stroke-miterlimit:10;"/><line x1="165.966" y1="126.266" x2="165.966" y2="146.266" style="stroke:#181818;stroke-width:1;"/><polygon points="161.966,136.266,165.966,146.266,169.966,136.266,165.966,140.266" fill="#181818" style="stroke:#181818;stroke-width:1;stroke-linejoin:miter;stroke-miterlimit:10;"/><line x1="71.419" y1="268.203" x2="71.419" y2="288.203" style="stroke:#181818;stroke-width:1;"/><polygon points="67.419,278.203,71.419,288.203,75.419,278.203,71.419,282.203" fill="#181818" style="stroke:#181818;stroke-width:1;stroke-linejoin:miter;stroke-miterlimit:10;"/><line x1="260.514" y1="312.203" x2="260.514" y2="336.605" style="stroke:#181818;stroke-width:1;"/><polygon points="256.514,326.605,260.514,336.605,264.514,326.605,260.514,330.605" fill="#181818" style="stroke:#181818;stroke-width:1;stroke-linejoin:miter;stroke-miterlimit:10;"/><line x1="328.395" y1="300.203" x2="356.674" y2="300.203" style="stroke:#181818;stroke-width:1;"/><polygon points="352.674,343.59,356.674,353.59,360.674,343.59,356.674,347.59" fill="#181818" style="stroke:#181818;stroke-width:1;stroke-linejoin:miter;stroke-miterlimit:10;"/><line x1="356.674" y1="300.203" x2="356.674" y2="402.574" style="stroke:#181818;stroke-width:1;"/><line x1="356.674" y1="402.574" x2="272.514" y2="402.574" style="stroke:#181818;stroke-width:1;"/><polygon points="282.514,398.574,272.514,402.574,282.514,406.574,278.514,402.574" fill="#181818" style="stroke:#181818;stroke-width:1;stroke-linejoin:miter;stroke-miterlimit:10;"/><line x1="260.514" y1="370.574" x2="260.514" y2="390.574" style="stroke:#181818;stroke-width:1;"/><polygon points="256.514,380.574,260.514,390.574,264.514,380.574,260.514,384.574" fill="#181818" style="stroke:#181818;stroke-width:1;stroke-linejoin:miter;stroke-miterlimit:10;"/><line x1="260.514" y1="268.203" x2="260.514" y2="288.203" style="stroke:#181818;stroke-width:1;"/><polygon points="256.514,278.203,260.514,288.203,264.514,278.203,260.514,282.203" fill="#181818" style="stroke:#181818;stroke-width:1;stroke-linejoin:miter;stroke-miterlimit:10;"/><line x1="260.514" y1="414.574" x2="260.514" y2="434.574" style="stroke:#181818;stroke-width:1;"/><polygon points="256.514,424.574,260.514,434.574,264.514,424.574,260.514,428.574" fill="#181818" style="stroke:#181818;stroke-width:1;stroke-linejoin:miter;stroke-miterlimit:10;"/><line x1="260.514" y1="468.543" x2="260.514" y2="488.543" style="stroke:#181818;stroke-width:1;"/><polygon points="256.514,478.543,260.514,488.543,264.514,478.543,260.514,482.543" fill="#181818" style="stroke:#181818;stroke-width:1;stroke-linejoin:miter;stroke-miterlimit:10;"/><line x1="81.419" y1="212.234" x2="71.419" y2="212.234" style="stroke:#181818;stroke-width:1;"/><line x1="71.419" y1="212.234" x2="71.419" y2="234.234" style="stroke:#181818;stroke-width:1;"/><polygon points="67.419,224.234,71.419,234.234,75.419,224.234,71.419,228.234" fill="#181818" style="stroke:#181818;stroke-width:1;stroke-linejoin:miter;stroke-miterlimit:10;"/><line x1="250.514" y1="212.234" x2="260.514" y2="212.234" style="stroke:#181818;stroke-width:1;"/><line x1="260.514" y1="212.234" x2="260.514" y2="234.234" style="stroke:#181818;stroke-width:1;"/><polygon points="256.514,224.234,260.514,234.234,264.514,224.234,260.514,228.234" fill="#181818" style="stroke:#181818;stroke-width:1;stroke-linejoin:miter;stroke-miterlimit:10;"/><line x1="71.419" y1="322.172" x2="71.419" y2="540.512" style="stroke:#181818;stroke-width:1;"/><line x1="71.419" y1="540.512" x2="153.966" y2="540.512" style="stroke:#181818;stroke-width:1;"/><polygon points="143.966,536.512,153.966,540.512,143.966,544.512,147.966,540.512" fill="#181818" style="stroke:#181818;stroke-width:1;stroke-linejoin:miter;stroke-miterlimit:10;"/><line x1="260.514" y1="522.512" x2="260.514" y2="540.512" style="stroke:#181818;stroke-width:1;"/><line x1="260.514" y1="540.512" x2="177.966" y2="540.512" style="stroke:#181818;stroke-width:1;"/><polygon points="187.966,536.512,177.966,540.512,187.966,544.512,183.966,540.512" fill="#181818" style="stroke:#181818;stroke-width:1;stroke-linejoin:miter;stroke-miterlimit:10;"/><line x1="165.966" y1="180.234" x2="165.966" y2="200.234" style="stroke:#181818;stroke-width:1;"/><polygon points="161.966,190.234,165.966,200.234,169.966,190.234,165.966,194.234" fill="#181818" style="stroke:#181818;stroke-width:1;stroke-linejoin:miter;stroke-miterlimit:10;"/><line x1="165.966" y1="552.512" x2="165.966" y2="572.512" style="stroke:#181818;stroke-width:1;"/><polygon points="161.966,562.512,165.966,572.512,169.966,562.512,165.966,566.512" fill="#181818" style="stroke:#181818;stroke-width:1;stroke-linejoin:miter;stroke-miterlimit:10;"/><line x1="165.966" y1="606.48" x2="165.966" y2="626.48" style="stroke:#181818;stroke-width:1;"/><polygon points="161.966,616.48,165.966,626.48,169.966,616.48,165.966,620.48" fill="#181818" style="stroke:#181818;stroke-width:1;stroke-linejoin:miter;stroke-miterlimit:10;"/><line x1="165.966" y1="660.449" x2="165.966" y2="680.449" style="stroke:#181818;stroke-width:1;"/><polygon points="161.966,670.449,165.966,680.449,169.966,670.449,165.966,674.449" fill="#181818" style="stroke:#181818;stroke-width:1;stroke-linejoin:miter;stroke-miterlimit:10;"/><?plantuml-src RL3DJeD04Bxp57Eahs0FXX1Yl1Y3ngR7TVc0qUqkxWoalBqBaLeRh_FzZx8wK1bywzWgrP3WHkNWwKMZKNHpbecQg5bsz-XjEB7lw0qzsoIhyJL2T9-mieVzNEI8ardrh-RT8K7SKbvOvGb_uEhCedA_8-tXAJz2TiccnWVM6XVZBUjWM2KTu0IKFuM5NKt6ZQaaFKSEaNN-YQjEY1sydRUcjp75CBYPVcbNUlY6sqHvYCRhTUEbJD4qb_4Q_fsxwJTQTOOT5K9b32BfU_jrfeCHtDYBXk4R?></g></svg>