<svg xmlns="http://www.w3.org/2000/svg" xmlns:xlink="http://www.w3.org/1999/xlink" version="1.1" data-diagram-type="ACTIVITY" style="width:1726px;height:1713px;background:#FFFFFF;" width="1726.875px" height="1713.75px" viewBox="0 0 1726 1713" zoomAndPan="magnify" preserveAspectRatio="none" contentStyleType="text/css"><?plantuml 1.2026.7beta8?><defs/><g font-family="sans-serif" lengthAdjust="spacing"><g class="title" data-source-line="1"><text x="432.941" y="61.866" fill="#000" font-size="26.25" textLength="858.739" font-weight="700" font-family="Arial">Reservation Workflow - Intersection Coordination Process</text></g><ellipse cx="901.843" cy="116.807" rx="18.75" ry="18.75" fill="#222" style="stroke:#222;stroke-width:1.875;"/><rect x="687.373" y="173.057" width="428.94" height="65.874" fill="#FFF" style="stroke:#2E4053;stroke-width:0.938;" rx="23.438" ry="23.438"/><text x="706.123" y="214.432" fill="#000" font-size="24.375" textLength="391.44" font-family="Arial">Vehicle approaches intersection</text><rect x="716.342" y="276.431" width="371.002" height="94.248" fill="#FFF" style="stroke:#2E4053;stroke-width:0.938;" rx="23.438" ry="23.438"/><text x="735.092" y="317.806" fill="#000" font-size="24.375" textLength="333.502" font-family="Arial">Estimate crossing intention</text><text x="735.092" y="346.18" fill="#000" font-size="24.375" textLength="299.355" font-family="Arial">and select turn direction</text><rect x="713.849" y="408.179" width="375.989" height="94.248" fill="#FFF" style="stroke:#2E4053;stroke-width:0.938;" rx="23.438" ry="23.438"/><text x="732.599" y="449.554" fill="#000" font-size="24.375" textLength="295.868" font-family="Arial">Check traffic permission</text><text x="732.599" y="477.928" fill="#000" font-size="24.375" textLength="338.489" font-family="Arial">and intersection availability</text><rect x="728.66" y="539.927" width="346.365" height="65.874" fill="#FFF" style="stroke:#2E4053;stroke-width:0.938;" rx="23.438" ry="23.438"/><text x="747.41" y="581.302" fill="#000" font-size="24.375" textLength="308.865" font-family="Arial">Send reservation request</text><polygon points="778.016,643.301,1025.67,643.301,1048.17,665.801,1025.67,688.301,778.016,688.301,755.516,665.801,778.016,643.301" fill="#FFF" style="stroke:#2E4053;stroke-width:0.938;stroke-linejoin:miter;stroke-miterlimit:10;"/><text x="778.016" y="674.239" fill="#000" font-size="24.375" textLength="247.654" font-family="Arial">Emergency Vehicle?</text><text x="719.483" y="660.937" fill="#000" font-size="20.625" textLength="36.033" font-family="Arial">Yes</text><text x="1048.17" y="660.937" fill="#000" font-size="20.625" textLength="28.047" font-family="Arial">No</text><rect x="223.873" y="707.051" width="490.199" height="65.874" fill="#FFF" style="stroke:#2E4053;stroke-width:0.938;" rx="23.438" ry="23.438"/><text x="242.623" y="748.426" fill="#000" font-size="24.375" textLength="452.699" font-family="Arial">Execute emergency priority handling</text><polygon points="272.271,810.425,665.675,810.425,688.175,832.925,665.675,855.425,272.271,855.425,249.771,832.925,272.271,810.425" fill="#FFF" style="stroke:#2E4053;stroke-width:0.938;stroke-linejoin:miter;stroke-miterlimit:10;"/><text x="272.271" y="841.363" fill="#000" font-size="24.375" textLength="393.404" font-family="Arial">Intersection currently occupied?</text><text x="213.738" y="828.061" fill="#000" font-size="20.625" textLength="36.033" font-family="Arial">Yes</text><text x="688.175" y="828.061" fill="#000" font-size="20.625" textLength="28.047" font-family="Arial">No</text><rect x="30" y="874.175" width="402.042" height="65.874" fill="#FFF" style="stroke:#2E4053;stroke-width:0.938;" rx="23.438" ry="23.438"/><text x="48.75" y="915.55" fill="#000" font-size="24.375" textLength="364.542" font-family="Arial">Wait until intersection is clear</text><rect x="507.856" y="874.175" width="398.138" height="65.874" fill="#FFF" style="stroke:#2E4053;stroke-width:0.938;" rx="23.438" ry="23.438"/><text x="526.606" y="915.55" fill="#000" font-size="24.375" textLength="360.638" font-family="Arial">Grant emergency reservation</text><polygon points="468.973,951.299,491.473,973.799,468.973,996.299,446.473,973.799,468.973,951.299" fill="#FFF" style="stroke:#2E4053;stroke-width:0.938;stroke-linejoin:miter;stroke-miterlimit:10;"/><rect x="1135.055" y="707.051" width="399.316" height="65.874" fill="#FFF" style="stroke:#2E4053;stroke-width:0.938;" rx="23.438" ry="23.438"/><text x="1153.805" y="748.426" fill="#000" font-size="24.375" textLength="361.816" font-family="Arial">Check reservation availability</text><polygon points="1190.177,810.425,1479.249,810.425,1501.749,832.925,1479.249,855.425,1190.177,855.425,1167.677,832.925,1190.177,810.425" fill="#FFF" style="stroke:#2E4053;stroke-width:0.938;stroke-linejoin:miter;stroke-miterlimit:10;"/><text x="1190.177" y="841.363" fill="#000" font-size="24.375" textLength="289.072" font-family="Arial">Conflict zone available?</text><text x="1131.644" y="828.061" fill="#000" font-size="20.625" textLength="36.033" font-family="Arial">Yes</text><text x="1501.749" y="828.061" fill="#000" font-size="20.625" textLength="28.047" font-family="Arial">No</text><rect x="980.994" y="874.175" width="333.749" height="65.874" fill="#FFF" style="stroke:#2E4053;stroke-width:0.938;" rx="23.438" ry="23.438"/><text x="999.744" y="915.55" fill="#000" font-size="24.375" textLength="296.249" font-family="Arial">Allocate reservation slot</text><rect x="1021.425" y="1005.674" width="252.888" height="65.874" fill="#FFF" style="stroke:#2E4053;stroke-width:0.938;" rx="23.438" ry="23.438"/><text x="1040.175" y="1047.049" fill="#000" font-size="24.375" textLength="215.388" font-family="Arial">Grant reservation</text><rect x="1391.21" y="874.175" width="260.695" height="65.874" fill="#FFF" style="stroke:#2E4053;stroke-width:0.938;" rx="23.438" ry="23.438"/><text x="1409.96" y="915.55" fill="#000" font-size="24.375" textLength="223.195" font-family="Arial">Reject reservation</text><rect x="1352.243" y="1005.674" width="338.629" height="65.874" fill="#FFF" style="stroke:#2E4053;stroke-width:0.938;" rx="23.438" ry="23.438"/><text x="1370.993" y="1047.049" fill="#000" font-size="24.375" textLength="301.129" font-family="Arial">Vehicle waits and retries</text><polygon points="1334.713,1082.798,1357.213,1105.298,1334.713,1127.798,1312.213,1105.298,1334.713,1082.798" fill="#FFF" style="stroke:#2E4053;stroke-width:0.938;stroke-linejoin:miter;stroke-miterlimit:10;"/><polygon points="901.843,1139.048,924.343,1161.548,901.843,1184.048,879.343,1161.548,901.843,1139.048" fill="#FFF" style="stroke:#2E4053;stroke-width:0.938;stroke-linejoin:miter;stroke-miterlimit:10;"/><rect x="719.663" y="1221.548" width="364.361" height="65.874" fill="#FFF" style="stroke:#2E4053;stroke-width:0.938;" rx="23.438" ry="23.438"/><text x="738.413" y="1262.923" fill="#000" font-size="24.375" textLength="326.861" font-family="Arial">Vehicle enters intersection</text><rect x="707.725" y="1324.922" width="388.236" height="65.874" fill="#FFF" style="stroke:#2E4053;stroke-width:0.938;" rx="23.438" ry="23.438"/><text x="726.475" y="1366.297" fill="#000" font-size="24.375" textLength="350.736" font-family="Arial">Vehicle crosses conflict zone</text><rect x="735.813" y="1428.296" width="332.059" height="65.874" fill="#FFF" style="stroke:#2E4053;stroke-width:0.938;" rx="23.438" ry="23.438"/><text x="754.563" y="1469.671" fill="#000" font-size="24.375" textLength="294.559" font-family="Arial">Release reservation slot</text><rect x="678.75" y="1531.67" width="446.186" height="65.874" fill="#FFF" style="stroke:#2E4053;stroke-width:0.938;" rx="23.438" ry="23.438"/><text x="697.5" y="1573.045" fill="#000" font-size="24.375" textLength="408.686" font-family="Arial">Continue toward next destination</text><ellipse cx="901.843" cy="1655.669" rx="20.625" ry="20.625" fill="none" style="stroke:#222;stroke-width:1.875;"/><ellipse cx="901.843" cy="1655.669" rx="11.25" ry="11.25" fill="#222" style="stroke:#222;stroke-width:1.875;"/><line x1="901.843" y1="135.557" x2="901.843" y2="173.057" style="stroke:#2E4053;stroke-width:1.875;"/><polygon points="894.343,154.307,901.843,173.057,909.343,154.307,901.843,161.807" fill="#2E4053" style="stroke:#2E4053;stroke-width:1.875;stroke-linejoin:miter;stroke-miterlimit:10;"/><line x1="901.843" y1="238.931" x2="901.843" y2="276.431" style="stroke:#2E4053;stroke-width:1.875;"/><polygon points="894.343,257.681,901.843,276.431,909.343,257.681,901.843,265.181" fill="#2E4053" style="stroke:#2E4053;stroke-width:1.875;stroke-linejoin:miter;stroke-miterlimit:10;"/><line x1="901.843" y1="370.679" x2="901.843" y2="408.179" style="stroke:#2E4053;stroke-width:1.875;"/><polygon points="894.343,389.429,901.843,408.179,909.343,389.429,901.843,396.929" fill="#2E4053" style="stroke:#2E4053;stroke-width:1.875;stroke-linejoin:miter;stroke-miterlimit:10;"/><line x1="901.843" y1="502.427" x2="901.843" y2="539.927" style="stroke:#2E4053;stroke-width:1.875;"/><polygon points="894.343,521.177,901.843,539.927,909.343,521.177,901.843,528.677" fill="#2E4053" style="stroke:#2E4053;stroke-width:1.875;stroke-linejoin:miter;stroke-miterlimit:10;"/><line x1="249.771" y1="832.925" x2="231.021" y2="832.925" style="stroke:#2E4053;stroke-width:1.875;"/><line x1="231.021" y1="832.925" x2="231.021" y2="874.175" style="stroke:#2E4053;stroke-width:1.875;"/><polygon points="223.521,855.425,231.021,874.175,238.521,855.425,231.021,862.925" fill="#2E4053" style="stroke:#2E4053;stroke-width:1.875;stroke-linejoin:miter;stroke-miterlimit:10;"/><line x1="688.175" y1="832.925" x2="706.925" y2="832.925" style="stroke:#2E4053;stroke-width:1.875;"/><line x1="706.925" y1="832.925" x2="706.925" y2="874.175" style="stroke:#2E4053;stroke-width:1.875;"/><polygon points="699.425,855.425,706.925,874.175,714.425,855.425,706.925,862.925" fill="#2E4053" style="stroke:#2E4053;stroke-width:1.875;stroke-linejoin:miter;stroke-miterlimit:10;"/><line x1="231.021" y1="940.049" x2="231.021" y2="973.799" style="stroke:#2E4053;stroke-width:1.875;"/><line x1="231.021" y1="973.799" x2="446.473" y2="973.799" style="stroke:#2E4053;stroke-width:1.875;"/><polygon points="427.723,966.299,446.473,973.799,427.723,981.299,435.223,973.799" fill="#2E4053" style="stroke:#2E4053;stroke-width:1.875;stroke-linejoin:miter;stroke-miterlimit:10;"/><line x1="706.925" y1="940.049" x2="706.925" y2="973.799" style="stroke:#2E4053;stroke-width:1.875;"/><line x1="706.925" y1="973.799" x2="491.473" y2="973.799" style="stroke:#2E4053;stroke-width:1.875;"/><polygon points="510.223,966.299,491.473,973.799,510.223,981.299,502.723,973.799" fill="#2E4053" style="stroke:#2E4053;stroke-width:1.875;stroke-linejoin:miter;stroke-miterlimit:10;"/><line x1="468.973" y1="772.925" x2="468.973" y2="810.425" style="stroke:#2E4053;stroke-width:1.875;"/><polygon points="461.473,791.675,468.973,810.425,476.473,791.675,468.973,799.175" fill="#2E4053" style="stroke:#2E4053;stroke-width:1.875;stroke-linejoin:miter;stroke-miterlimit:10;"/><line x1="1147.868" y1="940.049" x2="1147.868" y2="1005.674" style="stroke:#2E4053;stroke-width:1.875;"/><polygon points="1140.368,986.924,1147.868,1005.674,1155.368,986.924,1147.868,994.424" fill="#2E4053" style="stroke:#2E4053;stroke-width:1.875;stroke-linejoin:miter;stroke-miterlimit:10;"/><line x1="1521.557" y1="940.049" x2="1521.557" y2="1005.674" style="stroke:#2E4053;stroke-width:1.875;"/><polygon points="1514.057,986.924,1521.557,1005.674,1529.057,986.924,1521.557,994.424" fill="#2E4053" style="stroke:#2E4053;stroke-width:1.875;stroke-linejoin:miter;stroke-miterlimit:10;"/><line x1="1167.677" y1="832.925" x2="1147.868" y2="832.925" style="stroke:#2E4053;stroke-width:1.875;"/><line x1="1147.868" y1="832.925" x2="1147.868" y2="874.175" style="stroke:#2E4053;stroke-width:1.875;"/><polygon points="1140.368,855.425,1147.868,874.175,1155.368,855.425,1147.868,862.925" fill="#2E4053" style="stroke:#2E4053;stroke-width:1.875;stroke-linejoin:miter;stroke-miterlimit:10;"/><line x1="1501.749" y1="832.925" x2="1521.557" y2="832.925" style="stroke:#2E4053;stroke-width:1.875;"/><line x1="1521.557" y1="832.925" x2="1521.557" y2="874.175" style="stroke:#2E4053;stroke-width:1.875;"/><polygon points="1514.057,855.425,1521.557,874.175,1529.057,855.425,1521.557,862.925" fill="#2E4053" style="stroke:#2E4053;stroke-width:1.875;stroke-linejoin:miter;stroke-miterlimit:10;"/><line x1="1147.868" y1="1071.548" x2="1147.868" y2="1105.298" style="stroke:#2E4053;stroke-width:1.875;"/><line x1="1147.868" y1="1105.298" x2="1312.213" y2="1105.298" style="stroke:#2E4053;stroke-width:1.875;"/><polygon points="1293.463,1097.798,1312.213,1105.298,1293.463,1112.798,1300.963,1105.298" fill="#2E4053" style="stroke:#2E4053;stroke-width:1.875;stroke-linejoin:miter;stroke-miterlimit:10;"/><line x1="1521.557" y1="1071.548" x2="1521.557" y2="1105.298" style="stroke:#2E4053;stroke-width:1.875;"/><line x1="1521.557" y1="1105.298" x2="1357.213" y2="1105.298" style="stroke:#2E4053;stroke-width:1.875;"/><polygon points="1375.963,1097.798,1357.213,1105.298,1375.963,1112.798,1368.463,1105.298" fill="#2E4053" style="stroke:#2E4053;stroke-width:1.875;stroke-linejoin:miter;stroke-miterlimit:10;"/><line x1="1334.713" y1="772.925" x2="1334.713" y2="810.425" style="stroke:#2E4053;stroke-width:1.875;"/><polygon points="1327.213,791.675,1334.713,810.425,1342.213,791.675,1334.713,799.175" fill="#2E4053" style="stroke:#2E4053;stroke-width:1.875;stroke-linejoin:miter;stroke-miterlimit:10;"/><line x1="755.516" y1="665.801" x2="468.973" y2="665.801" style="stroke:#2E4053;stroke-width:1.875;"/><line x1="468.973" y1="665.801" x2="468.973" y2="707.051" style="stroke:#2E4053;stroke-width:1.875;"/><polygon points="461.473,688.301,468.973,707.051,476.473,688.301,468.973,695.801" fill="#2E4053" style="stroke:#2E4053;stroke-width:1.875;stroke-linejoin:miter;stroke-miterlimit:10;"/><line x1="1048.17" y1="665.801" x2="1334.713" y2="665.801" style="stroke:#2E4053;stroke-width:1.875;"/><line x1="1334.713" y1="665.801" x2="1334.713" y2="707.051" style="stroke:#2E4053;stroke-width:1.875;"/><polygon points="1327.213,688.301,1334.713,707.051,1342.213,688.301,1334.713,695.801" fill="#2E4053" style="stroke:#2E4053;stroke-width:1.875;stroke-linejoin:miter;stroke-miterlimit:10;"/><line x1="468.973" y1="996.299" x2="468.973" y2="1161.548" style="stroke:#2E4053;stroke-width:1.875;"/><line x1="468.973" y1="1161.548" x2="879.343" y2="1161.548" style="stroke:#2E4053;stroke-width:1.875;"/><polygon points="860.593,1154.048,879.343,1161.548,860.593,1169.048,868.093,1161.548" fill="#2E4053" style="stroke:#2E4053;stroke-width:1.875;stroke-linejoin:miter;stroke-miterlimit:10;"/><line x1="1334.713" y1="1127.798" x2="1334.713" y2="1161.548" style="stroke:#2E4053;stroke-width:1.875;"/><line x1="1334.713" y1="1161.548" x2="924.343" y2="1161.548" style="stroke:#2E4053;stroke-width:1.875;"/><polygon points="943.093,1154.048,924.343,1161.548,943.093,1169.048,935.593,1161.548" fill="#2E4053" style="stroke:#2E4053;stroke-width:1.875;stroke-linejoin:miter;stroke-miterlimit:10;"/><line x1="901.843" y1="605.801" x2="901.843" y2="643.301" style="stroke:#2E4053;stroke-width:1.875;"/><polygon points="894.343,624.551,901.843,643.301,909.343,624.551,901.843,632.051" fill="#2E4053" style="stroke:#2E4053;stroke-width:1.875;stroke-linejoin:miter;stroke-miterlimit:10;"/><line x1="901.843" y1="1184.048" x2="901.843" y2="1221.548" style="stroke:#2E4053;stroke-width:1.875;"/><polygon points="894.343,1202.798,901.843,1221.548,909.343,1202.798,901.843,1210.298" fill="#2E4053" style="stroke:#2E4053;stroke-width:1.875;stroke-linejoin:miter;stroke-miterlimit:10;"/><line x1="901.843" y1="1287.422" x2="901.843" y2="1324.922" style="stroke:#2E4053;stroke-width:1.875;"/><polygon points="894.343,1306.172,901.843,1324.922,909.343,1306.172,901.843,1313.672" fill="#2E4053" style="stroke:#2E4053;stroke-width:1.875;stroke-linejoin:miter;stroke-miterlimit:10;"/><line x1="901.843" y1="1390.796" x2="901.843" y2="1428.296" style="stroke:#2E4053;stroke-width:1.875;"/><polygon points="894.343,1409.546,901.843,1428.296,909.343,1409.546,901.843,1417.046" fill="#2E4053" style="stroke:#2E4053;stroke-width:1.875;stroke-linejoin:miter;stroke-miterlimit:10;"/><line x1="901.843" y1="1494.17" x2="901.843" y2="1531.67" style="stroke:#2E4053;stroke-width:1.875;"/><polygon points="894.343,1512.92,901.843,1531.67,909.343,1512.92,901.843,1520.42" fill="#2E4053" style="stroke:#2E4053;stroke-width:1.875;stroke-linejoin:miter;stroke-miterlimit:10;"/><line x1="901.843" y1="1597.544" x2="901.843" y2="1635.044" style="stroke:#2E4053;stroke-width:1.875;"/><polygon points="894.343,1616.294,901.843,1635.044,909.343,1616.294,901.843,1623.794" fill="#2E4053" style="stroke:#2E4053;stroke-width:1.875;stroke-linejoin:miter;stroke-miterlimit:10;"/><?plantuml-src TLHDRnD13Btlhx34fJqWjNn8g3sW4WBYKg5MeaBYuivwioQJyUBnDaqH_ntl9akdJSWbYlqyVk_vASOM2QueazwXiIIu4LqsKTRm4hua8yqKnlfCH6jEMz1NbK0vLrLUSkfGSGMvnLhMd1RGOCnKT6unB1SgVQfd4aLXtRAL_RfZE7rtKbQemJxQ9qbsYIk22sMCHJzo8jjq1ABMIia2dUmTsmP-L-2V3mTNZnrNGxgjldWrVtFozlLOlr2LzNvve7BD3mIdZx-tgDleEyRQHyQLfFh_EoV0WTL_N8IXMbMTVQEMWny5kqu5GqiPk3Z4kKFcsNY5HX1KSXuy7n1fQFz8c6h851qDrck2clLnSjPIM88fDWq7w4XNx0zCO-KUm3laYBSStSvXz9eSeKLIb7xrbCrxtC3HV4Mwe1Gsi1Fm_XYifGH7toaVLwC1P_Dx2htpfd_WJbbqE5Zh1FokY_CjT7ZoIVv2h-eIumOaXBvZgWyi69VS81lqxaPyAeWpE2tKtGRobCBHfPIZdnMJ5UmAkTDKghcfgcV3ErzBTvxPDscQIMeY-sqU9D44EcZM-Ev5Z1A6IvTFvoXsliVw0DS32g_evv2CVV3OdRAtTWipu7XmKwRyJFtswp6hDFgybzEfFSRKSnnAyGFWodEA-Q2wCtVAEFK49clK6XBTc_ypUFJJn3kRT7y1?></g></svg>