<svg xmlns="http://www.w3.org/2000/svg" xmlns:xlink="http://www.w3.org/1999/xlink" version="1.1" data-diagram-type="DESCRIPTION" style="width:1612px;height:1179px;background:#FFFFFF;" width="1612.5px" height="1179.375px" viewBox="0 0 1612 1179" zoomAndPan="magnify" preserveAspectRatio="none" contentStyleType="text/css"><?plantuml 1.2026.7beta8?><defs/><g font-family="sans-serif" lengthAdjust="spacing"><g class="title" data-source-line="1"><text x="344.794" y="43.116" fill="#000" font-size="26.25" textLength="910.329" font-weight="700" font-family="Arial">Simulation Software Architecture and Component Interaction</text></g><!--cluster Core Simulation Layer--><g class="cluster" data-qualified-name="Core Simulation Layer" id="ent0002" data-source-line="25"><path d="M66.563,81.182 L395.986,81.182 A7.031,7.031 0 0 1 400.673,85.869 L413.798,122.988 L1054.688,122.988 A4.688,4.688 0 0 1 1059.375,127.676 L1059.375,553.175 A4.688,4.688 0 0 1 1054.688,557.863 L66.563,557.863 A4.688,4.688 0 0 1 61.875,553.175 L61.875,85.869 A4.688,4.688 0 0 1 66.563,81.182" style="stroke:#000;stroke-width:2.813;" fill="none"/><line x1="61.875" y1="122.988" x2="413.798" y2="122.988" style="stroke:#000;stroke-width:2.813;"/><text x="69.375" y="109.297" fill="#000" font-size="26.25" textLength="327.548" font-weight="700" font-family="Arial">Core Simulation Layer</text></g><!--cluster Coordination Layer--><g class="cluster" data-qualified-name="Coordination Layer" id="ent0007" data-source-line="37"><path d="M94.688,602.863 L378.737,602.863 A7.031,7.031 0 0 1 383.425,607.55 L396.55,644.67 L486.563,644.67 A4.688,4.688 0 0 1 491.25,649.357 L491.25,1146.875 A4.688,4.688 0 0 1 486.563,1151.563 L94.688,1151.563 A4.688,4.688 0 0 1 90,1146.875 L90,607.55 A4.688,4.688 0 0 1 94.688,602.863" style="stroke:#000;stroke-width:2.813;" fill="none"/><line x1="90" y1="644.67" x2="396.55" y2="644.67" style="stroke:#000;stroke-width:2.813;"/><text x="97.5" y="630.979" fill="#000" font-size="26.25" textLength="282.175" font-weight="700" font-family="Arial">Coordination Layer</text></g><!--cluster Evaluation Layer--><g class="cluster" data-qualified-name="Evaluation Layer" id="ent0010" data-source-line="45"><path d="M1109.063,297.932 L1358.8,297.932 A7.031,7.031 0 0 1 1363.488,302.619 L1376.613,339.738 L1463.438,339.738 A4.688,4.688 0 0 1 1468.125,344.426 L1468.125,858.088 A4.688,4.688 0 0 1 1463.438,862.775 L1109.063,862.775 A4.688,4.688 0 0 1 1104.375,858.088 L1104.375,302.619 A4.688,4.688 0 0 1 1109.063,297.932" style="stroke:#000;stroke-width:2.813;" fill="none"/><line x1="1104.375" y1="339.738" x2="1376.613" y2="339.738" style="stroke:#000;stroke-width:2.813;"/><text x="1111.875" y="326.047" fill="#000" font-size="26.25" textLength="247.863" font-weight="700" font-family="Arial">Evaluation Layer</text></g><!--entity SIM--><g class="entity" data-qualified-name="Core Simulation Layer.SIM" id="ent0003" data-source-line="27"><rect x="725.438" y="146.807" width="304.111" height="104.268" fill="#FFF" style="stroke:#2E4053;stroke-width:0.938;" rx="4.688" ry="4.688"/><rect x="992.048" y="156.182" width="28.125" height="18.75" fill="#FFF" style="stroke:#2E4053;stroke-width:0.938;"/><rect x="988.298" y="159.932" width="7.5" height="3.75" fill="#FFF" style="stroke:#2E4053;stroke-width:0.938;"/><rect x="988.298" y="167.432" width="7.5" height="3.75" fill="#FFF" style="stroke:#2E4053;stroke-width:0.938;"/><text x="753.563" y="203.451" fill="#000" font-size="20.625" textLength="229.111" font-family="Arial">Environment Manager</text><text x="753.563" y="227.46" fill="#000" font-size="20.625" textLength="54.402" font-family="Arial">(Env)</text></g><!--entity INT--><g class="entity" data-qualified-name="Core Simulation Layer.INT" id="ent0004" data-source-line="29"><rect x="91.913" y="375.575" width="266.174" height="152.285" fill="#FFF" style="stroke:#2E4053;stroke-width:0.938;" rx="4.688" ry="4.688"/><rect x="320.587" y="384.95" width="28.125" height="18.75" fill="#FFF" style="stroke:#2E4053;stroke-width:0.938;"/><rect x="316.837" y="388.7" width="7.5" height="3.75" fill="#FFF" style="stroke:#2E4053;stroke-width:0.938;"/><rect x="316.837" y="396.2" width="7.5" height="3.75" fill="#FFF" style="stroke:#2E4053;stroke-width:0.938;"/><text x="120.038" y="432.22" fill="#000" font-size="20.625" textLength="191.174" font-family="Arial">Intersection Model</text><text x="120.038" y="456.229" fill="#000" font-size="20.625" font-family="Arial"> </text><text x="120.038" y="480.238" fill="#000" font-size="20.625" textLength="122.693" font-family="Arial">Intersection</text><text x="120.038" y="504.246" fill="#000" font-size="20.625" textLength="134.083" font-family="Arial">Traffic Lights</text></g><!--entity VEH--><g class="entity" data-qualified-name="Core Simulation Layer.VEH" id="ent0005" data-source-line="31"><rect x="442.519" y="387.575" width="228.711" height="128.276" fill="#FFF" style="stroke:#2E4053;stroke-width:0.938;" rx="4.688" ry="4.688"/><rect x="633.729" y="396.95" width="28.125" height="18.75" fill="#FFF" style="stroke:#2E4053;stroke-width:0.938;"/><rect x="629.979" y="400.7" width="7.5" height="3.75" fill="#FFF" style="stroke:#2E4053;stroke-width:0.938;"/><rect x="629.979" y="408.2" width="7.5" height="3.75" fill="#FFF" style="stroke:#2E4053;stroke-width:0.938;"/><text x="470.644" y="444.22" fill="#000" font-size="20.625" textLength="143.841" font-family="Arial">Vehicle Model</text><text x="470.644" y="468.229" fill="#000" font-size="20.625" font-family="Arial"> </text><text x="470.644" y="492.238" fill="#000" font-size="20.625" textLength="153.711" font-family="Arial">Vehicle Agents</text></g><!--entity PED--><g class="entity" data-qualified-name="Core Simulation Layer.PED" id="ent0006" data-source-line="33"><rect x="755.588" y="387.575" width="273.818" height="128.276" fill="#FFF" style="stroke:#2E4053;stroke-width:0.938;" rx="4.688" ry="4.688"/><rect x="991.905" y="396.95" width="28.125" height="18.75" fill="#FFF" style="stroke:#2E4053;stroke-width:0.938;"/><rect x="988.155" y="400.7" width="7.5" height="3.75" fill="#FFF" style="stroke:#2E4053;stroke-width:0.938;"/><rect x="988.155" y="408.2" width="7.5" height="3.75" fill="#FFF" style="stroke:#2E4053;stroke-width:0.938;"/><text x="783.713" y="444.22" fill="#000" font-size="20.625" textLength="178.142" font-family="Arial">Pedestrian Model</text><text x="783.713" y="468.229" fill="#000" font-size="20.625" font-family="Arial"> </text><text x="783.713" y="492.238" fill="#000" font-size="20.625" textLength="198.818" font-family="Arial">Dynamic Obstacles</text></g><!--entity RES--><g class="entity" data-qualified-name="Coordination Layer.RES" id="ent0008" data-source-line="39"><rect x="129.225" y="668.488" width="300.294" height="176.294" fill="#FFF" style="stroke:#2E4053;stroke-width:0.938;" rx="4.688" ry="4.688"/><rect x="392.019" y="677.863" width="28.125" height="18.75" fill="#FFF" style="stroke:#2E4053;stroke-width:0.938;"/><rect x="388.269" y="681.613" width="7.5" height="3.75" fill="#FFF" style="stroke:#2E4053;stroke-width:0.938;"/><rect x="388.269" y="689.113" width="7.5" height="3.75" fill="#FFF" style="stroke:#2E4053;stroke-width:0.938;"/><text x="157.35" y="725.132" fill="#000" font-size="20.625" textLength="220.248" font-family="Arial">Reservation Manager</text><text x="157.35" y="749.141" fill="#000" font-size="20.625" font-family="Arial"> </text><text x="157.35" y="773.15" fill="#000" font-size="20.625" textLength="225.294" font-family="Arial">Reservation Requests</text><text x="157.35" y="797.159" fill="#000" font-size="20.625" textLength="195.877" font-family="Arial">Conflict Prevention</text><text x="157.35" y="821.168" fill="#000" font-size="20.625" textLength="184.034" font-family="Arial">Resource Release</text></g><!--entity CTRL--><g class="entity" data-qualified-name="Coordination Layer.CTRL" id="ent0009" data-source-line="41"><rect x="120.694" y="969.275" width="339.852" height="152.285" fill="#FFF" style="stroke:#2E4053;stroke-width:0.938;" rx="4.688" ry="4.688"/><rect x="423.046" y="978.65" width="28.125" height="18.75" fill="#FFF" style="stroke:#2E4053;stroke-width:0.938;"/><rect x="419.296" y="982.4" width="7.5" height="3.75" fill="#FFF" style="stroke:#2E4053;stroke-width:0.938;"/><rect x="419.296" y="989.9" width="7.5" height="3.75" fill="#FFF" style="stroke:#2E4053;stroke-width:0.938;"/><text x="148.819" y="1025.92" fill="#000" font-size="20.625" textLength="264.852" font-family="Arial">Traffic Coordination Logic</text><text x="148.819" y="1049.929" fill="#000" font-size="20.625" font-family="Arial"> </text><text x="148.819" y="1073.938" fill="#000" font-size="20.625" textLength="113.981" font-family="Arial">Scheduling</text><text x="148.819" y="1097.946" fill="#000" font-size="20.625" textLength="172.261" font-family="Arial">Priority Handling</text></g><!--entity MET--><g class="entity" data-qualified-name="Evaluation Layer.MET" id="ent0011" data-source-line="47"><rect x="1145.775" y="363.557" width="258.44" height="176.294" fill="#FFF" style="stroke:#2E4053;stroke-width:0.938;" rx="4.688" ry="4.688"/><rect x="1366.715" y="372.932" width="28.125" height="18.75" fill="#FFF" style="stroke:#2E4053;stroke-width:0.938;"/><rect x="1362.965" y="376.682" width="7.5" height="3.75" fill="#FFF" style="stroke:#2E4053;stroke-width:0.938;"/><rect x="1362.965" y="384.182" width="7.5" height="3.75" fill="#FFF" style="stroke:#2E4053;stroke-width:0.938;"/><text x="1173.9" y="420.201" fill="#000" font-size="20.625" textLength="183.44" font-family="Arial">Metrics Collection</text><text x="1173.9" y="444.21" fill="#000" font-size="20.625" font-family="Arial"> </text><text x="1173.9" y="468.219" fill="#000" font-size="20.625" textLength="122.008" font-family="Arial">Travel Time</text><text x="1173.9" y="492.228" fill="#000" font-size="20.625" textLength="136.409" font-family="Arial">Waiting Time</text><text x="1173.9" y="516.236" fill="#000" font-size="20.625" textLength="97.123" font-family="Arial">Collisions</text></g><!--entity RUN--><g class="entity" data-qualified-name="Evaluation Layer.RUN" id="ent0012" data-source-line="49"><rect x="1134.956" y="680.488" width="302.57" height="152.285" fill="#FFF" style="stroke:#2E4053;stroke-width:0.938;" rx="4.688" ry="4.688"/><rect x="1400.026" y="689.863" width="28.125" height="18.75" fill="#FFF" style="stroke:#2E4053;stroke-width:0.938;"/><rect x="1396.276" y="693.613" width="7.5" height="3.75" fill="#FFF" style="stroke:#2E4053;stroke-width:0.938;"/><rect x="1396.276" y="701.113" width="7.5" height="3.75" fill="#FFF" style="stroke:#2E4053;stroke-width:0.938;"/><text x="1163.081" y="737.132" fill="#000" font-size="20.625" textLength="170.932" font-family="Arial">Scenario Runner</text><text x="1163.081" y="761.141" fill="#000" font-size="20.625" font-family="Arial"> </text><text x="1163.081" y="785.15" fill="#000" font-size="20.625" textLength="227.57" font-family="Arial">Experiment Execution</text><text x="1163.081" y="809.159" fill="#000" font-size="20.625" textLength="184.91" font-family="Arial">Comparison Tests</text></g><!--entity ENV--><g class="entity" data-qualified-name="ENV" id="ent0001" data-source-line="22"><rect x="1263.225" y="957.275" width="323.568" height="176.294" fill="#FFF" style="stroke:#2E4053;stroke-width:0.938;" rx="4.688" ry="4.688"/><rect x="1549.293" y="966.65" width="28.125" height="18.75" fill="#FFF" style="stroke:#2E4053;stroke-width:0.938;"/><rect x="1545.543" y="970.4" width="7.5" height="3.75" fill="#FFF" style="stroke:#2E4053;stroke-width:0.938;"/><rect x="1545.543" y="977.9" width="7.5" height="3.75" fill="#FFF" style="stroke:#2E4053;stroke-width:0.938;"/><text x="1291.35" y="1013.92" fill="#000" font-size="20.625" textLength="248.568" font-family="Arial">Simulation Environment</text><text x="1291.35" y="1037.929" fill="#000" font-size="20.625" font-family="Arial"> </text><text x="1291.35" y="1061.938" fill="#000" font-size="20.625" textLength="195.192" font-family="Arial">Grid Road Network</text><text x="1291.35" y="1085.946" fill="#000" font-size="20.625" textLength="167.528" font-family="Arial">Simulation Time</text><text x="1291.35" y="1109.955" fill="#000" font-size="20.625" textLength="236.09" font-family="Arial">Scenario Configuration</text></g><!--link ENV to SIM--><g class="link" data-entity-1="ent0001" data-entity-2="ent0003" id="lnk13" data-source-line="54" data-link-type="dependency"><path d="M1512.15,957.088 C1512.15,737.094 1512.15,182.188 1512.15,182.188 C1512.15,182.188 1227.488,182.188 1039.706,182.188" style="stroke:#2E4053;stroke-width:1.875;" fill="none" id="ENV-to-SIM"/><polygon points="1030.331,182.188,1047.206,189.688,1039.706,182.188,1047.206,174.688,1030.331,182.188" fill="#2E4053" style="stroke:#2E4053;stroke-width:1.875;stroke-linejoin:miter;stroke-miterlimit:10;"/><text x="1298.4" y="353.22" fill="#000" font-size="24.375" textLength="212.948" font-family="Arial">Initialize scenario</text></g><!--link SIM to INT--><g class="link" data-entity-1="ent0003" data-entity-2="ent0004" id="lnk14" data-source-line="57" data-link-type="dependency"><path d="M724.519,199.063 C531.656,199.063 225,199.063 225,199.063 C225,199.063 225,291.482 225,365.844" style="stroke:#2E4053;stroke-width:1.875;" fill="none" id="SIM-to-INT"/><polygon points="225,375.219,232.5,358.344,225,365.844,217.5,358.344,225,375.219" fill="#2E4053" style="stroke:#2E4053;stroke-width:1.875;stroke-linejoin:miter;stroke-miterlimit:10;"/><text x="227.306" y="191.688" fill="#000" font-size="24.375" textLength="157.771" font-family="Arial">Update state</text></g><!--link SIM to VEH--><g class="link" data-entity-1="ent0003" data-entity-2="ent0005" id="lnk15" data-source-line="59" data-link-type="dependency"><path d="M740.513,251.413 C740.513,325.588 740.513,452.188 740.513,452.188 C740.513,452.188 718.406,452.188 681.506,452.188" style="stroke:#2E4053;stroke-width:1.875;" fill="none" id="SIM-to-VEH"/><polygon points="672.131,452.188,689.006,459.688,681.506,452.188,689.006,444.688,672.131,452.188" fill="#2E4053" style="stroke:#2E4053;stroke-width:1.875;stroke-linejoin:miter;stroke-miterlimit:10;"/><text x="581.138" y="378.607" fill="#000" font-size="24.375" textLength="157.771" font-family="Arial">Update state</text></g><!--link SIM to PED--><g class="link" data-entity-1="ent0003" data-entity-2="ent0006" id="lnk16" data-source-line="61" data-link-type="dependency"><path d="M892.5,251.919 C892.5,291.294 892.5,335.844 892.5,377.75" style="stroke:#2E4053;stroke-width:1.875;" fill="none" id="SIM-to-PED"/><polygon points="892.5,387.125,900,370.25,892.5,377.75,885,370.25,892.5,387.125" fill="#2E4053" style="stroke:#2E4053;stroke-width:1.875;stroke-linejoin:miter;stroke-miterlimit:10;"/><text x="733.125" y="312.157" fill="#000" font-size="24.375" textLength="157.771" font-family="Arial">Update state</text></g><!--link VEH to RES--><g class="link" data-entity-1="ent0005" data-entity-2="ent0008" id="lnk17" data-source-line="64" data-link-type="dependency"><path d="M448.538,516.632 C448.538,606.482 448.538,757.813 448.538,757.813 C448.538,757.813 450.919,757.813 439.8,757.813" style="stroke:#2E4053;stroke-width:1.875;" fill="none" id="VEH-to-RES"/><polygon points="430.425,757.813,447.3,765.313,439.8,757.813,447.3,750.313,430.425,757.813" fill="#2E4053" style="stroke:#2E4053;stroke-width:1.875;stroke-linejoin:miter;stroke-miterlimit:10;"/><text x="450.413" y="638.895" fill="#000" font-size="24.375" textLength="246.642" font-family="Arial">Reservation request</text></g><!--link RES to INT--><g class="link" data-entity-1="ent0008" data-entity-2="ent0004" id="lnk18" data-source-line="66" data-link-type="dependency"><path d="M281.794,667.607 C281.794,623.488 281.794,580.119 281.794,537.8" style="stroke:#2E4053;stroke-width:1.875;" fill="none" id="RES-to-INT"/><polygon points="281.794,528.425,274.294,545.3,281.794,537.8,289.294,545.3,281.794,528.425" fill="#2E4053" style="stroke:#2E4053;stroke-width:1.875;stroke-linejoin:miter;stroke-miterlimit:10;"/><text x="283.669" y="590.651" fill="#000" font-size="24.375" textLength="196.714" font-family="Arial">Validate conflict</text></g><!--link INT to RES--><g class="link" data-entity-1="ent0004" data-entity-2="ent0008" id="lnk19" data-source-line="68" data-link-type="dependency"><path d="M205.519,528.65 C205.519,570.988 205.519,614.357 205.519,658.438" style="stroke:#2E4053;stroke-width:1.875;" fill="none" id="INT-to-RES"/><polygon points="205.519,667.813,213.019,650.938,205.519,658.438,198.019,650.938,205.519,667.813" fill="#2E4053" style="stroke:#2E4053;stroke-width:1.875;stroke-linejoin:miter;stroke-miterlimit:10;"/><text x="70.519" y="590.857" fill="#000" font-size="24.375" textLength="134.289" font-family="Arial">Availability</text></g><!--link RES to CTRL--><g class="link" data-entity-1="ent0008" data-entity-2="ent0009" id="lnk20" data-source-line="71" data-link-type="dependency"><path d="M279.375,845.638 C279.375,884.9 279.375,921.257 279.375,959.038" style="stroke:#2E4053;stroke-width:1.875;" fill="none" id="RES-to-CTRL"/><polygon points="279.375,968.413,286.875,951.538,279.375,959.038,271.875,951.538,279.375,968.413" fill="#2E4053" style="stroke:#2E4053;stroke-width:1.875;stroke-linejoin:miter;stroke-miterlimit:10;"/><text x="13.125" y="899.651" fill="#000" font-size="24.375" textLength="264.412" font-family="Arial">Coordination decision</text></g><!--link CTRL to VEH--><g class="link" data-entity-1="ent0009" data-entity-2="ent0005" id="lnk21" data-source-line="73" data-link-type="dependency"><path d="M454.537,968.413 C454.537,850.438 454.537,636.463 454.537,526.119" style="stroke:#2E4053;stroke-width:1.875;" fill="none" id="CTRL-to-VEH"/><polygon points="454.537,516.744,447.037,533.619,454.537,526.119,462.037,533.619,454.537,516.744" fill="#2E4053" style="stroke:#2E4053;stroke-width:1.875;stroke-linejoin:miter;stroke-miterlimit:10;"/><text x="456.412" y="735.195" fill="#000" font-size="24.375" textLength="270.398" font-family="Arial">Movement permission</text></g><!--link SIM to MET--><g class="link" data-entity-1="ent0003" data-entity-2="ent0011" id="lnk22" data-source-line="76" data-link-type="dependency"><path d="M1030.05,217.813 C1142.138,217.813 1275,217.813 1275,217.813 C1275,217.813 1275,287.675 1275,353.9" style="stroke:#2E4053;stroke-width:1.875;" fill="none" id="SIM-to-MET"/><polygon points="1275,363.275,1282.5,346.4,1275,353.9,1267.5,346.4,1275,363.275" fill="#2E4053" style="stroke:#2E4053;stroke-width:1.875;stroke-linejoin:miter;stroke-miterlimit:10;"/><text x="1032.131" y="210.438" fill="#000" font-size="24.375" textLength="192.489" font-family="Arial">Simulation data</text></g><!--link MET to RUN--><g class="link" data-entity-1="ent0011" data-entity-2="ent0012" id="lnk23" data-source-line="78" data-link-type="dependency"><path d="M1275,540.725 C1275,584.844 1275,628.213 1275,670.532" style="stroke:#2E4053;stroke-width:1.875;" fill="none" id="MET-to-RUN"/><polygon points="1275,679.907,1282.5,663.032,1275,670.532,1267.5,663.032,1275,679.907" fill="#2E4053" style="stroke:#2E4053;stroke-width:1.875;stroke-linejoin:miter;stroke-miterlimit:10;"/><text x="1185" y="602.951" fill="#000" font-size="24.375" textLength="89.109" font-family="Arial">Results</text></g><!--link RUN to ENV--><g class="link" data-entity-1="ent0012" data-entity-2="ent0001" id="lnk24" data-source-line="80" data-link-type="dependency"><path d="M1350.375,833.263 C1350.375,871.194 1350.375,907.813 1350.375,947.282" style="stroke:#2E4053;stroke-width:1.875;" fill="none" id="RUN-to-ENV"/><polygon points="1350.375,956.657,1357.875,939.782,1350.375,947.282,1342.875,939.782,1350.375,956.657" fill="#2E4053" style="stroke:#2E4053;stroke-width:1.875;stroke-linejoin:miter;stroke-miterlimit:10;"/><text x="1232.25" y="887.576" fill="#000" font-size="24.375" textLength="117.412" font-family="Arial">Feedback</text></g><?plantuml-src XLJ1RXen4BtxAonwQG-LaZQfgXmgKR9f8WMAWD3BNWRli5XuxQtjNKAh_dl7NW96soeSa7RUpFZDl6TxwHNokQmQ1LuQpUTcxNTWaG-js4YFmZVq0RhW8rFLHgFs_45xj212FcFUrDmRlZBUcueNqk81S5kfQx1GSRU1mkoaBlaQbCC4MO7ObjOqkXWPPIpVXICJlAWbl_nyaKPm3OtoTqRx2LI1fWILu4fgzFiQkR5-Or8MsXJeiEPNrqdGWjw6uAUBD5KSH_tDEFs-_fDcH8mjq7RHDn-ogulhZp4-jDRi-k50Uov_8R-yP7yOOwU31ea6cMwbDRgYUAvp_StAWiyC57o2VcViDjT9ya9MI0616gmqf99UoxAn4HnmS3oRBEcacaQ04lbWPEoPu8-mHpkWGIF1X532Wez1Kx7DzLkAlejjvm_ZNaaqXkiCmCUqRnNufz5SBooirrBmHrbkl8kj7YQBNgibRgGWQnwxl0I69U5TtJAxxzLDaLJsP8g4mErUGqL7Vbyv3zIZgvvcjr63P3CafjIlh6L69h9jbtHSIwxJy0n_DaJ2vJgeeQJmV6gnfVAu0KerZHL8UGh1OMGpo-QzervMTKxCb5A44-TYWqL3VYzpFINfhVHxVaytDOHYpz5YzdW-OjQ2QbuPS8oqFa7LHgaNqQ9iBQg3stw0zE4wTryXKJhAw_Owplfg7kqvQxJk5fOzrsXbT5VsZABf3WgF32MwOEommcutJvCu1YChy_VllmJlyHjwXeW5g72TtA4_vGGiv92fAEUfBi0Jxkd_X95n_ekHBNeO2mK199K8JBMsdTQC1UXqxf9unGxYu0360d3gCMn1AbX9HQgnKtMGZD0pnGiKSRsCHVGqmDYq61T8cwoawtAEWv0Eb9FSTE83Z8LmfF4qwKQXrzGH0VeCuR3Y6tw7M8It-Iy0?></g></svg>