<svg xmlns="http://www.w3.org/2000/svg" xmlns:xlink="http://www.w3.org/1999/xlink" version="1.1" data-diagram-type="ACTIVITY" style="width:2400px;height:1413px;background:#FFFFFF;" width="2400px" height="1413.75px" viewBox="0 0 2400 1413" zoomAndPan="magnify" preserveAspectRatio="none" contentStyleType="text/css"><?plantuml 1.2026.7beta8?><defs/><g font-family="sans-serif" lengthAdjust="spacing"><g class="title" data-source-line="1"><text x="912.078" y="61.866" fill="#000" font-size="26.25" textLength="573.168" font-weight="700" font-family="Arial">Reservation Manager Activity Diagram</text></g><ellipse cx="1042.445" cy="116.807" rx="18.75" ry="18.75" fill="#222" style="stroke:#222;stroke-width:1.875;"/><rect x="844.781" y="173.057" width="395.329" height="65.874" fill="#FFF" style="stroke:#2E4053;stroke-width:0.938;" rx="23.438" ry="23.438"/><text x="863.531" y="214.432" fill="#000" font-size="24.375" textLength="357.829" font-family="Arial">Receive Reservation Request</text><polygon points="918.618,276.431,1166.272,276.431,1188.772,298.931,1166.272,321.431,918.618,321.431,896.118,298.931,918.618,276.431" fill="#FFF" style="stroke:#2E4053;stroke-width:0.938;stroke-linejoin:miter;stroke-miterlimit:10;"/><text x="918.618" y="307.369" fill="#000" font-size="24.375" textLength="247.654" font-family="Arial">Emergency Vehicle?</text><text x="860.085" y="294.066" fill="#000" font-size="20.625" textLength="36.033" font-family="Arial">Yes</text><text x="1188.772" y="294.066" fill="#000" font-size="20.625" textLength="28.047" font-family="Arial">No</text><rect x="333.224" y="340.181" width="302.031" height="65.874" fill="#FFF" style="stroke:#2E4053;stroke-width:0.938;" rx="23.438" ry="23.438"/><text x="351.974" y="381.556" fill="#000" font-size="24.375" textLength="264.531" font-family="Arial">Execute force_grant()</text><polygon points="365.524,471.68,602.954,471.68,625.454,500.054,602.954,528.428,365.524,528.428,343.024,500.054,365.524,471.68" fill="#FFF" style="stroke:#2E4053;stroke-width:0.938;stroke-linejoin:miter;stroke-miterlimit:10;"/><text x="365.524" y="494.305" fill="#000" font-size="24.375" textLength="206.902" font-family="Arial">Vehicle currently</text><text x="365.524" y="522.679" fill="#000" font-size="24.375" textLength="237.43" font-family="Arial">inside intersection?</text><text x="306.991" y="495.19" fill="#000" font-size="20.625" textLength="36.033" font-family="Arial">Yes</text><text x="625.454" y="495.19" fill="#000" font-size="20.625" textLength="28.047" font-family="Arial">No</text><rect x="51.34" y="547.178" width="359.362" height="65.874" fill="#FFF" style="stroke:#2E4053;stroke-width:0.938;" rx="23.438" ry="23.438"/><text x="70.09" y="588.553" fill="#000" font-size="24.375" textLength="321.862" font-family="Arial">Reject temporary override</text><rect x="30" y="678.677" width="402.042" height="65.874" fill="#FFF" style="stroke:#2E4053;stroke-width:0.938;" rx="23.438" ry="23.438"/><text x="48.75" y="720.052" fill="#000" font-size="24.375" textLength="364.542" font-family="Arial">Wait until intersection is clear</text><rect x="561.621" y="547.178" width="351.673" height="65.874" fill="#FFF" style="stroke:#2E4053;stroke-width:0.938;" rx="23.438" ry="23.438"/><text x="580.371" y="588.553" fill="#000" font-size="24.375" textLength="314.173" font-family="Arial">Clear existing reservation</text><rect x="469.542" y="678.677" width="535.831" height="65.874" fill="#FFF" style="stroke:#2E4053;stroke-width:0.938;" rx="23.438" ry="23.438"/><text x="488.292" y="720.052" fill="#000" font-size="24.375" textLength="498.331" font-family="Arial">Assign reservation to emergency vehicle</text><rect x="611.013" y="810.176" width="252.888" height="65.874" fill="#FFF" style="stroke:#2E4053;stroke-width:0.938;" rx="23.438" ry="23.438"/><text x="629.763" y="851.551" fill="#000" font-size="24.375" textLength="215.388" font-family="Arial">Grant reservation</text><polygon points="484.239,887.3,506.739,909.8,484.239,932.3,461.739,909.8,484.239,887.3" fill="#FFF" style="stroke:#2E4053;stroke-width:0.938;stroke-linejoin:miter;stroke-miterlimit:10;"/><polygon points="1481.05,340.181,1720.253,340.181,1742.753,368.555,1720.253,396.929,1481.05,396.929,1458.55,368.555,1481.05,340.181" fill="#FFF" style="stroke:#2E4053;stroke-width:0.938;stroke-linejoin:miter;stroke-miterlimit:10;"/><text x="1481.05" y="362.806" fill="#000" font-size="24.375" textLength="239.203" font-family="Arial">Vehicle already has</text><text x="1481.05" y="391.18" fill="#000" font-size="24.375" textLength="151.725" font-family="Arial">reservation?</text><text x="1422.517" y="363.69" fill="#000" font-size="20.625" textLength="36.033" font-family="Arial">Yes</text><text x="1742.753" y="363.69" fill="#000" font-size="20.625" textLength="28.047" font-family="Arial">No</text><rect x="1080.373" y="415.679" width="389.902" height="65.874" fill="#FFF" style="stroke:#2E4053;stroke-width:0.938;" rx="23.438" ry="23.438"/><text x="1099.123" y="457.054" fill="#000" font-size="24.375" textLength="352.402" font-family="Arial">Approve existing reservation</text><polygon points="1762.002,415.679,2089.957,415.679,2112.457,438.179,2089.957,460.679,1762.002,460.679,1739.502,438.179,1762.002,415.679" fill="#FFF" style="stroke:#2E4053;stroke-width:0.938;stroke-linejoin:miter;stroke-miterlimit:10;"/><text x="1762.002" y="446.617" fill="#000" font-size="24.375" textLength="327.956" font-family="Arial">Reservation slot occupied?</text><text x="1703.468" y="433.315" fill="#000" font-size="20.625" textLength="36.033" font-family="Arial">Yes</text><text x="2112.457" y="433.315" fill="#000" font-size="20.625" textLength="28.047" font-family="Arial">No</text><rect x="1526.525" y="479.429" width="361.635" height="65.874" fill="#FFF" style="stroke:#2E4053;stroke-width:0.938;" rx="23.438" ry="23.438"/><text x="1545.275" y="520.804" fill="#000" font-size="24.375" textLength="324.135" font-family="Arial">Reject reservation request</text><rect x="1925.66" y="479.429" width="437.914" height="65.874" fill="#FFF" style="stroke:#2E4053;stroke-width:0.938;" rx="23.438" ry="23.438"/><text x="1944.41" y="520.804" fill="#000" font-size="24.375" textLength="400.414" font-family="Arial">Store vehicle in reservation slots</text><rect x="2018.173" y="610.928" width="252.888" height="65.874" fill="#FFF" style="stroke:#2E4053;stroke-width:0.938;" rx="23.438" ry="23.438"/><text x="2036.923" y="652.303" fill="#000" font-size="24.375" textLength="215.388" font-family="Arial">Grant reservation</text><polygon points="1925.98,688.052,1948.48,710.552,1925.98,733.052,1903.48,710.552,1925.98,688.052" fill="#FFF" style="stroke:#2E4053;stroke-width:0.938;stroke-linejoin:miter;stroke-miterlimit:10;"/><polygon points="1600.652,744.302,1623.152,766.802,1600.652,789.302,1578.152,766.802,1600.652,744.302" fill="#FFF" style="stroke:#2E4053;stroke-width:0.938;stroke-linejoin:miter;stroke-miterlimit:10;"/><polygon points="1042.445,943.55,1064.945,966.05,1042.445,988.55,1019.945,966.05,1042.445,943.55" fill="#FFF" style="stroke:#2E4053;stroke-width:0.938;stroke-linejoin:miter;stroke-miterlimit:10;"/><rect x="857.426" y="1026.05" width="370.038" height="65.874" fill="#FFF" style="stroke:#2E4053;stroke-width:0.938;" rx="23.438" ry="23.438"/><text x="876.176" y="1067.425" fill="#000" font-size="24.375" textLength="332.538" font-family="Arial">Vehicle completes crossing</text><rect x="876.38" y="1129.424" width="332.13" height="65.874" fill="#FFF" style="stroke:#2E4053;stroke-width:0.938;" rx="23.438" ry="23.438"/><text x="895.13" y="1170.799" fill="#000" font-size="24.375" textLength="294.63" font-family="Arial">Receive release request</text><rect x="788.443" y="1232.798" width="508.004" height="65.874" fill="#FFF" style="stroke:#2E4053;stroke-width:0.938;" rx="23.438" ry="23.438"/><text x="807.193" y="1274.173" fill="#000" font-size="24.375" textLength="470.504" font-family="Arial">Remove vehicle from reservation slots</text><ellipse cx="1042.445" cy="1356.797" rx="20.625" ry="20.625" fill="none" style="stroke:#222;stroke-width:1.875;"/><ellipse cx="1042.445" cy="1356.797" rx="11.25" ry="11.25" fill="#222" style="stroke:#222;stroke-width:1.875;"/><line x1="1042.445" y1="135.557" x2="1042.445" y2="173.057" style="stroke:#2E4053;stroke-width:1.875;"/><polygon points="1034.945,154.307,1042.445,173.057,1049.945,154.307,1042.445,161.807" fill="#2E4053" style="stroke:#2E4053;stroke-width:1.875;stroke-linejoin:miter;stroke-miterlimit:10;"/><line x1="231.021" y1="613.052" x2="231.021" y2="678.677" style="stroke:#2E4053;stroke-width:1.875;"/><polygon points="223.521,659.927,231.021,678.677,238.521,659.927,231.021,667.427" fill="#2E4053" style="stroke:#2E4053;stroke-width:1.875;stroke-linejoin:miter;stroke-miterlimit:10;"/><line x1="737.457" y1="613.052" x2="737.457" y2="678.677" style="stroke:#2E4053;stroke-width:1.875;"/><polygon points="729.957,659.927,737.457,678.677,744.957,659.927,737.457,667.427" fill="#2E4053" style="stroke:#2E4053;stroke-width:1.875;stroke-linejoin:miter;stroke-miterlimit:10;"/><line x1="737.457" y1="744.551" x2="737.457" y2="810.176" style="stroke:#2E4053;stroke-width:1.875;"/><polygon points="729.957,791.426,737.457,810.176,744.957,791.426,737.457,798.926" fill="#2E4053" style="stroke:#2E4053;stroke-width:1.875;stroke-linejoin:miter;stroke-miterlimit:10;"/><line x1="343.024" y1="500.054" x2="231.021" y2="500.054" style="stroke:#2E4053;stroke-width:1.875;"/><line x1="231.021" y1="500.054" x2="231.021" y2="547.178" style="stroke:#2E4053;stroke-width:1.875;"/><polygon points="223.521,528.428,231.021,547.178,238.521,528.428,231.021,535.928" fill="#2E4053" style="stroke:#2E4053;stroke-width:1.875;stroke-linejoin:miter;stroke-miterlimit:10;"/><line x1="625.454" y1="500.054" x2="737.457" y2="500.054" style="stroke:#2E4053;stroke-width:1.875;"/><line x1="737.457" y1="500.054" x2="737.457" y2="547.178" style="stroke:#2E4053;stroke-width:1.875;"/><polygon points="729.957,528.428,737.457,547.178,744.957,528.428,737.457,535.928" fill="#2E4053" style="stroke:#2E4053;stroke-width:1.875;stroke-linejoin:miter;stroke-miterlimit:10;"/><line x1="231.021" y1="744.551" x2="231.021" y2="909.8" style="stroke:#2E4053;stroke-width:1.875;"/><line x1="231.021" y1="909.8" x2="461.739" y2="909.8" style="stroke:#2E4053;stroke-width:1.875;"/><polygon points="442.989,902.3,461.739,909.8,442.989,917.3,450.489,909.8" fill="#2E4053" style="stroke:#2E4053;stroke-width:1.875;stroke-linejoin:miter;stroke-miterlimit:10;"/><line x1="737.457" y1="876.05" x2="737.457" y2="909.8" style="stroke:#2E4053;stroke-width:1.875;"/><line x1="737.457" y1="909.8" x2="506.739" y2="909.8" style="stroke:#2E4053;stroke-width:1.875;"/><polygon points="525.489,902.3,506.739,909.8,525.489,917.3,517.989,909.8" fill="#2E4053" style="stroke:#2E4053;stroke-width:1.875;stroke-linejoin:miter;stroke-miterlimit:10;"/><line x1="484.239" y1="406.055" x2="484.239" y2="471.68" style="stroke:#2E4053;stroke-width:1.875;"/><polygon points="476.739,452.93,484.239,471.68,491.739,452.93,484.239,460.43" fill="#2E4053" style="stroke:#2E4053;stroke-width:1.875;stroke-linejoin:miter;stroke-miterlimit:10;"/><line x1="2144.617" y1="545.303" x2="2144.617" y2="610.928" style="stroke:#2E4053;stroke-width:1.875;"/><polygon points="2137.117,592.178,2144.617,610.928,2152.117,592.178,2144.617,599.678" fill="#2E4053" style="stroke:#2E4053;stroke-width:1.875;stroke-linejoin:miter;stroke-miterlimit:10;"/><line x1="1739.502" y1="438.179" x2="1707.342" y2="438.179" style="stroke:#2E4053;stroke-width:1.875;"/><line x1="1707.342" y1="438.179" x2="1707.342" y2="479.429" style="stroke:#2E4053;stroke-width:1.875;"/><polygon points="1699.842,460.679,1707.342,479.429,1714.842,460.679,1707.342,468.179" fill="#2E4053" style="stroke:#2E4053;stroke-width:1.875;stroke-linejoin:miter;stroke-miterlimit:10;"/><line x1="2112.457" y1="438.179" x2="2144.617" y2="438.179" style="stroke:#2E4053;stroke-width:1.875;"/><line x1="2144.617" y1="438.179" x2="2144.617" y2="479.429" style="stroke:#2E4053;stroke-width:1.875;"/><polygon points="2137.117,460.679,2144.617,479.429,2152.117,460.679,2144.617,468.179" fill="#2E4053" style="stroke:#2E4053;stroke-width:1.875;stroke-linejoin:miter;stroke-miterlimit:10;"/><line x1="1707.342" y1="545.303" x2="1707.342" y2="710.552" style="stroke:#2E4053;stroke-width:1.875;"/><line x1="1707.342" y1="710.552" x2="1903.48" y2="710.552" style="stroke:#2E4053;stroke-width:1.875;"/><polygon points="1884.73,703.052,1903.48,710.552,1884.73,718.052,1892.23,710.552" fill="#2E4053" style="stroke:#2E4053;stroke-width:1.875;stroke-linejoin:miter;stroke-miterlimit:10;"/><line x1="2144.617" y1="676.802" x2="2144.617" y2="710.552" style="stroke:#2E4053;stroke-width:1.875;"/><line x1="2144.617" y1="710.552" x2="1948.48" y2="710.552" style="stroke:#2E4053;stroke-width:1.875;"/><polygon points="1967.23,703.052,1948.48,710.552,1967.23,718.052,1959.73,710.552" fill="#2E4053" style="stroke:#2E4053;stroke-width:1.875;stroke-linejoin:miter;stroke-miterlimit:10;"/><line x1="1458.55" y1="368.555" x2="1275.324" y2="368.555" style="stroke:#2E4053;stroke-width:1.875;"/><line x1="1275.324" y1="368.555" x2="1275.324" y2="415.679" style="stroke:#2E4053;stroke-width:1.875;"/><polygon points="1267.824,396.929,1275.324,415.679,1282.824,396.929,1275.324,404.429" fill="#2E4053" style="stroke:#2E4053;stroke-width:1.875;stroke-linejoin:miter;stroke-miterlimit:10;"/><line x1="1742.753" y1="368.555" x2="1925.98" y2="368.555" style="stroke:#2E4053;stroke-width:1.875;"/><line x1="1925.98" y1="368.555" x2="1925.98" y2="415.679" style="stroke:#2E4053;stroke-width:1.875;"/><polygon points="1918.48,396.929,1925.98,415.679,1933.48,396.929,1925.98,404.429" fill="#2E4053" style="stroke:#2E4053;stroke-width:1.875;stroke-linejoin:miter;stroke-miterlimit:10;"/><line x1="1275.324" y1="481.553" x2="1275.324" y2="766.802" style="stroke:#2E4053;stroke-width:1.875;"/><line x1="1275.324" y1="766.802" x2="1578.152" y2="766.802" style="stroke:#2E4053;stroke-width:1.875;"/><polygon points="1559.402,759.302,1578.152,766.802,1559.402,774.302,1566.902,766.802" fill="#2E4053" style="stroke:#2E4053;stroke-width:1.875;stroke-linejoin:miter;stroke-miterlimit:10;"/><line x1="1925.98" y1="733.052" x2="1925.98" y2="766.802" style="stroke:#2E4053;stroke-width:1.875;"/><line x1="1925.98" y1="766.802" x2="1623.152" y2="766.802" style="stroke:#2E4053;stroke-width:1.875;"/><polygon points="1641.902,759.302,1623.152,766.802,1641.902,774.302,1634.402,766.802" fill="#2E4053" style="stroke:#2E4053;stroke-width:1.875;stroke-linejoin:miter;stroke-miterlimit:10;"/><line x1="896.118" y1="298.931" x2="484.239" y2="298.931" style="stroke:#2E4053;stroke-width:1.875;"/><line x1="484.239" y1="298.931" x2="484.239" y2="340.181" style="stroke:#2E4053;stroke-width:1.875;"/><polygon points="476.739,321.431,484.239,340.181,491.739,321.431,484.239,328.931" fill="#2E4053" style="stroke:#2E4053;stroke-width:1.875;stroke-linejoin:miter;stroke-miterlimit:10;"/><line x1="1188.772" y1="298.931" x2="1600.652" y2="298.931" style="stroke:#2E4053;stroke-width:1.875;"/><line x1="1600.652" y1="298.931" x2="1600.652" y2="340.181" style="stroke:#2E4053;stroke-width:1.875;"/><polygon points="1593.152,321.431,1600.652,340.181,1608.152,321.431,1600.652,328.931" fill="#2E4053" style="stroke:#2E4053;stroke-width:1.875;stroke-linejoin:miter;stroke-miterlimit:10;"/><line x1="484.239" y1="932.3" x2="484.239" y2="966.05" style="stroke:#2E4053;stroke-width:1.875;"/><line x1="484.239" y1="966.05" x2="1019.945" y2="966.05" style="stroke:#2E4053;stroke-width:1.875;"/><polygon points="1001.195,958.55,1019.945,966.05,1001.195,973.55,1008.695,966.05" fill="#2E4053" style="stroke:#2E4053;stroke-width:1.875;stroke-linejoin:miter;stroke-miterlimit:10;"/><line x1="1600.652" y1="789.302" x2="1600.652" y2="966.05" style="stroke:#2E4053;stroke-width:1.875;"/><line x1="1600.652" y1="966.05" x2="1064.945" y2="966.05" style="stroke:#2E4053;stroke-width:1.875;"/><polygon points="1083.695,958.55,1064.945,966.05,1083.695,973.55,1076.195,966.05" fill="#2E4053" style="stroke:#2E4053;stroke-width:1.875;stroke-linejoin:miter;stroke-miterlimit:10;"/><line x1="1042.445" y1="238.931" x2="1042.445" y2="276.431" style="stroke:#2E4053;stroke-width:1.875;"/><polygon points="1034.945,257.681,1042.445,276.431,1049.945,257.681,1042.445,265.181" fill="#2E4053" style="stroke:#2E4053;stroke-width:1.875;stroke-linejoin:miter;stroke-miterlimit:10;"/><line x1="1042.445" y1="988.55" x2="1042.445" y2="1026.05" style="stroke:#2E4053;stroke-width:1.875;"/><polygon points="1034.945,1007.3,1042.445,1026.05,1049.945,1007.3,1042.445,1014.8" fill="#2E4053" style="stroke:#2E4053;stroke-width:1.875;stroke-linejoin:miter;stroke-miterlimit:10;"/><line x1="1042.445" y1="1091.924" x2="1042.445" y2="1129.424" style="stroke:#2E4053;stroke-width:1.875;"/><polygon points="1034.945,1110.674,1042.445,1129.424,1049.945,1110.674,1042.445,1118.174" fill="#2E4053" style="stroke:#2E4053;stroke-width:1.875;stroke-linejoin:miter;stroke-miterlimit:10;"/><line x1="1042.445" y1="1195.298" x2="1042.445" y2="1232.798" style="stroke:#2E4053;stroke-width:1.875;"/><polygon points="1034.945,1214.048,1042.445,1232.798,1049.945,1214.048,1042.445,1221.548" fill="#2E4053" style="stroke:#2E4053;stroke-width:1.875;stroke-linejoin:miter;stroke-miterlimit:10;"/><line x1="1042.445" y1="1298.672" x2="1042.445" y2="1336.172" style="stroke:#2E4053;stroke-width:1.875;"/><polygon points="1034.945,1317.422,1042.445,1336.172,1049.945,1317.422,1042.445,1324.922" fill="#2E4053" style="stroke:#2E4053;stroke-width:1.875;stroke-linejoin:miter;stroke-miterlimit:10;"/><?plantuml-src TLDDRzD04BtxLup49Rcr52IK751e0oTwI2KGKYMqNO_jeUiTCpjEQX3_dRMTZmt4FjdpyTwRDsCbTGWR32XReyGUFXjlIXHOMQKjQGTtP4enTPQ5P_ADYQyGAfFpZdm9XN41ayoJiS-bSElpMtOiiAj8qtpU45o_kqeZM9ZMwKVsUczgX9MGSKdUaKVj6WGMhJXLOGuAVsSGdmyNgOSCIuuoHb-zNh-vUdipn5SYlFi_t4jve5y8rwVliUh9HOuX5asfsUVJd8U22zH_uX1gHBDiiK6Bj3rVm0P_jXXqcMLKm6nTevJeRGTVi2BhyFqSj48FisyOvjd0jLY_e6qLeM2n-3rko-jilXoJFSY-5MmhWbvTz-Z91yeHo2jAGDipNq0Uq3Vu8nQ0Ojsm6Ec0joWIkvUdcg-655glvCuWWG94OYDxCHYl1MRtdCBVzdd05mhQNvISh4ZmLo5GwTCaA0CUpTcE4oOTdteNpj562Jwd8il-KPAwP9oWoJkeJ7Zq2S2KFwkcaMZ9n0XJS_UCwTg3OmMsjcq8ymcgT1sf5N8ycKFL1SAX-K5PyE1MNDKPJ2yXBCyRfcmyMNbwsrkxE9uRrur3nNW3md61lbmcDoyO5nym4HzJTM_aGLuXN5yI67yVRlu2?></g></svg>