<svg xmlns="http://www.w3.org/2000/svg" xmlns:xlink="http://www.w3.org/1999/xlink" version="1.1" data-diagram-type="STATE" style="width:871px;height:1381px;background:#FFFFFF;" width="871.875px" height="1381.875px" viewBox="0 0 871 1381" zoomAndPan="magnify" preserveAspectRatio="none" contentStyleType="text/css"><?plantuml 1.2026.7beta8?><defs/><g font-family="sans-serif" lengthAdjust="spacing"><g class="title" data-source-line="1"><text x="198.165" y="43.116" fill="#000" font-size="26.25" textLength="463.976" font-weight="700" font-family="Arial">Vehicle State Machine Diagram</text></g><g class="entity" data-qualified-name="Moving" id="ent0001" data-source-line="18"><rect x="494.194" y="231.182" width="125.562" height="93.75" fill="#FFF" style="stroke:#2E4053;stroke-width:0.938;" rx="23.438" ry="23.438"/><line x1="494.194" y1="278.306" x2="619.756" y2="278.306" style="stroke:#2E4053;stroke-width:0.938;"/><text x="512.944" y="263.182" fill="#000" font-size="24.375" textLength="88.062" font-family="Arial">Moving</text></g><g class="entity" data-qualified-name="Approaching_Intersection" id="ent0002" data-source-line="23"><rect x="122.006" y="437.432" width="348.722" height="93.75" fill="#FFF" style="stroke:#2E4053;stroke-width:0.938;" rx="23.438" ry="23.438"/><line x1="122.006" y1="484.556" x2="470.728" y2="484.556" style="stroke:#2E4053;stroke-width:0.938;"/><text x="140.756" y="469.432" fill="#000" font-size="24.375" textLength="311.222" font-family="Arial">Approaching_Intersection</text></g><g class="entity" data-qualified-name="Waiting_for_Reservation" id="ent0003" data-source-line="28"><rect x="170.531" y="643.682" width="334.154" height="93.75" fill="#FFF" style="stroke:#2E4053;stroke-width:0.938;" rx="23.438" ry="23.438"/><line x1="170.531" y1="690.806" x2="504.685" y2="690.806" style="stroke:#2E4053;stroke-width:0.938;"/><text x="189.281" y="675.682" fill="#000" font-size="24.375" textLength="296.654" font-family="Arial">Waiting_for_Reservation</text></g><g class="entity" data-qualified-name="Reservation_Granted" id="ent0004" data-source-line="35"><rect x="255.881" y="849.932" width="294.711" height="93.75" fill="#FFF" style="stroke:#2E4053;stroke-width:0.938;" rx="23.438" ry="23.438"/><line x1="255.881" y1="897.056" x2="550.592" y2="897.056" style="stroke:#2E4053;stroke-width:0.938;"/><text x="274.631" y="881.932" fill="#000" font-size="24.375" textLength="257.211" font-family="Arial">Reservation_Granted</text></g><g class="entity" data-qualified-name="Inside_Intersection" id="ent0005" data-source-line="40"><rect x="303.356" y="1056.182" width="267.265" height="93.75" fill="#FFF" style="stroke:#2E4053;stroke-width:0.938;" rx="23.438" ry="23.438"/><line x1="303.356" y1="1103.306" x2="570.622" y2="1103.306" style="stroke:#2E4053;stroke-width:0.938;"/><text x="322.106" y="1088.182" fill="#000" font-size="24.375" textLength="229.765" font-family="Arial">Inside_Intersection</text></g><g class="entity" data-qualified-name="Completed_Crossing" id="ent0006" data-source-line="45"><rect x="409.388" y="1262.432" width="287.677" height="93.75" fill="#FFF" style="stroke:#2E4053;stroke-width:0.938;" rx="23.438" ry="23.438"/><line x1="409.388" y1="1309.556" x2="697.065" y2="1309.556" style="stroke:#2E4053;stroke-width:0.938;"/><text x="428.138" y="1294.432" fill="#000" font-size="24.375" textLength="250.177" font-family="Arial">Completed_Crossing</text></g><g class="start_entity" data-qualified-name=".start." id="ent0007" data-source-line="16"><ellipse cx="556.988" cy="99.932" rx="18.75" ry="18.75" fill="#222" style="stroke:#222;stroke-width:1.875;"/></g><g class="end_entity" data-qualified-name=".end." id="ent0016" data-source-line="50"><ellipse cx="556.988" cy="484.307" rx="20.625" ry="20.625" fill="none" style="stroke:#222;stroke-width:1.875;"/><ellipse cx="556.988" cy="484.307" rx="11.25" ry="11.25" fill="#222" style="stroke:#222;stroke-width:1.875;"/></g><!--link *start* to Moving--><g class="link" data-entity-1="ent0007" data-entity-2="ent0001" id="lnk8" data-source-line="16" data-link-type="dependency"><path d="M556.988,119 C556.988,145.382 556.988,184.532 556.988,221.075" style="stroke:#181818;stroke-width:1.875;" fill="none" id="*start*-to-Moving"/><polygon points="556.988,230.45,564.488,213.575,556.988,221.075,549.488,213.575,556.988,230.45" fill="#181818" style="stroke:#181818;stroke-width:1.875;stroke-linejoin:miter;stroke-miterlimit:10;"/></g><!--link Moving to Approaching_Intersection--><g class="link" data-entity-1="ent0001" data-entity-2="ent0002" id="lnk9" data-source-line="21" data-link-type="dependency"><path d="M515.25,325.7 C515.25,377.338 515.25,452.432 515.25,452.432 C515.25,452.432 506.569,452.432 480.844,452.432" style="stroke:#181818;stroke-width:1.875;" fill="none" id="Moving-to-Approaching_Intersection"/><polygon points="471.469,452.432,488.344,459.932,480.844,452.432,488.344,444.932,471.469,452.432" fill="#181818" style="stroke:#181818;stroke-width:1.875;stroke-linejoin:miter;stroke-miterlimit:10;"/><text x="40.875" y="403.582" fill="#000" font-size="24.375" textLength="473.73" font-family="Arial">Vehicle approaches target intersection</text></g><!--link Approaching_Intersection to Waiting_for_Reservation--><g class="link" data-entity-1="ent0002" data-entity-2="ent0003" id="lnk10" data-source-line="26" data-link-type="dependency"><path d="M320.625,531.632 C320.625,564.932 320.625,599.957 320.625,633.369" style="stroke:#181818;stroke-width:1.875;" fill="none" id="Approaching_Intersection-to-Waiting_for_Reservation"/><polygon points="320.625,642.744,328.125,625.869,320.625,633.369,313.125,625.869,320.625,642.744" fill="#181818" style="stroke:#181818;stroke-width:1.875;stroke-linejoin:miter;stroke-miterlimit:10;"/><text x="13.125" y="579.813" fill="#000" font-size="24.375" textLength="307.092" font-family="Arial">Reservation request sent</text></g><!--link Waiting_for_Reservation to Waiting_for_Reservation--><g class="link" data-entity-1="ent0003" data-entity-2="ent0003" id="lnk11" data-source-line="31" data-link-type="dependency"><path d="M482.456,642.894 C482.456,616.644 482.456,589.307 482.456,589.307 C482.456,589.307 525.806,589.307 525.806,589.307 C525.806,589.307 525.806,795.557 525.806,795.557 C525.806,795.557 421.744,795.557 421.744,795.557 C421.744,795.557 421.744,775.307 421.744,747.519" style="stroke:#181818;stroke-width:1.875;" fill="none" id="Waiting_for_Reservation-to-Waiting_for_Reservation"/><polygon points="421.744,738.144,414.244,755.019,421.744,747.519,429.244,755.019,421.744,738.144" fill="#181818" style="stroke:#181818;stroke-width:1.875;stroke-linejoin:miter;stroke-miterlimit:10;"/><text x="537.056" y="679.826" fill="#000" font-size="24.375" textLength="253.664" font-family="Arial">Reservation rejected</text><text x="568.59" y="708.2" fill="#000" font-size="24.375" textLength="190.596" font-family="Arial">(wait and retry)</text></g><!--link Waiting_for_Reservation to Reservation_Granted--><g class="link" data-entity-1="ent0003" data-entity-2="ent0004" id="lnk12" data-source-line="33" data-link-type="dependency"><path d="M338.813,737.882 C338.813,771.182 338.813,806.207 338.813,839.619" style="stroke:#181818;stroke-width:1.875;" fill="none" id="Waiting_for_Reservation-to-Reservation_Granted"/><polygon points="338.813,848.994,346.313,832.119,338.813,839.619,331.313,832.119,338.813,848.994" fill="#181818" style="stroke:#181818;stroke-width:1.875;stroke-linejoin:miter;stroke-miterlimit:10;"/><text x="68.813" y="786.063" fill="#000" font-size="24.375" textLength="269.16" font-family="Arial">Reservation approved</text></g><!--link Reservation_Granted to Inside_Intersection--><g class="link" data-entity-1="ent0004" data-entity-2="ent0005" id="lnk13" data-source-line="38" data-link-type="dependency"><path d="M426.975,944.132 C426.975,977.432 426.975,1012.457 426.975,1045.869" style="stroke:#181818;stroke-width:1.875;" fill="none" id="Reservation_Granted-to-Inside_Intersection"/><polygon points="426.975,1055.244,434.475,1038.369,426.975,1045.869,419.475,1038.369,426.975,1055.244" fill="#181818" style="stroke:#181818;stroke-width:1.875;stroke-linejoin:miter;stroke-miterlimit:10;"/><text x="198.225" y="992.313" fill="#000" font-size="24.375" textLength="227.921" font-family="Arial">Enter conflict zone</text></g><!--link Inside_Intersection to Completed_Crossing--><g class="link" data-entity-1="ent0005" data-entity-2="ent0006" id="lnk14" data-source-line="43" data-link-type="dependency"><path d="M490.013,1150.382 C490.013,1183.682 490.013,1218.707 490.013,1252.119" style="stroke:#181818;stroke-width:1.875;" fill="none" id="Inside_Intersection-to-Completed_Crossing"/><polygon points="490.013,1261.494,497.512,1244.619,490.013,1252.119,482.513,1244.619,490.013,1261.494" fill="#181818" style="stroke:#181818;stroke-width:1.875;stroke-linejoin:miter;stroke-miterlimit:10;"/><text x="180.638" y="1198.563" fill="#000" font-size="24.375" textLength="307.592" font-family="Arial">Vehicle exits intersection</text></g><!--link Completed_Crossing to Moving--><g class="link" data-entity-1="ent0006" data-entity-2="ent0001" id="lnk15" data-source-line="48" data-link-type="dependency"><path d="M598.688,1261.644 C598.688,1089.125 598.688,507.838 598.688,335.188" style="stroke:#181818;stroke-width:1.875;" fill="none" id="Completed_Crossing-to-Moving"/><polygon points="598.688,325.813,591.188,342.688,598.688,335.188,606.188,342.688,598.688,325.813" fill="#181818" style="stroke:#181818;stroke-width:1.875;stroke-linejoin:miter;stroke-miterlimit:10;"/><text x="600.563" y="758.22" fill="#000" font-size="24.375" textLength="242.869" font-family="Arial">Release reservation</text><text x="642.409" y="786.594" fill="#000" font-size="24.375" textLength="159.175" font-family="Arial">Continue trip</text></g><!--link Moving to *end*--><g class="link" data-entity-1="ent0001" data-entity-2="ent0016" id="lnk17" data-source-line="50" data-link-type="dependency"><path d="M556.988,325.382 C556.988,368.657 556.988,421.363 556.988,453.613" style="stroke:#181818;stroke-width:1.875;" fill="none" id="Moving-to-*end*"/><polygon points="556.988,462.988,564.488,446.113,556.988,453.613,549.488,446.113,556.988,462.988" fill="#181818" style="stroke:#181818;stroke-width:1.875;stroke-linejoin:miter;stroke-miterlimit:10;"/><text x="558.863" y="386.82" fill="#000" font-size="24.375" textLength="184.229" font-family="Arial">Trip completed</text></g><?plantuml-src bPB1JXj138Rl-nIMUg58I42BL76eH0EjED13GUsXL97PSNODavcjnqc0gk-EPvAG1MqgTI-xzc_xixrMLa_mdLgkxNsfg0GNMBSS24uP6y5fLQKx3XtQ9wGMNLnmQ622Fb5FkS7whf4u2suKVHHOjAnztNKC1n_s-nwQuCphvnZqAqu9JeJHztHlFUX3Hn15s_YYYzBcdmhi-JJ8BKeKHxBqlZayUxz_zAxuC_2I7maEDlOowiPRiUflLVtS_GLxUn_X8ivjLaClzr8iurh4wZi7dNITnBAoPdmUb2HHhHm373_l5LSXb41H6bBWNk2w_jP2XRXLpJtyGDOiJAAClr4YcUEgXRubz7j6II5Hq3LqMsPXRXF_1tbhRPAx3ZiBIm0Cpdmg3s__NRrdZxy8shpkLUMoqpcvzI136MM88I4ZpaDYHwz_sLaseOvXuhbMU8o1reIXX48O4Z9X5AUT9-EDHn9JoWUpkGcwPqs3Tp2GLZ03_isHbkrumaIst-U1hyF8hfl3Z425knTtcu_y6AxCRUEkAZy1?></g></svg>