<svg xmlns="http://www.w3.org/2000/svg" xmlns:xlink="http://www.w3.org/1999/xlink" version="1.1" data-diagram-type="DESCRIPTION" style="width:1072px;height:1333px;background:#FFFFFF;" width="1072.5px" height="1333.125px" viewBox="0 0 1072 1333" zoomAndPan="magnify" preserveAspectRatio="none" contentStyleType="text/css"><?plantuml 1.2026.7beta8?><defs/><g font-family="sans-serif" lengthAdjust="spacing"><g class="title" data-source-line="1"><text x="18.75" y="43.116" fill="#000" font-size="26.25" textLength="1022.045" font-weight="700" font-family="Arial">Agent Interaction Diagram - Multi-Agent Traffic Coordination System</text></g><!--entity ENV--><g class="entity" data-qualified-name="ENV" id="ent0001" data-source-line="22"><rect x="244.583" y="923.657" width="347.949" height="176.294" fill="#FFF" style="stroke:#2E4053;stroke-width:0.938;" rx="4.688" ry="4.688"/><rect x="555.032" y="933.032" width="28.125" height="18.75" fill="#FFF" style="stroke:#2E4053;stroke-width:0.938;"/><rect x="551.282" y="936.782" width="7.5" height="3.75" fill="#FFF" style="stroke:#2E4053;stroke-width:0.938;"/><rect x="551.282" y="944.282" width="7.5" height="3.75" fill="#FFF" style="stroke:#2E4053;stroke-width:0.938;"/><text x="272.708" y="980.301" fill="#000" font-size="20.625" textLength="272.949" font-family="Arial">Urban Traffic Environment</text><text x="272.708" y="1004.31" fill="#000" font-size="20.625" font-family="Arial"> </text><text x="272.708" y="1028.319" fill="#000" font-size="20.625" textLength="164.073" font-family="Arial">• Road Network</text><text x="272.708" y="1052.328" fill="#000" font-size="20.625" textLength="199.754" font-family="Arial">• Traffic Conditions</text><text x="272.708" y="1076.336" fill="#000" font-size="20.625" textLength="186.068" font-family="Arial">• Dynamic Events</text></g><!--entity VEH--><g class="entity" data-qualified-name="VEH" id="ent0002" data-source-line="25"><rect x="277.171" y="298.044" width="316.488" height="152.285" fill="#FFF" style="stroke:#2E4053;stroke-width:0.938;" rx="4.688" ry="4.688"/><rect x="556.159" y="307.419" width="28.125" height="18.75" fill="#FFF" style="stroke:#2E4053;stroke-width:0.938;"/><rect x="552.409" y="311.169" width="7.5" height="3.75" fill="#FFF" style="stroke:#2E4053;stroke-width:0.938;"/><rect x="552.409" y="318.669" width="7.5" height="3.75" fill="#FFF" style="stroke:#2E4053;stroke-width:0.938;"/><text x="305.296" y="354.689" fill="#000" font-size="20.625" textLength="153.711" font-family="Arial">Vehicle Agents</text><text x="305.296" y="378.698" fill="#000" font-size="20.625" font-family="Arial"> </text><text x="305.296" y="402.706" fill="#000" font-size="20.625" textLength="241.488" font-family="Arial">• Autonomous Vehicles</text><text x="305.296" y="426.715" fill="#000" font-size="20.625" textLength="228.073" font-family="Arial">• Emergency Vehicles</text></g><!--entity COMM--><g class="entity" data-qualified-name="COMM" id="ent0003" data-source-line="28"><rect x="417.158" y="109.344" width="269.044" height="104.268" fill="#FFF" style="stroke:#2E4053;stroke-width:0.938;" rx="4.688" ry="4.688"/><rect x="648.703" y="118.719" width="28.125" height="18.75" fill="#FFF" style="stroke:#2E4053;stroke-width:0.938;"/><rect x="644.953" y="122.469" width="7.5" height="3.75" fill="#FFF" style="stroke:#2E4053;stroke-width:0.938;"/><rect x="644.953" y="129.969" width="7.5" height="3.75" fill="#FFF" style="stroke:#2E4053;stroke-width:0.938;"/><text x="445.283" y="165.989" fill="#000" font-size="20.625" textLength="194.044" font-family="Arial">Reservation-Based</text><text x="445.283" y="189.998" fill="#000" font-size="20.625" textLength="162.563" font-family="Arial">Communication</text></g><!--entity INT--><g class="entity" data-qualified-name="INT" id="ent0004" data-source-line="31"><rect x="490.077" y="1156.194" width="359.43" height="152.285" fill="#FFF" style="stroke:#2E4053;stroke-width:0.938;" rx="4.688" ry="4.688"/><rect x="812.007" y="1165.569" width="28.125" height="18.75" fill="#FFF" style="stroke:#2E4053;stroke-width:0.938;"/><rect x="808.257" y="1169.319" width="7.5" height="3.75" fill="#FFF" style="stroke:#2E4053;stroke-width:0.938;"/><rect x="808.257" y="1176.819" width="7.5" height="3.75" fill="#FFF" style="stroke:#2E4053;stroke-width:0.938;"/><text x="518.202" y="1212.839" fill="#000" font-size="20.625" textLength="201.043" font-family="Arial">Intersection Agents</text><text x="518.202" y="1236.848" fill="#000" font-size="20.625" font-family="Arial"> </text><text x="518.202" y="1260.856" fill="#000" font-size="20.625" textLength="211.255" font-family="Arial">• Local Coordination</text><text x="518.202" y="1284.865" fill="#000" font-size="20.625" textLength="284.43" font-family="Arial">• Reservation Management</text></g><!--entity EXEC--><g class="entity" data-qualified-name="EXEC" id="ent0005" data-source-line="34"><rect x="279.496" y="506.582" width="311.855" height="152.285" fill="#FFF" style="stroke:#2E4053;stroke-width:0.938;" rx="4.688" ry="4.688"/><rect x="553.851" y="515.957" width="28.125" height="18.75" fill="#FFF" style="stroke:#2E4053;stroke-width:0.938;"/><rect x="550.101" y="519.707" width="7.5" height="3.75" fill="#FFF" style="stroke:#2E4053;stroke-width:0.938;"/><rect x="550.101" y="527.207" width="7.5" height="3.75" fill="#FFF" style="stroke:#2E4053;stroke-width:0.938;"/><text x="307.621" y="563.226" fill="#000" font-size="20.625" textLength="183.762" font-family="Arial">Vehicle Execution</text><text x="307.621" y="587.235" fill="#000" font-size="20.625" font-family="Arial"> </text><text x="307.621" y="611.244" fill="#000" font-size="20.625" textLength="233.904" font-family="Arial">• Approved Movement</text><text x="307.621" y="635.253" fill="#000" font-size="20.625" textLength="236.855" font-family="Arial">• Intersection Crossing</text></g><!--entity FEED--><g class="entity" data-qualified-name="FEED" id="ent0006" data-source-line="37"><rect x="278.165" y="715.119" width="314.524" height="152.285" fill="#FFF" style="stroke:#2E4053;stroke-width:0.938;" rx="4.688" ry="4.688"/><rect x="555.189" y="724.494" width="28.125" height="18.75" fill="#FFF" style="stroke:#2E4053;stroke-width:0.938;"/><rect x="551.439" y="728.244" width="7.5" height="3.75" fill="#FFF" style="stroke:#2E4053;stroke-width:0.938;"/><rect x="551.439" y="735.744" width="7.5" height="3.75" fill="#FFF" style="stroke:#2E4053;stroke-width:0.938;"/><text x="306.29" y="771.764" fill="#000" font-size="20.625" textLength="238.054" font-family="Arial">Environment Feedback</text><text x="306.29" y="795.773" fill="#000" font-size="20.625" font-family="Arial"> </text><text x="306.29" y="819.781" fill="#000" font-size="20.625" textLength="204.85" font-family="Arial">• Updated Positions</text><text x="306.29" y="843.79" fill="#000" font-size="20.625" textLength="239.524" font-family="Arial">• Updated Traffic State</text></g><g class="entity" data-qualified-name="GMN16" id="ent0017" data-source-line="65"><path d="M722.802,81.182 L722.802,155.357 L686.858,162.857 L722.802,170.357 L722.802,241.802 A0,0 0 0 0 722.802,241.802 L1018.043,241.802 A0,0 0 0 0 1018.043,241.802 L1018.043,99.932 L999.293,81.182 L722.802,81.182 A0,0 0 0 0 722.802,81.182" style="stroke:#181818;stroke-width:0.938;" fill="#FEFFDD"/><path d="M999.293,81.182 L999.293,99.932 L1018.043,99.932 L999.293,81.182" style="stroke:#181818;stroke-width:0.938;" fill="#FEFFDD"/><text x="734.052" y="113.182" fill="#000" font-size="24.375" textLength="255.866" font-family="Arial">Reservation process:</text><text x="734.052" y="141.556" fill="#000" font-size="24.375" textLength="131.111" font-family="Arial">1. Request</text><text x="734.052" y="169.93" fill="#000" font-size="24.375" textLength="202.581" font-family="Arial">2. Conflict check</text><text x="734.052" y="198.304" fill="#000" font-size="24.375" textLength="134.777" font-family="Arial">3. Decision</text><text x="734.052" y="226.678" fill="#000" font-size="24.375" textLength="127.338" font-family="Arial">4. Release</text></g><!--link ENV to VEH--><g class="link" data-entity-1="ent0001" data-entity-2="ent0002" id="lnk7" data-source-line="41" data-link-type="dependency"><path d="M260.877,923.225 C260.877,748.175 260.877,374.732 260.877,374.732 C260.877,374.732 257.39,374.732 266.99,374.732" style="stroke:#2E4053;stroke-width:1.875;" fill="none" id="ENV-to-VEH"/><polygon points="276.365,374.732,259.49,367.232,266.99,374.732,259.49,382.232,276.365,374.732" fill="#2E4053" style="stroke:#2E4053;stroke-width:1.875;stroke-linejoin:miter;stroke-miterlimit:10;"/><text x="84.836" y="605.726" fill="#000" font-size="24.375" textLength="130.278" font-family="Arial">Perception</text><text x="39.627" y="634.1" fill="#000" font-size="24.375" textLength="220.696" font-family="Arial">State Observation</text></g><!--link ENV to INT--><g class="link" data-entity-1="ent0001" data-entity-2="ent0004" id="lnk8" data-source-line="43" data-link-type="dependency"><path d="M541.302,1100.863 C541.302,1119.032 541.302,1128.632 541.302,1146.332" style="stroke:#2E4053;stroke-width:1.875;" fill="none" id="ENV-to-INT"/><polygon points="541.302,1155.707,548.802,1138.832,541.302,1146.332,533.802,1138.832,541.302,1155.707" fill="#2E4053" style="stroke:#2E4053;stroke-width:1.875;stroke-linejoin:miter;stroke-miterlimit:10;"/><text x="323.802" y="1152.776" fill="#000" font-size="24.375" textLength="217.268" font-family="Arial">Intersection State</text></g><!--link VEH to COMM--><g class="link" data-entity-1="ent0002" data-entity-2="ent0003" id="lnk9" data-source-line="46" data-link-type="dependency"><path d="M534.833,297.407 C534.833,269.788 534.833,248.675 534.833,223.569" style="stroke:#2E4053;stroke-width:1.875;" fill="none" id="VEH-to-COMM"/><polygon points="534.833,214.194,527.333,231.069,534.833,223.569,542.333,231.069,534.833,214.194" fill="#2E4053" style="stroke:#2E4053;stroke-width:1.875;stroke-linejoin:miter;stroke-miterlimit:10;"/><text x="536.708" y="280.301" fill="#000" font-size="24.375" textLength="145.703" font-family="Arial">Reservation</text><text x="559.506" y="308.675" fill="#000" font-size="24.375" textLength="100.107" font-family="Arial">Request</text></g><!--link COMM to VEH--><g class="link" data-entity-1="ent0003" data-entity-2="ent0002" id="lnk12" data-source-line="53" data-link-type="dependency"><path d="M475.996,214.063 C475.996,239.169 475.996,260.3 475.996,287.938" style="stroke:#2E4053;stroke-width:1.875;" fill="none" id="COMM-to-VEH"/><polygon points="475.996,297.313,483.496,280.438,475.996,287.938,468.496,280.438,475.996,297.313" fill="#2E4053" style="stroke:#2E4053;stroke-width:1.875;stroke-linejoin:miter;stroke-miterlimit:10;"/><text x="329.746" y="220.188" fill="#000" font-size="24.375" textLength="145.703" font-family="Arial">Reservation</text><text x="343.516" y="248.562" fill="#000" font-size="24.375" textLength="118.162" font-family="Arial">Response</text></g><!--link COMM to INT--><g class="link" data-entity-1="ent0003" data-entity-2="ent0004" id="lnk10" data-source-line="48" data-link-type="dependency"><path d="M624.515,213.857 C624.515,388.119 624.515,939.65 624.515,1145.919" style="stroke:#2E4053;stroke-width:1.875;" fill="none" id="COMM-to-INT"/><polygon points="624.515,1155.294,632.015,1138.419,624.515,1145.919,617.015,1138.419,624.515,1155.294" fill="#2E4053" style="stroke:#2E4053;stroke-width:1.875;stroke-linejoin:miter;stroke-miterlimit:10;"/><text x="626.39" y="677.201" fill="#000" font-size="24.375" textLength="264.043" font-family="Arial">Coordination Request</text></g><!--link INT to COMM--><g class="link" data-entity-1="ent0004" data-entity-2="ent0003" id="lnk11" data-source-line="51" data-link-type="dependency"><path d="M655.358,1155.332 C655.358,949.344 655.358,398.957 655.358,223.907" style="stroke:#2E4053;stroke-width:1.875;" fill="none" id="INT-to-COMM"/><polygon points="655.358,214.532,647.858,231.407,655.358,223.907,662.858,231.407,655.358,214.532" fill="#2E4053" style="stroke:#2E4053;stroke-width:1.875;stroke-linejoin:miter;stroke-miterlimit:10;"/><text x="657.233" y="709.432" fill="#000" font-size="24.375" textLength="169.221" font-family="Arial">Grant / Reject</text><text x="689.958" y="737.806" fill="#000" font-size="24.375" textLength="103.772" font-family="Arial">Decision</text></g><!--link VEH to EXEC--><g class="link" data-entity-1="ent0002" data-entity-2="ent0005" id="lnk13" data-source-line="56" data-link-type="dependency"><path d="M435.421,451.25 C435.421,469.119 435.421,478.757 435.421,496.607" style="stroke:#2E4053;stroke-width:1.875;" fill="none" id="VEH-to-EXEC"/><polygon points="435.421,505.982,442.921,489.107,435.421,496.607,427.921,489.107,435.421,505.982" fill="#2E4053" style="stroke:#2E4053;stroke-width:1.875;stroke-linejoin:miter;stroke-miterlimit:10;"/><text x="321.489" y="443.107" fill="#000" font-size="24.375" textLength="98.226" font-family="Arial">Execute</text><text x="306.046" y="471.481" fill="#000" font-size="24.375" textLength="129.111" font-family="Arial">Movement</text></g><!--link EXEC to FEED--><g class="link" data-entity-1="ent0005" data-entity-2="ent0006" id="lnk14" data-source-line="58" data-link-type="dependency"><path d="M435.421,659.788 C435.421,677.657 435.421,687.294 435.421,705.144" style="stroke:#2E4053;stroke-width:1.875;" fill="none" id="EXEC-to-FEED"/><polygon points="435.421,714.519,442.921,697.644,435.421,705.144,427.921,697.644,435.421,714.519" fill="#2E4053" style="stroke:#2E4053;stroke-width:1.875;stroke-linejoin:miter;stroke-miterlimit:10;"/><text x="274.171" y="679.77" fill="#000" font-size="24.375" textLength="160.544" font-family="Arial">State Update</text></g><!--link FEED to ENV--><g class="link" data-entity-1="ent0006" data-entity-2="ent0001" id="lnk15" data-source-line="60" data-link-type="dependency"><path d="M435.346,867.782 C435.346,885.688 435.346,895.55 435.346,913.925" style="stroke:#2E4053;stroke-width:1.875;" fill="none" id="FEED-to-ENV"/><polygon points="435.346,923.3,442.846,906.425,435.346,913.925,427.846,906.425,435.346,923.3" fill="#2E4053" style="stroke:#2E4053;stroke-width:1.875;stroke-linejoin:miter;stroke-miterlimit:10;"/><text x="249.721" y="888.176" fill="#000" font-size="24.375" textLength="184.038" font-family="Arial">Feedback Loop</text></g><?plantuml-src RLDDRnen4BtxLupICsb8KgdAeL82cpPI8L6-r0CNunt0PNTcQniehIhrj_IdzPTqx8LbDms7bNZp_3ppvZdOK21Spf42t510fqsmJ32qUkvq2JqOhOfWUpNZqUdPp1eOCBlSaaxKXwqFM2eLk8B0CEKGk8JSEanIIlcbfKf7DR_GEMyipM6c2u-jobIRvTpnYl815-nWix2XNSyh2_tt9sq4PrfQksOAOrtA3CxgebKlB67OLWZimeBRNH3dwB62qxQSqxICuDb9csguh9ZYw3yLoE_grJPJHHn1LwDlJhFpatTd2RzqZZV_mx7j1_i3eTzNlvHIXukEdjnKKsDrHclhc4efJMX2Vt__WNlMEOmnRDWjQ-Im5yfjDDtN-71BkemYQpdkZq1xoCRFtUkUSM7DFWD-VyVbAZ1noIiFEy9ECYlH2TDi6pp9FcUVkhBtOh5RfuJqhhJ7V483BiiLMPF0T6fmEnfrZwKC-ZevBrhwp4ONdUZjx3ZS12DDUexHhAH_CtvyVTZiEvfLBR6RjweShp67aNnhioFSQMVWs7i9R-tZbspGrMvj2guHynZflVnJbUiWwdVis_lPm_lzFGJvc-IlismeyahM1RtUX-WlNC0TEeDLtNVYmksq6Vv0bh65tEaziKKlwaHAT5uuBUycT8_VLkY3Kgbu4EgyzeQaOh4bzL5UK82tGlWgTqveYCRwr5OZLm_nuaul_lbsQz5PeTKhmWdjDoBpnKgaH7U4KbjGcwXK0fE0s73Hh41omrMqabZ8piuN0NXMHwyT7Tc_GUylLF-u6VBqE3wfMM5D0BD0irHdnz0CTXw91Kgu5L8EKVyV?></g></svg>