<svg xmlns="http://www.w3.org/2000/svg" xmlns:xlink="http://www.w3.org/1999/xlink" version="1.1" data-diagram-type="CLASS" style="width:584px;height:1103px;background:#FFFFFF;" width="584px" height="1103px" viewBox="0 0 584 1103" zoomAndPan="magnify" preserveAspectRatio="none" contentStyleType="text/css"><?plantuml 1.2026.7beta8?><defs/><g font-family="sans-serif" lengthAdjust="spacing"><g class="title" data-source-line="1"><text x="129.237" y="22.995" fill="#000" font-size="14" textLength="318.855" font-weight="700">Multi-Agent Traffic Coordination System</text><text x="194.151" y="39.292" fill="#000" font-size="14" textLength="189.027" font-weight="700">Software Class Diagram</text></g><!--class Simulator--><g class="entity" data-qualified-name="Simulator" id="ent0001" data-source-line="7"><rect x="236.86" y="60.594" width="139.873" height="96.891" fill="#F1F1F1" style="stroke:#181818;stroke-width:0.5;" rx="2.5" ry="2.5"/><ellipse cx="269.998" cy="76.594" rx="11" ry="11" fill="#ADD1B2" style="stroke:#181818;stroke-width:1;"/><path d="M272.967,82.234 Q272.389,82.531 271.748,82.672 Q271.107,82.828 270.404,82.828 Q267.904,82.828 266.576,81.188 Q265.264,79.531 265.264,76.406 Q265.264,73.281 266.576,71.625 Q267.904,69.969 270.404,69.969 Q271.107,69.969 271.748,70.125 Q272.404,70.281 272.967,70.578 L272.967,73.297 Q272.342,72.719 271.748,72.453 Q271.154,72.172 270.529,72.172 Q269.185,72.172 268.498,73.25 Q267.81,74.313 267.81,76.406 Q267.81,78.5 268.498,79.578 Q269.185,80.641 270.529,80.641 Q271.154,80.641 271.748,80.375 Q272.342,80.094 272.967,79.516 L272.967,82.234 Z " fill="#000"/><text x="288.029" y="81.44" fill="#000" font-size="14" textLength="67.566">Simulator</text><line x1="237.86" y1="92.594" x2="375.733" y2="92.594" style="stroke:#181818;stroke-width:0.5;"/><line x1="237.86" y1="100.594" x2="375.733" y2="100.594" style="stroke:#181818;stroke-width:0.5;"/><text x="242.86" y="117.589" fill="#000" font-size="14" textLength="46.156">+run()</text><text x="242.86" y="133.886" fill="#000" font-size="14" textLength="71.982">+update()</text><text x="242.86" y="150.183" fill="#000" font-size="14" textLength="127.873">+collect_metrics()</text></g><!--class Environment--><g class="entity" data-qualified-name="Environment" id="ent0002" data-source-line="13"><rect x="167.65" y="217.494" width="150.291" height="129.484" fill="#F1F1F1" style="stroke:#181818;stroke-width:0.5;" rx="2.5" ry="2.5"/><ellipse cx="195.515" cy="233.494" rx="11" ry="11" fill="#ADD1B2" style="stroke:#181818;stroke-width:1;"/><path d="M198.484,239.134 Q197.906,239.431 197.265,239.572 Q196.625,239.728 195.922,239.728 Q193.422,239.728 192.094,238.087 Q190.781,236.431 190.781,233.306 Q190.781,230.181 192.094,228.525 Q193.422,226.869 195.922,226.869 Q196.625,226.869 197.265,227.025 Q197.922,227.181 198.484,227.478 L198.484,230.197 Q197.859,229.619 197.265,229.353 Q196.672,229.072 196.047,229.072 Q194.703,229.072 194.015,230.15 Q193.328,231.212 193.328,233.306 Q193.328,235.4 194.015,236.478 Q194.703,237.541 196.047,237.541 Q196.672,237.541 197.265,237.275 Q197.859,236.994 198.484,236.416 L198.484,239.134 Z " fill="#000"/><text x="212.374" y="238.34" fill="#000" font-size="14" textLength="89.701">Environment</text><line x1="168.65" y1="249.494" x2="316.941" y2="249.494" style="stroke:#181818;stroke-width:0.5;"/><text x="173.65" y="266.489" fill="#000" font-size="14" textLength="100.693">-road_network</text><text x="173.65" y="282.786" fill="#000" font-size="14" textLength="62.207">-vehicles</text><text x="173.65" y="299.083" fill="#000" font-size="14" textLength="91.643">-traffic_lights</text><line x1="168.65" y1="306.384" x2="316.941" y2="306.384" style="stroke:#181818;stroke-width:1;"/><text x="173.65" y="323.379" fill="#000" font-size="14" textLength="71.982">+update()</text><text x="173.65" y="339.676" fill="#000" font-size="14" textLength="138.291">+detect_collisions()</text></g><!--class VehicleAgent--><g class="entity" data-qualified-name="VehicleAgent" id="ent0003" data-source-line="22"><rect x="50.35" y="406.974" width="174.894" height="162.078" fill="#F1F1F1" style="stroke:#181818;stroke-width:0.5;" rx="2.5" ry="2.5"/><ellipse cx="87.985" cy="422.974" rx="11" ry="11" fill="#ADD1B2" style="stroke:#181818;stroke-width:1;"/><path d="M90.954,428.614 Q90.376,428.911 89.735,429.052 Q89.095,429.208 88.392,429.208 Q85.892,429.208 84.563,427.568 Q83.251,425.911 83.251,422.786 Q83.251,419.661 84.563,418.005 Q85.892,416.349 88.392,416.349 Q89.095,416.349 89.735,416.505 Q90.392,416.661 90.954,416.958 L90.954,419.677 Q90.329,419.099 89.735,418.833 Q89.142,418.552 88.517,418.552 Q87.173,418.552 86.485,419.63 Q85.798,420.693 85.798,422.786 Q85.798,424.88 86.485,425.958 Q87.173,427.021 88.517,427.021 Q89.142,427.021 89.735,426.755 Q90.329,426.474 90.954,425.896 L90.954,428.614 Z " fill="#000"/><text x="107.015" y="427.82" fill="#000" font-size="14" textLength="92.593">VehicleAgent</text><line x1="51.35" y1="438.974" x2="224.244" y2="438.974" style="stroke:#181818;stroke-width:0.5;"/><text x="56.35" y="455.969" fill="#000" font-size="14" textLength="74.689">-vehicle_id</text><text x="56.35" y="472.266" fill="#000" font-size="14" textLength="60.505">-position</text><text x="56.35" y="488.563" fill="#000" font-size="14" textLength="59.767">-velocity</text><text x="56.35" y="504.859" fill="#000" font-size="14" textLength="134.784">-reservation_status</text><line x1="51.35" y1="512.161" x2="224.244" y2="512.161" style="stroke:#181818;stroke-width:1;"/><text x="56.35" y="529.156" fill="#000" font-size="14" textLength="78.668">+observe()</text><text x="56.35" y="545.453" fill="#000" font-size="14" textLength="162.894">+request_reservation()</text><text x="56.35" y="561.75" fill="#000" font-size="14" textLength="154.697">+update_movement()</text></g><!--class IntersectionAgent--><g class="entity" data-qualified-name="IntersectionAgent" id="ent0004" data-source-line="33"><rect x="189.33" y="785.944" width="178.94" height="129.484" fill="#F1F1F1" style="stroke:#181818;stroke-width:0.5;" rx="2.5" ry="2.5"/><ellipse cx="214.328" cy="801.944" rx="11" ry="11" fill="#ADD1B2" style="stroke:#181818;stroke-width:1;"/><path d="M217.297,807.584 Q216.719,807.881 216.078,808.022 Q215.438,808.178 214.735,808.178 Q212.235,808.178 210.907,806.537 Q209.594,804.881 209.594,801.756 Q209.594,798.631 210.907,796.975 Q212.235,795.319 214.735,795.319 Q215.438,795.319 216.078,795.475 Q216.735,795.631 217.297,795.928 L217.297,798.647 Q216.672,798.069 216.078,797.803 Q215.485,797.522 214.86,797.522 Q213.516,797.522 212.828,798.6 Q212.141,799.662 212.141,801.756 Q212.141,803.85 212.828,804.928 Q213.516,805.991 214.86,805.991 Q215.485,805.991 216.078,805.725 Q216.672,805.444 217.297,804.866 L217.297,807.584 Z " fill="#000"/><text x="230.55" y="806.79" fill="#000" font-size="14" textLength="124.722">IntersectionAgent</text><line x1="190.33" y1="817.944" x2="367.27" y2="817.944" style="stroke:#181818;stroke-width:0.5;"/><text x="195.33" y="834.939" fill="#000" font-size="14" textLength="107.871">-intersection_id</text><text x="195.33" y="851.236" fill="#000" font-size="14" textLength="135.625">-reservation_queue</text><line x1="190.33" y1="858.537" x2="367.27" y2="858.537" style="stroke:#181818;stroke-width:1;"/><text x="195.33" y="875.533" fill="#000" font-size="14" textLength="134.647">+receive_request()</text><text x="195.33" y="891.829" fill="#000" font-size="14" textLength="166.94">+approve_reservation()</text><text x="195.33" y="908.126" fill="#000" font-size="14" textLength="160.727">+release_reservation()</text></g><!--class ReservationManager--><g class="entity" data-qualified-name="ReservationManager" id="ent0005" data-source-line="42"><rect x="119.27" y="975.424" width="177.052" height="113.188" fill="#F1F1F1" style="stroke:#181818;stroke-width:0.5;" rx="2.5" ry="2.5"/><ellipse cx="134.27" cy="991.424" rx="11" ry="11" fill="#ADD1B2" style="stroke:#181818;stroke-width:1;"/><path d="M137.239,997.064 Q136.661,997.361 136.02,997.502 Q135.379,997.658 134.676,997.658 Q132.176,997.658 130.848,996.017 Q129.536,994.361 129.536,991.236 Q129.536,988.111 130.848,986.455 Q132.176,984.799 134.676,984.799 Q135.379,984.799 136.02,984.955 Q136.676,985.111 137.239,985.408 L137.239,988.127 Q136.614,987.549 136.02,987.283 Q135.426,987.002 134.801,987.002 Q133.457,987.002 132.77,988.08 Q132.082,989.142 132.082,991.236 Q132.082,993.33 132.77,994.408 Q133.457,995.471 134.801,995.471 Q135.426,995.471 136.02,995.205 Q136.614,994.924 137.239,994.346 L137.239,997.064 Z " fill="#000"/><text x="148.27" y="996.27" fill="#000" font-size="14" textLength="145.052">ReservationManager</text><line x1="120.27" y1="1007.424" x2="295.322" y2="1007.424" style="stroke:#181818;stroke-width:0.5;"/><text x="125.27" y="1024.419" fill="#000" font-size="14" textLength="141.613">-active_reservations</text><line x1="120.27" y1="1031.721" x2="295.322" y2="1031.721" style="stroke:#181818;stroke-width:1;"/><text x="125.27" y="1048.716" fill="#000" font-size="14" textLength="121.673">+check_conflict()</text><text x="125.27" y="1065.013" fill="#000" font-size="14" textLength="164.671">+allocate_reservation()</text><text x="125.27" y="1081.309" fill="#000" font-size="14" textLength="127.887">+handle_priority()</text></g><!--class Message--><g class="entity" data-qualified-name="Message" id="ent0006" data-source-line="50"><rect x="91.12" y="629.054" width="93.359" height="96.891" fill="#F1F1F1" style="stroke:#181818;stroke-width:0.5;" rx="2.5" ry="2.5"/><ellipse cx="106.12" cy="645.054" rx="11" ry="11" fill="#ADD1B2" style="stroke:#181818;stroke-width:1;"/><path d="M109.089,650.694 Q108.511,650.991 107.87,651.132 Q107.229,651.288 106.526,651.288 Q104.026,651.288 102.698,649.648 Q101.386,647.991 101.386,644.866 Q101.386,641.741 102.698,640.085 Q104.026,638.429 106.526,638.429 Q107.229,638.429 107.87,638.585 Q108.526,638.741 109.089,639.038 L109.089,641.757 Q108.464,641.179 107.87,640.913 Q107.276,640.632 106.651,640.632 Q105.308,640.632 104.62,641.71 Q103.933,642.773 103.933,644.866 Q103.933,646.96 104.62,648.038 Q105.308,649.101 106.651,649.101 Q107.276,649.101 107.87,648.835 Q108.464,648.554 109.089,647.976 L109.089,650.694 Z " fill="#000"/><text x="120.12" y="649.9" fill="#000" font-size="14" textLength="61.359">Message</text><line x1="92.12" y1="661.054" x2="183.479" y2="661.054" style="stroke:#181818;stroke-width:0.5;"/><text x="97.12" y="678.049" fill="#000" font-size="14" textLength="53.088">-sender</text><text x="97.12" y="694.346" fill="#000" font-size="14" textLength="62.275">-receiver</text><text x="97.12" y="710.643" fill="#000" font-size="14" textLength="36.326">-type</text><line x1="92.12" y1="717.944" x2="183.479" y2="717.944" style="stroke:#181818;stroke-width:0.5;"/></g><!--class MetricsCollector--><g class="entity" data-qualified-name="MetricsCollector" id="ent0007" data-source-line="56"><rect x="424.27" y="217.494" width="145.06" height="129.484" fill="#F1F1F1" style="stroke:#181818;stroke-width:0.5;" rx="2.5" ry="2.5"/><ellipse cx="439.27" cy="233.494" rx="11" ry="11" fill="#ADD1B2" style="stroke:#181818;stroke-width:1;"/><path d="M442.239,239.134 Q441.661,239.431 441.02,239.572 Q440.379,239.728 439.676,239.728 Q437.176,239.728 435.848,238.087 Q434.536,236.431 434.536,233.306 Q434.536,230.181 435.848,228.525 Q437.176,226.869 439.676,226.869 Q440.379,226.869 441.02,227.025 Q441.676,227.181 442.239,227.478 L442.239,230.197 Q441.614,229.619 441.02,229.353 Q440.426,229.072 439.801,229.072 Q438.458,229.072 437.77,230.15 Q437.083,231.212 437.083,233.306 Q437.083,235.4 437.77,236.478 Q438.458,237.541 439.801,237.541 Q440.426,237.541 441.02,237.275 Q441.614,236.994 442.239,236.416 L442.239,239.134 Z " fill="#000"/><text x="453.27" y="238.34" fill="#000" font-size="14" textLength="113.06">MetricsCollector</text><line x1="425.27" y1="249.494" x2="568.33" y2="249.494" style="stroke:#181818;stroke-width:0.5;"/><text x="430.27" y="266.489" fill="#000" font-size="14" textLength="84.294">-travel_time</text><text x="430.27" y="282.786" fill="#000" font-size="14" textLength="94.739">-waiting_time</text><text x="430.27" y="299.083" fill="#000" font-size="14" textLength="68.899">-collisions</text><line x1="425.27" y1="306.384" x2="568.33" y2="306.384" style="stroke:#181818;stroke-width:1;"/><text x="430.27" y="323.379" fill="#000" font-size="14" textLength="67.929">+record()</text><text x="430.27" y="339.676" fill="#000" font-size="14" textLength="68.25">+export()</text></g><!--link Simulator to Environment--><g class="link" data-entity-1="ent0001" data-entity-2="ent0002" id="lnk8" data-source-line="66" data-link-type="dependency"><path d="M277.4,157.744 C277.4,176.154 277.4,192.414 277.4,212.084" style="stroke:#181818;stroke-width:1;" fill="none" id="Simulator-to-Environment" codeLine="66"/><polygon points="277.4,217.084,281.4,208.084,277.4,212.084,273.4,208.084,277.4,217.084" fill="#181818" style="stroke:#181818;stroke-width:1;stroke-linejoin:miter;stroke-miterlimit:10;"/><text x="224.4" y="183.481" fill="#000" font-size="13" textLength="52.578">updates</text></g><!--link Simulator to VehicleAgent--><g class="link" data-entity-1="ent0001" data-entity-2="ent0003" id="lnk9" data-source-line="67" data-link-type="dependency"><path d="M236.5,109.614 C179.65,109.614 109,109.614 109,109.614 C109,109.614 109,290.654 109,401.834" style="stroke:#181818;stroke-width:1;" fill="none" id="Simulator-to-VehicleAgent" codeLine="67"/><polygon points="109,406.834,113,397.834,109,401.834,105,397.834,109,406.834" fill="#181818" style="stroke:#181818;stroke-width:1;stroke-linejoin:miter;stroke-miterlimit:10;"/><text x="7" y="190.541" fill="#000" font-size="13" textLength="101.708">execution cycle</text></g><!--link Simulator to IntersectionAgent--><g class="link" data-entity-1="ent0001" data-entity-2="ent0004" id="lnk10" data-source-line="68" data-link-type="dependency"><path d="M343.1,157.704 C343.1,287.014 343.1,634.254 343.1,780.594" style="stroke:#181818;stroke-width:1;" fill="none" id="Simulator-to-IntersectionAgent" codeLine="68"/><polygon points="343.1,785.594,347.1,776.594,343.1,780.594,339.1,776.594,343.1,785.594" fill="#181818" style="stroke:#181818;stroke-width:1;stroke-linejoin:miter;stroke-miterlimit:10;"/><text x="241.1" y="467.711" fill="#000" font-size="13" textLength="101.708">execution cycle</text></g><!--link Environment to VehicleAgent--><g class="link" data-entity-1="ent0002" data-entity-2="ent0003" id="lnk11" data-source-line="70" data-link-type="dependency"><path d="M196.45,347.344 C196.45,366.184 196.45,381.984 196.45,401.684" style="stroke:#181818;stroke-width:1;" fill="none" id="Environment-to-VehicleAgent" codeLine="70"/><polygon points="196.45,406.684,200.45,397.684,196.45,401.684,192.45,397.684,196.45,406.684" fill="#181818" style="stroke:#181818;stroke-width:1;stroke-linejoin:miter;stroke-miterlimit:10;"/><text x="128.45" y="373.081" fill="#000" font-size="13" textLength="67.355">local state</text></g><!--link Environment to IntersectionAgent--><g class="link" data-entity-1="ent0002" data-entity-2="ent0004" id="lnk12" data-source-line="71" data-link-type="dependency"><path d="M271.59,347.444 C271.59,456.944 271.59,671.514 271.59,780.804" style="stroke:#181818;stroke-width:1;" fill="none" id="Environment-to-IntersectionAgent" codeLine="71"/><polygon points="271.59,785.804,275.59,776.804,271.59,780.804,267.59,776.804,271.59,785.804" fill="#181818" style="stroke:#181818;stroke-width:1;stroke-linejoin:miter;stroke-miterlimit:10;"/><text x="272.59" y="562.691" fill="#000" font-size="13" textLength="114.175">intersection state</text></g><!--link VehicleAgent to Message--><g class="link" data-entity-1="ent0003" data-entity-2="ent0006" id="lnk13" data-source-line="73" data-link-type="dependency"><path d="M137.8,569.474 C137.8,589.634 137.8,605.614 137.8,623.664" style="stroke:#181818;stroke-width:1;" fill="none" id="VehicleAgent-to-Message" codeLine="73"/><polygon points="137.8,628.664,141.8,619.664,137.8,623.664,133.8,619.664,137.8,628.664" fill="#181818" style="stroke:#181818;stroke-width:1;stroke-linejoin:miter;stroke-miterlimit:10;"/><text x="9.8" y="595.131" fill="#000" font-size="13" textLength="127.854">reservation request</text></g><!--link Message to IntersectionAgent--><g class="link" data-entity-1="ent0006" data-entity-2="ent0004" id="lnk14" data-source-line="74" data-link-type="dependency"><path d="M184.92,677.614 C197.31,677.614 207.28,677.614 207.28,677.614 C207.28,677.614 207.28,731.634 207.28,780.744" style="stroke:#181818;stroke-width:1;" fill="none" id="Message-to-IntersectionAgent" codeLine="74"/><polygon points="207.28,785.744,211.28,776.744,207.28,780.744,203.28,776.744,207.28,785.744" fill="#181818" style="stroke:#181818;stroke-width:1;stroke-linejoin:miter;stroke-miterlimit:10;"/><text x="208.28" y="716.561" fill="#000" font-size="13" textLength="121.678">request / response</text></g><!--link IntersectionAgent to ReservationManager--><g class="link" data-entity-1="ent0004" data-entity-2="ent0005" id="lnk15" data-source-line="76" data-link-type="dependency"><path d="M242.82,915.894 C242.82,935.284 242.82,951.374 242.82,970.184" style="stroke:#181818;stroke-width:1;" fill="none" id="IntersectionAgent-to-ReservationManager" codeLine="76"/><polygon points="242.82,975.184,246.82,966.184,242.82,970.184,238.82,966.184,242.82,975.184" fill="#181818" style="stroke:#181818;stroke-width:1;stroke-linejoin:miter;stroke-miterlimit:10;"/><text x="107.82" y="941.611" fill="#000" font-size="13" textLength="134.564">reservation handling</text></g><!--link ReservationManager to Message--><g class="link" data-entity-1="ent0005" data-entity-2="ent0006" id="lnk16" data-source-line="78" data-link-type="dependency"><path d="M151.87,975.064 C151.87,906.164 151.87,796.354 151.87,731.324" style="stroke:#181818;stroke-width:1;" fill="none" id="ReservationManager-to-Message" codeLine="78"/><polygon points="151.87,726.324,147.87,735.324,151.87,731.324,155.87,735.324,151.87,726.324" fill="#181818" style="stroke:#181818;stroke-width:1;stroke-linejoin:miter;stroke-miterlimit:10;"/><text x="91.87" y="846.761" fill="#000" font-size="13" textLength="59.332">response</text></g><!--link Simulator to MetricsCollector--><g class="link" data-entity-1="ent0001" data-entity-2="ent0007" id="lnk17" data-source-line="80" data-link-type="dependency"><path d="M372.5,157.854 C372.5,209.194 372.5,282.614 372.5,282.614 C372.5,282.614 391.72,282.614 418.77,282.614" style="stroke:#181818;stroke-width:1;" fill="none" id="Simulator-to-MetricsCollector" codeLine="80"/><polygon points="423.77,282.614,414.77,278.614,418.77,282.614,414.77,286.614,423.77,282.614" fill="#181818" style="stroke:#181818;stroke-width:1;stroke-linejoin:miter;stroke-miterlimit:10;"/><text x="315" y="258.941" fill="#000" font-size="13" textLength="115.737">simulation results</text></g><?plantuml-src TLIxZjim4Epr5ImJ149IkmXmS59SuIOEKWKGUDHAMfWY5N9bdtF8lsSfIZPfwLo9-vhXxD24f44SHarOFhLWIFnqicbGYRsrhaOZ2QqHnwidw7-Reste8Xs8lPRUYsyeMoVxel0dD8FaJw52ued8uSj8yAoiEU9V45-I4j_9sbxGjAAHsaEIqMY0hWC8wwYpHJ4D4qViHot9El5M2FvzSgFvy35-ZaCj2PQJibg3ege7nbUUm_-M8T_D6PqrVRXY75CwA-kA0I_MdMBa31qg3JwUA2fHQMmxccFb5cmD5503EdgMAmF-5MT6STyod0hhU1winw3pajLM8Lrdbk31dQSrL9uaZJaJ-nBIDoeE_epWgKgwSgcgtfuXg91oV3O4plCTk3mZYadYnZPbn6WZP8GSAC0pL3EJ1LqEWxDJU4NCWGRf7rCtSZ_kuOCqieN51wLaNld8N1lLWJhnMaoZKTsPQ9OtAB51fPEcvhqC3gtZ3QGq3k0zWo_O7amDRX5akl9y2WPEsoOhxgCpRnuEvk8zLuJzBDz5iWLCcqJkVdeKc5_cmXXU1tuiaMXnVobb-JMp_4x4zVk7cioTEm6leCRfnQihXn-ArpPPTnGfwWP2q5wBO6HObMxDJnqujnNPoD2ux6OdafsAsO75adqFOguJdqFtm78pnBekT6zOCOUS_CDRB8gDqXNJ6IiNUMMOdV2n8Dx9yt-r_my0?></g></svg>