<svg xmlns="http://www.w3.org/2000/svg" xmlns:xlink="http://www.w3.org/1999/xlink" version="1.1" data-diagram-type="DESCRIPTION" style="width:348px;height:468px;background:#FFFFFF;" width="348px" height="468px" viewBox="0 0 348 468" zoomAndPan="magnify" preserveAspectRatio="none" contentStyleType="text/css"><?plantuml 1.2026.7beta8?><defs/><g font-family="sans-serif" lengthAdjust="spacing"><g class="title" data-source-line="1"><text x="76.595" y="22.995" fill="#000" font-size="14" textLength="187.981" font-weight="700">Simulation Architecture</text></g><!--entity SIM--><g class="entity" data-qualified-name="SIM" id="ent0001" data-source-line="14"><rect x="205.31" y="44.297" width="128.861" height="33.969" fill="#FFF" style="stroke:#000;stroke-width:0.5;" rx="7.5" ry="7.5"/><text x="215.31" y="65.436" fill="#000" font-size="12" textLength="108.861">Simulation Engine</text></g><!--entity ENV--><g class="entity" data-qualified-name="ENV" id="ent0002" data-source-line="16"><rect x="47.66" y="138.267" width="134.158" height="33.969" fill="#FFF" style="stroke:#000;stroke-width:0.5;" rx="7.5" ry="7.5"/><text x="57.66" y="159.406" fill="#000" font-size="12" textLength="114.158">Environment Layer</text></g><!--entity AGENT--><g class="entity" data-qualified-name="AGENT" id="ent0003" data-source-line="17"><rect x="160.34" y="232.227" width="92.791" height="33.969" fill="#FFF" style="stroke:#000;stroke-width:0.5;" rx="7.5" ry="7.5"/><text x="170.34" y="253.366" fill="#000" font-size="12" textLength="72.791">Agent Layer</text></g><!--entity RM--><g class="entity" data-qualified-name="RM" id="ent0004" data-source-line="18"><rect x="160.67" y="326.197" width="148.145" height="33.969" fill="#FFF" style="stroke:#000;stroke-width:0.5;" rx="7.5" ry="7.5"/><text x="170.67" y="347.336" fill="#000" font-size="12" textLength="128.145">Reservation Manager</text></g><!--entity MET--><g class="entity" data-qualified-name="MET" id="ent0005" data-source-line="19"><rect x="171.37" y="420.167" width="126.729" height="33.969" fill="#FFF" style="stroke:#000;stroke-width:0.5;" rx="7.5" ry="7.5"/><text x="181.37" y="441.306" fill="#000" font-size="12" textLength="106.729">Metrics Collection</text></g><!--link SIM to ENV--><g class="link" data-entity-1="ent0001" data-entity-2="ent0002" id="lnk6" data-source-line="21" data-link-type="dependency"><path d="M221.25,78.677 C221.25,106.057 221.25,156.137 221.25,156.137 C221.25,156.137 208.33,156.137 187.19,156.137" style="stroke:#181818;stroke-width:1;" fill="none" id="SIM-to-ENV"/><polygon points="182.19,156.137,191.19,160.137,187.19,156.137,191.19,152.137,182.19,156.137" fill="#181818" style="stroke:#181818;stroke-width:1;stroke-linejoin:miter;stroke-miterlimit:10;"/></g><!--link SIM to AGENT--><g class="link" data-entity-1="ent0001" data-entity-2="ent0003" id="lnk7" data-source-line="22" data-link-type="dependency"><path d="M237.19,78.617 C237.19,114.427 237.19,191.147 237.19,226.917" style="stroke:#181818;stroke-width:1;" fill="none" id="SIM-to-AGENT"/><polygon points="237.19,231.917,241.19,222.917,237.19,226.917,233.19,222.917,237.19,231.917" fill="#181818" style="stroke:#181818;stroke-width:1;stroke-linejoin:miter;stroke-miterlimit:10;"/></g><!--link SIM to RM--><g class="link" data-entity-1="ent0001" data-entity-2="ent0004" id="lnk8" data-source-line="23" data-link-type="dependency"><path d="M280.97,78.487 C280.97,128.817 280.97,270.347 280.97,320.837" style="stroke:#181818;stroke-width:1;" fill="none" id="SIM-to-RM"/><polygon points="280.97,325.837,284.97,316.837,280.97,320.837,276.97,316.837,280.97,325.837" fill="#181818" style="stroke:#181818;stroke-width:1;stroke-linejoin:miter;stroke-miterlimit:10;"/></g><!--link SIM to MET--><g class="link" data-entity-1="ent0001" data-entity-2="ent0005" id="lnk9" data-source-line="24" data-link-type="dependency"><path d="M321.49,78.447 C321.49,152.177 321.49,438.137 321.49,438.137 C321.49,438.137 316.47,438.137 303.24,438.137" style="stroke:#181818;stroke-width:1;" fill="none" id="SIM-to-MET"/><polygon points="298.24,438.137,307.24,442.137,303.24,438.137,307.24,434.137,298.24,438.137" fill="#181818" style="stroke:#181818;stroke-width:1;stroke-linejoin:miter;stroke-miterlimit:10;"/></g><!--link ENV to AGENT--><g class="link" data-entity-1="ent0002" data-entity-2="ent0003" id="lnk10" data-source-line="26" data-link-type="dependency"><path d="M167.5,172.477 C167.5,189.327 167.5,209.847 167.5,226.767" style="stroke:#181818;stroke-width:1;" fill="none" id="ENV-to-AGENT"/><polygon points="167.5,231.767,171.5,222.767,167.5,226.767,163.5,222.767,167.5,231.767" fill="#181818" style="stroke:#181818;stroke-width:1;stroke-linejoin:miter;stroke-miterlimit:10;"/><text x="96.5" y="199.266" fill="#000" font-size="12" textLength="70.67">World State</text></g><!--link AGENT to ENV--><g class="link" data-entity-1="ent0003" data-entity-2="ent0002" id="lnk13" data-source-line="31" data-link-type="dependency"><path d="M174.66,231.977 C174.66,215.127 174.66,194.607 174.66,177.687" style="stroke:#181818;stroke-width:1;" fill="none" id="AGENT-to-ENV"/><polygon points="174.66,172.687,170.66,181.687,174.66,177.687,178.66,181.687,174.66,172.687" fill="#181818" style="stroke:#181818;stroke-width:1;stroke-linejoin:miter;stroke-miterlimit:10;"/><text x="129.76" y="214.476" fill="#000" font-size="12" textLength="43.846">Vehicle</text><text x="129.66" y="228.444" fill="#000" font-size="12" textLength="44.045">Actions</text></g><!--link AGENT to RM--><g class="link" data-entity-1="ent0003" data-entity-2="ent0004" id="lnk11" data-source-line="28" data-link-type="dependency"><path d="M191.49,266.447 C191.49,283.297 191.49,303.817 191.49,320.737" style="stroke:#181818;stroke-width:1;" fill="none" id="AGENT-to-RM"/><polygon points="191.49,325.737,195.49,316.737,191.49,320.737,187.49,316.737,191.49,325.737" fill="#181818" style="stroke:#181818;stroke-width:1;stroke-linejoin:miter;stroke-miterlimit:10;"/><text x="119.49" y="279.236" fill="#000" font-size="12" textLength="71.73">Reservation</text><text x="127.588" y="293.204" fill="#000" font-size="12" textLength="55.535">Requests</text></g><!--link RM to AGENT--><g class="link" data-entity-1="ent0004" data-entity-2="ent0003" id="lnk12" data-source-line="29" data-link-type="dependency"><path d="M222.31,325.947 C222.31,309.097 222.31,288.577 222.31,271.657" style="stroke:#181818;stroke-width:1;" fill="none" id="RM-to-AGENT"/><polygon points="222.31,266.657,218.31,275.657,222.31,271.657,226.31,275.657,222.31,266.657" fill="#181818" style="stroke:#181818;stroke-width:1;stroke-linejoin:miter;stroke-miterlimit:10;"/><text x="150.31" y="308.446" fill="#000" font-size="12" textLength="71.73">Reservation</text><text x="153.963" y="322.414" fill="#000" font-size="12" textLength="64.424">Responses</text></g><!--link ENV to MET--><g class="link" data-entity-1="ent0002" data-entity-2="ent0005" id="lnk14" data-source-line="33" data-link-type="dependency"><path d="M104,172.517 C104,233.937 104,438.137 104,438.137 C104,438.137 132.71,438.137 165.9,438.137" style="stroke:#181818;stroke-width:1;" fill="none" id="ENV-to-MET"/><polygon points="170.9,438.137,161.9,434.137,165.9,438.137,161.9,442.137,170.9,438.137" fill="#181818" style="stroke:#181818;stroke-width:1;stroke-linejoin:miter;stroke-miterlimit:10;"/><text x="7" y="335.916" fill="#000" font-size="12" textLength="96.387">Simulation Data</text></g><!--link RM to MET--><g class="link" data-entity-1="ent0004" data-entity-2="ent0005" id="lnk15" data-source-line="34" data-link-type="dependency"><path d="M234.74,360.417 C234.74,377.267 234.74,397.787 234.74,414.707" style="stroke:#181818;stroke-width:1;" fill="none" id="RM-to-MET"/><polygon points="234.74,419.707,238.74,410.707,234.74,414.707,230.74,410.707,234.74,419.707" fill="#181818" style="stroke:#181818;stroke-width:1;stroke-linejoin:miter;stroke-miterlimit:10;"/><text x="129.74" y="387.206" fill="#000" font-size="12" textLength="104.197">Reservation Data</text></g><?plantuml-src NP0nJyCm48Lt_ufJzmv5Okc0b490IAH3KhLB5vDS4wlENR0lHGNntt4JehfaSlm-l_Vkn8X5A4pRMos62H9NDaQmbDwXKi8T2CCxYt0BbN5129HI_cYeqqwtu1jTyQUX6WxQUemKnprL9Jj21ulxM0WkckeG_AqWV2jT7kk1VcJB3dQN1gF2ha8ttgvimDHFv5FXGVTMdfcaC5y8Yxj8j8PGpXq2EsbOgMleB1etfJfmCz0UYjViXahfP1nJYoJmfi_e1YfTRsCegM_bv2LTRs8WHu_kD8PbcdJz1-PPJ6KepfGUmgHsNF40PUb6gT0BvlE78NawZp7JN_2QZiEBG5ufMCAEdQsW41ssgiRByLdGedvxol6ZHozUvTcDmJ_8TqmUVUnrYLp25XjJMjnJCipWhrL2hw17Yt_IegUOKOmtTL5_0G00?></g></svg>