<svg xmlns="http://www.w3.org/2000/svg" xmlns:xlink="http://www.w3.org/1999/xlink" version="1.1" data-diagram-type="ACTIVITY" style="width:356px;height:668px;background:#FFFFFF;" width="356px" height="668px" viewBox="0 0 356 668" zoomAndPan="magnify" preserveAspectRatio="none" contentStyleType="text/css"><?plantuml 1.2026.7beta8?><defs/><g font-family="sans-serif" lengthAdjust="spacing"><g class="title" data-source-line="1"><text x="35.018" y="32.995" fill="#000" font-size="14" textLength="284.3" font-weight="700">Intersection Agent Activity Diagram</text></g><ellipse cx="192.417" cy="62.297" rx="10" ry="10" fill="#222" style="stroke:#222;stroke-width:1;"/><rect x="94.336" y="92.297" width="196.162" height="33.969" fill="#F1F1F1" style="stroke:#181818;stroke-width:0.5;" rx="12.5" ry="12.5"/><text x="104.336" y="113.436" fill="#000" font-size="12" textLength="176.162">Receive Reservation Request</text><rect x="102.49" y="146.266" width="179.855" height="33.969" fill="#F1F1F1" style="stroke:#181818;stroke-width:0.5;" rx="12.5" ry="12.5"/><text x="112.49" y="167.404" fill="#000" font-size="12" textLength="159.855">Check Active Reservations</text><polygon points="125.918,200.234,258.917,200.234,270.917,212.234,258.917,224.234,125.918,224.234,113.918,212.234,125.918,200.234" fill="#F1F1F1" style="stroke:#181818;stroke-width:0.5;stroke-linejoin:miter;stroke-miterlimit:10;"/><text x="125.918" y="216.042" fill="#000" font-size="11" textLength="132.999">Conflict Zone Available?</text><text x="94.7" y="209.64" fill="#000" font-size="11" textLength="19.218">Yes</text><text x="270.917" y="209.64" fill="#000" font-size="11" textLength="14.958">No</text><rect x="20.512" y="234.234" width="166.813" height="33.969" fill="#F1F1F1" style="stroke:#181818;stroke-width:0.5;" rx="12.5" ry="12.5"/><text x="30.512" y="255.373" fill="#000" font-size="12" textLength="146.813">Evaluate Vehicle Priority</text><rect x="39.197" y="288.203" width="129.441" height="33.969" fill="#F1F1F1" style="stroke:#181818;stroke-width:0.5;" rx="12.5" ry="12.5"/><text x="49.197" y="309.342" fill="#000" font-size="12" textLength="109.441">Grant Reservation</text><rect x="16" y="342.172" width="175.836" height="33.969" fill="#F1F1F1" style="stroke:#181818;stroke-width:0.5;" rx="12.5" ry="12.5"/><text x="26" y="363.311" fill="#000" font-size="12" textLength="155.836">Update Reservation Table</text><rect x="225.498" y="234.234" width="110.838" height="33.969" fill="#F1F1F1" style="stroke:#181818;stroke-width:0.5;" rx="12.5" ry="12.5"/><text x="235.498" y="255.373" fill="#000" font-size="12" textLength="90.838">Reject Request</text><rect x="230.332" y="288.203" width="101.17" height="33.969" fill="#F1F1F1" style="stroke:#181818;stroke-width:0.5;" rx="12.5" ry="12.5"/><text x="240.332" y="309.342" fill="#000" font-size="12" textLength="81.17">Vehicle Waits</text><polygon points="192.417,382.141,204.417,394.141,192.417,406.141,180.417,394.141,192.417,382.141" fill="#F1F1F1" style="stroke:#181818;stroke-width:0.5;stroke-linejoin:miter;stroke-miterlimit:10;"/><rect x="111.273" y="426.141" width="162.289" height="33.969" fill="#F1F1F1" style="stroke:#181818;stroke-width:0.5;" rx="12.5" ry="12.5"/><text x="121.273" y="447.279" fill="#000" font-size="12" textLength="142.289">Monitor Active Crossing</text><rect x="120.932" y="528.512" width="142.971" height="33.969" fill="#F1F1F1" style="stroke:#181818;stroke-width:0.5;" rx="12.5" ry="12.5"/><text x="130.932" y="549.65" fill="#000" font-size="12" textLength="122.971">Release Reservation</text><polygon points="111.929,480.109,272.906,480.109,284.906,492.109,272.906,504.109,111.929,504.109,99.929,492.109,111.929,480.109" fill="#F1F1F1" style="stroke:#181818;stroke-width:0.5;stroke-linejoin:miter;stroke-miterlimit:10;"/><text x="196.417" y="514.32" fill="#000" font-size="11" textLength="19.218">Yes</text><text x="111.929" y="495.917" fill="#000" font-size="11" textLength="160.977">Vehicle Cleared Intersection?</text><polygon points="192.417,582.48,204.417,594.48,192.417,606.48,180.417,594.48,192.417,582.48" fill="#F1F1F1" style="stroke:#181818;stroke-width:0.5;stroke-linejoin:miter;stroke-miterlimit:10;"/><ellipse cx="192.417" cy="637.48" rx="11" ry="11" fill="none" style="stroke:#222;stroke-width:1;"/><ellipse cx="192.417" cy="637.48" rx="6" ry="6" fill="#222" style="stroke:#222;stroke-width:1;"/><line x1="192.417" y1="72.297" x2="192.417" y2="92.297" style="stroke:#181818;stroke-width:1;"/><polygon points="188.417,82.297,192.417,92.297,196.417,82.297,192.417,86.297" fill="#181818" style="stroke:#181818;stroke-width:1;stroke-linejoin:miter;stroke-miterlimit:10;"/><line x1="192.417" y1="126.266" x2="192.417" y2="146.266" style="stroke:#181818;stroke-width:1;"/><polygon points="188.417,136.266,192.417,146.266,196.417,136.266,192.417,140.266" fill="#181818" style="stroke:#181818;stroke-width:1;stroke-linejoin:miter;stroke-miterlimit:10;"/><line x1="103.918" y1="268.203" x2="103.918" y2="288.203" style="stroke:#181818;stroke-width:1;"/><polygon points="99.918,278.203,103.918,288.203,107.918,278.203,103.918,282.203" fill="#181818" style="stroke:#181818;stroke-width:1;stroke-linejoin:miter;stroke-miterlimit:10;"/><line x1="103.918" y1="322.172" x2="103.918" y2="342.172" style="stroke:#181818;stroke-width:1;"/><polygon points="99.918,332.172,103.918,342.172,107.918,332.172,103.918,336.172" fill="#181818" style="stroke:#181818;stroke-width:1;stroke-linejoin:miter;stroke-miterlimit:10;"/><line x1="280.917" y1="268.203" x2="280.917" y2="288.203" style="stroke:#181818;stroke-width:1;"/><polygon points="276.917,278.203,280.917,288.203,284.917,278.203,280.917,282.203" fill="#181818" style="stroke:#181818;stroke-width:1;stroke-linejoin:miter;stroke-miterlimit:10;"/><line x1="113.918" y1="212.234" x2="103.918" y2="212.234" style="stroke:#181818;stroke-width:1;"/><line x1="103.918" y1="212.234" x2="103.918" y2="234.234" style="stroke:#181818;stroke-width:1;"/><polygon points="99.918,224.234,103.918,234.234,107.918,224.234,103.918,228.234" fill="#181818" style="stroke:#181818;stroke-width:1;stroke-linejoin:miter;stroke-miterlimit:10;"/><line x1="270.917" y1="212.234" x2="280.917" y2="212.234" style="stroke:#181818;stroke-width:1;"/><line x1="280.917" y1="212.234" x2="280.917" y2="234.234" style="stroke:#181818;stroke-width:1;"/><polygon points="276.917,224.234,280.917,234.234,284.917,224.234,280.917,228.234" fill="#181818" style="stroke:#181818;stroke-width:1;stroke-linejoin:miter;stroke-miterlimit:10;"/><line x1="103.918" y1="376.141" x2="103.918" y2="394.141" style="stroke:#181818;stroke-width:1;"/><line x1="103.918" y1="394.141" x2="180.417" y2="394.141" style="stroke:#181818;stroke-width:1;"/><polygon points="170.417,390.141,180.417,394.141,170.417,398.141,174.417,394.141" fill="#181818" style="stroke:#181818;stroke-width:1;stroke-linejoin:miter;stroke-miterlimit:10;"/><line x1="280.917" y1="322.172" x2="280.917" y2="394.141" style="stroke:#181818;stroke-width:1;"/><line x1="280.917" y1="394.141" x2="204.417" y2="394.141" style="stroke:#181818;stroke-width:1;"/><polygon points="214.417,390.141,204.417,394.141,214.417,398.141,210.417,394.141" fill="#181818" style="stroke:#181818;stroke-width:1;stroke-linejoin:miter;stroke-miterlimit:10;"/><line x1="192.417" y1="180.234" x2="192.417" y2="200.234" style="stroke:#181818;stroke-width:1;"/><polygon points="188.417,190.234,192.417,200.234,196.417,190.234,192.417,194.234" fill="#181818" style="stroke:#181818;stroke-width:1;stroke-linejoin:miter;stroke-miterlimit:10;"/><line x1="192.417" y1="406.141" x2="192.417" y2="426.141" style="stroke:#181818;stroke-width:1;"/><polygon points="188.417,416.141,192.417,426.141,196.417,416.141,192.417,420.141" fill="#181818" style="stroke:#181818;stroke-width:1;stroke-linejoin:miter;stroke-miterlimit:10;"/><line x1="192.417" y1="504.109" x2="192.417" y2="528.512" style="stroke:#181818;stroke-width:1;"/><polygon points="188.417,518.512,192.417,528.512,196.417,518.512,192.417,522.512" fill="#181818" style="stroke:#181818;stroke-width:1;stroke-linejoin:miter;stroke-miterlimit:10;"/><line x1="284.906" y1="492.109" x2="296.906" y2="492.109" style="stroke:#181818;stroke-width:1;"/><polygon points="292.906,535.496,296.906,545.496,300.906,535.496,296.906,539.496" fill="#181818" style="stroke:#181818;stroke-width:1;stroke-linejoin:miter;stroke-miterlimit:10;"/><line x1="296.906" y1="492.109" x2="296.906" y2="594.48" style="stroke:#181818;stroke-width:1;"/><line x1="296.906" y1="594.48" x2="204.417" y2="594.48" style="stroke:#181818;stroke-width:1;"/><polygon points="214.417,590.48,204.417,594.48,214.417,598.48,210.417,594.48" fill="#181818" style="stroke:#181818;stroke-width:1;stroke-linejoin:miter;stroke-miterlimit:10;"/><line x1="192.417" y1="562.48" x2="192.417" y2="582.48" style="stroke:#181818;stroke-width:1;"/><polygon points="188.417,572.48,192.417,582.48,196.417,572.48,192.417,576.48" fill="#181818" style="stroke:#181818;stroke-width:1;stroke-linejoin:miter;stroke-miterlimit:10;"/><line x1="192.417" y1="460.109" x2="192.417" y2="480.109" style="stroke:#181818;stroke-width:1;"/><polygon points="188.417,470.109,192.417,480.109,196.417,470.109,192.417,474.109" fill="#181818" style="stroke:#181818;stroke-width:1;stroke-linejoin:miter;stroke-miterlimit:10;"/><line x1="192.417" y1="606.48" x2="192.417" y2="626.48" style="stroke:#181818;stroke-width:1;"/><polygon points="188.417,616.48,192.417,626.48,196.417,616.48,192.417,620.48" fill="#181818" style="stroke:#181818;stroke-width:1;stroke-linejoin:miter;stroke-miterlimit:10;"/><?plantuml-src NP3DJiGm38JlVGeVsrU00weAGXn0gE97S3Fjj3M4P8czbNXxt6KhTVSOpzZpJKmiWEwY8IiwanIf7X6DQd_COhzqBJnc_YuADSvM51SjEiWCQg78CnzsMlpieNRfSZEX-_fVF_6eYp9GsQGu1EcCtbC4rJDBu8-0gufiGgJo3LhvcPkPmvuDz899EcTyp9Ao0oqPjvaTSNDy6Jxl-iM_nNfQBhk6eA3o8LK7_4ylkYLU4rvPRA54x6Nm-NsAOYclNPgSL2MEnnxhLXF06Vt97vwNQU4cnHdnCKSjxVu0?></g></svg>