<svg xmlns="http://www.w3.org/2000/svg" xmlns:xlink="http://www.w3.org/1999/xlink" version="1.1" data-diagram-type="DESCRIPTION" style="width:846px;height:715px;background:#FFFFFF;" width="846px" height="715px" viewBox="0 0 846 715" zoomAndPan="magnify" preserveAspectRatio="none" contentStyleType="text/css"><?plantuml 1.2026.7beta8?><defs/><g font-family="sans-serif" lengthAdjust="spacing"><g class="title" data-source-line="1"><text x="272.787" y="22.995" fill="#000" font-size="14" textLength="293.542" font-weight="700">Simulation Environment Architecture</text></g><!--cluster Simulation Platform--><g class="cluster" data-qualified-name="Simulation Platform" id="ent0001" data-source-line="6"><rect x="7" y="44.297" width="776" height="657.56" fill="none" style="stroke:#181818;stroke-width:1;" rx="2.5" ry="2.5"/><text x="315.983" y="59.292" fill="#000" font-size="14" textLength="158.033" font-weight="700">Simulation Platform</text></g><!--entity clock--><g class="entity" data-qualified-name="Simulation Platform.clock" id="ent0002" data-source-line="8"><rect x="260.9" y="79.297" width="168.196" height="68.891" fill="#F1F1F1" style="stroke:#181818;stroke-width:0.5;" rx="2.5" ry="2.5"/><text x="270.9" y="102.292" fill="#000" font-size="14" textLength="148.196">Simulation Controller</text><text x="270.9" y="118.589" fill="#000" font-size="14" textLength="98.068">(Global Clock)</text><text x="270.9" y="134.886" fill="#000" font-size="14" textLength="65.256">Δt = 0.1s</text></g><!--entity road--><g class="entity" data-qualified-name="Simulation Platform.road" id="ent0003" data-source-line="10"><rect x="43.17" y="291.487" width="167.663" height="52.594" fill="#F1F1F1" style="stroke:#181818;stroke-width:0.5;" rx="2.5" ry="2.5"/><text x="53.17" y="314.482" fill="#000" font-size="14" textLength="98.663">Road Network</text><text x="53.17" y="330.779" fill="#000" font-size="14" textLength="147.663">3x3 Intersection Grid</text></g><!--entity vehicles--><g class="entity" data-qualified-name="Simulation Platform.vehicles" id="ent0004" data-source-line="12"><rect x="262.91" y="225.187" width="164.177" height="36.297" fill="#F1F1F1" style="stroke:#181818;stroke-width:0.5;" rx="2.5" ry="2.5"/><text x="272.91" y="248.182" fill="#000" font-size="14" textLength="144.177">Vehicle Components</text></g><!--entity intersections--><g class="entity" data-qualified-name="Simulation Platform.intersections" id="ent0005" data-source-line="14"><rect x="458.85" y="374.077" width="196.306" height="36.297" fill="#F1F1F1" style="stroke:#181818;stroke-width:0.5;" rx="2.5" ry="2.5"/><text x="468.85" y="397.072" fill="#000" font-size="14" textLength="176.306">Intersection Components</text></g><!--entity reservation--><g class="entity" data-qualified-name="Simulation Platform.reservation" id="ent0006" data-source-line="16"><rect x="366.47" y="487.377" width="165.052" height="68.891" fill="#F1F1F1" style="stroke:#181818;stroke-width:0.5;" rx="2.5" ry="2.5"/><text x="376.47" y="510.372" fill="#000" font-size="14" textLength="145.052">ReservationManager</text><text x="376.47" y="526.669" fill="#000" font-size="14" textLength="126.656">Reservation Table</text><text x="376.47" y="542.966" fill="#000" font-size="14" textLength="131.339">Conflict Resolution</text></g><!--entity metrics--><g class="entity" data-qualified-name="Simulation Platform.metrics" id="ent0007" data-source-line="18"><rect x="142.61" y="487.377" width="188.779" height="68.891" fill="#F1F1F1" style="stroke:#181818;stroke-width:0.5;" rx="2.5" ry="2.5"/><text x="152.61" y="510.372" fill="#000" font-size="14" textLength="168.779">Performance Monitoring</text><text x="152.61" y="526.669" fill="#000" font-size="14" textLength="124.517">Metrics Collection</text><text x="152.61" y="542.966" fill="#000" font-size="14" textLength="161.342">Travel / Wait / Collision</text></g><!--entity dashboard--><g class="entity" data-qualified-name="Simulation Platform.dashboard" id="ent0008" data-source-line="20"><rect x="61.31" y="633.267" width="189.388" height="52.594" fill="#F1F1F1" style="stroke:#181818;stroke-width:0.5;" rx="2.5" ry="2.5"/><text x="71.31" y="656.262" fill="#000" font-size="14" textLength="169.388">Visualization Dashboard</text><text x="71.31" y="672.559" fill="#000" font-size="14" textLength="160.255">Real-Time Observation</text></g><!--link clock to road--><g class="link" data-entity-1="ent0002" data-entity-2="ent0003" id="lnk9" data-source-line="24" data-link-type="dependency"><path d="M260.77,141.197 C239.91,150.547 218.75,162.697 202,178.187 C167.85,209.757 147.652,255.805 136.812,286.345" style="stroke:#181818;stroke-width:1;" fill="none" id="clock-to-road"/><polygon points="135.14,291.057,141.92,283.913,136.812,286.345,134.381,281.237,135.14,291.057" fill="#181818" style="stroke:#181818;stroke-width:1;stroke-linejoin:miter;stroke-miterlimit:10;"/><text x="203" y="191.254" fill="#000" font-size="13" textLength="133.015">update environment</text></g><!--link clock to vehicles--><g class="link" data-entity-1="ent0002" data-entity-2="ent0004" id="lnk10" data-source-line="25" data-link-type="dependency"><path d="M345,148.597 C345,173.107 345,200.247 345,219.807" style="stroke:#181818;stroke-width:1;" fill="none" id="clock-to-vehicles"/><polygon points="345,224.807,349,215.807,345,219.807,341,215.807,345,224.807" fill="#181818" style="stroke:#181818;stroke-width:1;stroke-linejoin:miter;stroke-miterlimit:10;"/><text x="346" y="191.254" fill="#000" font-size="13" textLength="95.285">simulation tick</text></g><!--link clock to intersections--><g class="link" data-entity-1="ent0002" data-entity-2="ent0005" id="lnk11" data-source-line="26" data-link-type="dependency"><path d="M408.71,148.557 C422.93,157.347 437.49,167.417 450,178.187 C499.58,220.877 517.85,231.507 544,291.487 C555.79,318.537 557.699,348.337 557.619,368.867" style="stroke:#181818;stroke-width:1;" fill="none" id="clock-to-intersections"/><polygon points="557.6,373.867,561.635,364.883,557.619,368.867,553.635,364.851,557.6,373.867" fill="#181818" style="stroke:#181818;stroke-width:1;stroke-linejoin:miter;stroke-miterlimit:10;"/><text x="529" y="247.904" fill="#000" font-size="13" textLength="95.285">simulation tick</text></g><!--link vehicles to intersections--><g class="link" data-entity-1="ent0004" data-entity-2="ent0005" id="lnk12" data-source-line="28" data-link-type="dependency"><path d="M350.82,261.807 C359.13,284.107 376.51,322.397 404,344.077 C420.7,357.247 436.341,365.151 456.711,372.011" style="stroke:#181818;stroke-width:1;" fill="none" id="vehicles-to-intersections"/><polygon points="461.45,373.607,454.197,366.944,456.711,372.011,451.644,374.525,461.45,373.607" fill="#181818" style="stroke:#181818;stroke-width:1;stroke-linejoin:miter;stroke-miterlimit:10;"/><text x="405" y="322.344" fill="#000" font-size="13" textLength="134.627">reservation requests</text></g><!--link intersections to reservation--><g class="link" data-entity-1="ent0005" data-entity-2="ent0006" id="lnk13" data-source-line="30" data-link-type="dependency"><path d="M586.67,410.847 C603.9,423.397 620.2,440.887 609,457.377 C603.94,464.817 572.899,477.608 536.469,490.858" style="stroke:#181818;stroke-width:1;" fill="none" id="intersections-to-reservation"/><polygon points="531.77,492.567,541.595,493.25,536.469,490.858,538.861,485.732,531.77,492.567" fill="#181818" style="stroke:#181818;stroke-width:1;stroke-linejoin:miter;stroke-miterlimit:10;"/><text x="613" y="453.444" fill="#000" font-size="13" textLength="110.849">process requests</text></g><!--link reservation to intersections--><g class="link" data-entity-1="ent0006" data-entity-2="ent0005" id="lnk14" data-source-line="32" data-link-type="dependency"><path d="M466.13,486.937 C474.62,471.847 485.68,454.367 498,440.377 C507.7,429.347 516.203,421.938 527.203,413.728" style="stroke:#181818;stroke-width:1;" fill="none" id="reservation-to-intersections"/><polygon points="531.21,410.737,521.605,412.914,527.203,413.728,526.39,419.326,531.21,410.737" fill="#181818" style="stroke:#181818;stroke-width:1;stroke-linejoin:miter;stroke-miterlimit:10;"/><text x="499" y="453.444" fill="#000" font-size="13" textLength="101.524">access decision</text></g><!--link vehicles to metrics--><g class="link" data-entity-1="ent0004" data-entity-2="ent0007" id="lnk15" data-source-line="34" data-link-type="dependency"><path d="M346.67,261.757 C350.65,306.517 358.97,424.327 340,457.377 C333.31,469.027 327.541,475.841 316.621,483.971" style="stroke:#181818;stroke-width:1;" fill="none" id="vehicles-to-metrics"/><polygon points="312.61,486.957,322.218,484.791,316.621,483.971,317.44,478.374,312.61,486.957" fill="#181818" style="stroke:#181818;stroke-width:1;stroke-linejoin:miter;stroke-miterlimit:10;"/><text x="352" y="396.794" fill="#000" font-size="13" textLength="77.054">report state</text></g><!--link intersections to metrics--><g class="link" data-entity-1="ent0005" data-entity-2="ent0007" id="lnk16" data-source-line="36" data-link-type="dependency"><path d="M488.02,410.837 C459.74,418.787 426.93,428.957 398,440.377 C364.28,453.677 332.5,469.119 302.97,484.569" style="stroke:#181818;stroke-width:1;" fill="none" id="intersections-to-metrics"/><polygon points="298.54,486.887,308.369,486.259,302.97,484.569,304.66,479.17,298.54,486.887" fill="#181818" style="stroke:#181818;stroke-width:1;stroke-linejoin:miter;stroke-miterlimit:10;"/><text x="399" y="453.444" fill="#000" font-size="13" textLength="77.054">report state</text></g><!--link metrics to dashboard--><g class="link" data-entity-1="ent0007" data-entity-2="ent0008" id="lnk17" data-source-line="38" data-link-type="dependency"><path d="M216.77,556.717 C202.62,580.437 186.583,607.313 173.703,628.893" style="stroke:#181818;stroke-width:1;" fill="none" id="metrics-to-dashboard"/><polygon points="171.14,633.187,179.187,627.509,173.703,628.893,172.318,623.409,171.14,633.187" fill="#181818" style="stroke:#181818;stroke-width:1;stroke-linejoin:miter;stroke-miterlimit:10;"/><text x="199" y="599.334" fill="#000" font-size="13" textLength="108.24">display statistics</text></g><!--link road to dashboard--><g class="link" data-entity-1="ent0003" data-entity-2="ent0008" id="lnk18" data-source-line="40" data-link-type="dependency"><path d="M101.6,344.517 C78.48,371.027 48.8,414.437 55,457.377 C64.65,524.277 62.79,545.557 98,603.267 C104.67,614.187 110.364,621.006 119.634,629.606" style="stroke:#181818;stroke-width:1;" fill="none" id="road-to-dashboard"/><polygon points="123.3,633.007,119.423,623.953,119.634,629.606,113.982,629.818,123.3,633.007" fill="#181818" style="stroke:#181818;stroke-width:1;stroke-linejoin:miter;stroke-miterlimit:10;"/><text x="56" y="453.444" fill="#000" font-size="13" textLength="137.167">render network state</text></g><!--link vehicles to dashboard--><g class="link" data-entity-1="ent0004" data-entity-2="ent0008" id="lnk19" data-source-line="41" data-link-type="dependency"><path d="M337.3,261.757 C318.84,301.687 268.32,400.697 198,457.377 C170.69,479.387 144.53,458.237 125,487.377 C95.07,532.037 119.396,592.936 138.426,628.596" style="stroke:#181818;stroke-width:1;" fill="none" id="vehicles-to-dashboard"/><polygon points="140.78,633.007,140.072,623.184,138.426,628.596,133.014,626.95,140.78,633.007" fill="#181818" style="stroke:#181818;stroke-width:1;stroke-linejoin:miter;stroke-miterlimit:10;"/><text x="217" y="453.444" fill="#000" font-size="13" textLength="100.382">render vehicles</text></g><!--link intersections to dashboard--><g class="link" data-entity-1="ent0005" data-entity-2="ent0008" id="lnk20" data-source-line="42" data-link-type="dependency"><path d="M655.51,398.357 C707.15,405.287 755.3,421.187 732,457.377 C714.56,484.467 694.59,472.507 666,487.377 C612.46,515.207 604.73,533.127 549,556.267 C450.84,597.007 336.902,624.25 255.792,640.58" style="stroke:#181818;stroke-width:1;" fill="none" id="intersections-to-dashboard"/><polygon points="250.89,641.567,260.502,643.712,255.792,640.58,258.923,635.869,250.89,641.567" fill="#181818" style="stroke:#181818;stroke-width:1;stroke-linejoin:miter;stroke-miterlimit:10;"/><text x="667" y="526.384" fill="#000" font-size="13" textLength="163.116">render lights and queues</text></g><?plantuml-src TPFFRjD04CRlVefHJd08VzHR9P1GYYeEWQgDuEBBP3s9LrdFcjrnIa6y1S_5Cp5UruuJcrmSpVo-sM-_iSMA8tYmLUDGh6Vuo4SRF5V40X-2AQsGaIPGbiM3vHe3Lc1yLNjMua6UL1sKGDux6Y6nnC8_Mjx33brKzG31OdJQdJvtFbGB-9LbeBzXz1csyYp1EqSXvnUtpc_HmSfvStYPyzy_0k_WpQktSG4OmRJboQnxZmLy9ddquP3prOyh-CH28QgfTlvji4LI1-KcugzKMgF6LtsfE-dObUE4Fnjz8RAZtbHvJv72CTrvZOpxzhwZ6cnmwoXdZMFdh17GddTDs-hSdz39w3iART38Xc3jsOeFkfsSroJ1cgW-DTvaA-TDm2CvU0tVq8e-sfwD_IbLfvZ6P6E3plxihDvWBBSUGz7U0DroOok2Bzl1O1fLz53sEykoj3fOBj-dDS0rD7M1Ga2dLtB4zF4h5qzlYbZT_WawYtk6p8OfS_GeJ_t_lQ4eUkrpAjaTSTTG1syenf5Yt9yx1qqI56HIoXUkdlDEVceV1A9eAdC-_aVszPOP8bUgiB5s-9Gm6oKjDKL_2GRYWW9mzm4zZpqpEKCFtyVKw0pjxBwK2CW5Q6mQt3y0?></g></svg>